%TF.GenerationSoftware,Altium Limited,Altium Designer,24.10.1 (45)*%
G04 Layer_Color=8421504*
%FSLAX45Y45*%
%MOMM*%
%TF.SameCoordinates,2EBBFB3B-01A8-4DF5-8D17-AA19E7DB42BB*%
%TF.FilePolarity,Positive*%
%TF.FileFunction,Paste,Top*%
%TF.Part,Single*%
G01*
G75*
%TA.AperFunction,SMDPad,CuDef*%
%ADD10R,2.10000X1.40000*%
%ADD11R,0.55000X0.55000*%
%ADD12R,1.00000X1.00000*%
%ADD13R,1.25000X0.50000*%
%ADD14R,1.25000X1.00000*%
%ADD15R,0.62000X0.62000*%
%ADD16R,0.62000X0.62000*%
%ADD17R,1.50000X3.60000*%
%ADD18R,1.00000X3.40000*%
%ADD19R,1.40000X0.30000*%
%ADD20R,5.50000X2.95000*%
%ADD21O,0.35000X0.50000*%
%ADD22O,0.50000X0.35000*%
%ADD23R,5.40000X5.40000*%
%ADD24R,1.20000X0.40000*%
%ADD25R,0.55000X0.55000*%
%ADD26R,0.60000X1.25000*%
%ADD27R,1.90000X1.50000*%
%ADD28R,1.50000X1.90000*%
%ADD29R,1.45000X0.75000*%
%ADD30R,2.50000X2.50000*%
%ADD31R,1.20000X0.60000*%
%ADD32R,0.60000X0.46000*%
%ADD33R,0.28000X0.50000*%
%ADD34R,0.36000X0.50000*%
%ADD35R,0.85000X0.40000*%
%ADD36R,0.45000X1.47500*%
%ADD37R,0.40000X0.85000*%
%ADD38R,0.50000X0.36000*%
%ADD39R,0.50000X0.28000*%
%ADD40R,3.60000X1.50000*%
%ADD41R,3.40000X1.00000*%
D10*
X9755002Y5335001D02*
D03*
X8845001D02*
D03*
X9755002Y4884999D02*
D03*
X8845001D02*
D03*
X5365003Y5825002D02*
D03*
X6275004D02*
D03*
X5365003Y6275004D02*
D03*
X6275004D02*
D03*
D11*
X5130002Y4609998D02*
D03*
Y4700001D02*
D03*
X9010000Y4425000D02*
D03*
Y4334998D02*
D03*
X9169999Y4369999D02*
D03*
Y4280002D02*
D03*
X8840003Y4489999D02*
D03*
Y4400001D02*
D03*
X8570001Y5379999D02*
D03*
Y5470002D02*
D03*
X9180000Y6479997D02*
D03*
Y6390000D02*
D03*
X9570002Y6265001D02*
D03*
Y6354999D02*
D03*
X7540000Y5139998D02*
D03*
Y5230000D02*
D03*
X6812885Y5732861D02*
D03*
Y5642859D02*
D03*
X5084542Y4908499D02*
D03*
Y4998502D02*
D03*
X5090002Y5115003D02*
D03*
Y5205000D02*
D03*
X5080803Y5455498D02*
D03*
Y5545501D02*
D03*
Y5651800D02*
D03*
Y5741802D02*
D03*
X5130002Y4500001D02*
D03*
Y4409999D02*
D03*
D12*
X4582500Y4025001D02*
D03*
D13*
X4494997Y3550001D02*
D03*
X4669998D02*
D03*
D14*
X4494997Y3424997D02*
D03*
D15*
X5240000Y4502003D02*
D03*
Y4409999D02*
D03*
X4940000Y3277997D02*
D03*
Y3370001D02*
D03*
X5379999Y3545997D02*
D03*
Y3453999D02*
D03*
X9200002Y3633998D02*
D03*
Y3726002D02*
D03*
X7910002Y6304001D02*
D03*
Y6395999D02*
D03*
X6622882Y6333861D02*
D03*
Y6241857D02*
D03*
X4232102Y5000498D02*
D03*
Y4908499D02*
D03*
X5204963Y5000498D02*
D03*
Y4908499D02*
D03*
X5195103Y5553400D02*
D03*
Y5461401D02*
D03*
X4280002Y4418000D02*
D03*
Y4509999D02*
D03*
D16*
X5114000Y3550001D02*
D03*
X5205999D02*
D03*
X4940000D02*
D03*
X4848001D02*
D03*
X10185999Y4289999D02*
D03*
X10094001D02*
D03*
X8410001Y5476276D02*
D03*
X8318002D02*
D03*
X9418001Y5900000D02*
D03*
X9510000D02*
D03*
X9164000Y5639999D02*
D03*
X9255999D02*
D03*
X8299999Y5100000D02*
D03*
X8208000D02*
D03*
X8299999Y4974575D02*
D03*
X8208000D02*
D03*
X8213999Y5350850D02*
D03*
X8305998D02*
D03*
X7997998Y5490002D02*
D03*
X8090002D02*
D03*
X6628882Y6463284D02*
D03*
X6720886D02*
D03*
X8212003Y5225425D02*
D03*
X8304002D02*
D03*
X4656902Y5291501D02*
D03*
X4564898D02*
D03*
X4663902Y4751974D02*
D03*
X4571898D02*
D03*
X4873112Y4908499D02*
D03*
X4965116D02*
D03*
X4877603Y5456601D02*
D03*
X4969601D02*
D03*
X4179900Y5541498D02*
D03*
X4271899D02*
D03*
X4589800Y4254698D02*
D03*
X4681799D02*
D03*
X5016800Y4419798D02*
D03*
X4924801D02*
D03*
D17*
X10710001Y2999999D02*
D03*
X9649998D02*
D03*
X9010000Y2970002D02*
D03*
X7950002D02*
D03*
D18*
X10479999Y3750000D02*
D03*
X10280000D02*
D03*
X10080000D02*
D03*
X9880001D02*
D03*
X8779998Y3720003D02*
D03*
X8579998D02*
D03*
X8379998D02*
D03*
X8179999D02*
D03*
D19*
X9369257Y4569998D02*
D03*
Y4520001D02*
D03*
Y4469999D02*
D03*
Y4420001D02*
D03*
Y4369999D02*
D03*
X9809256D02*
D03*
Y4420001D02*
D03*
Y4469999D02*
D03*
Y4520001D02*
D03*
Y4569998D02*
D03*
D20*
X10610002Y5464998D02*
D03*
Y4655002D02*
D03*
D21*
X8175000Y5690428D02*
D03*
X8225003D02*
D03*
X8275000D02*
D03*
X8325002D02*
D03*
X8375000D02*
D03*
X8425002D02*
D03*
X8475000D02*
D03*
X8525002D02*
D03*
X8574999D02*
D03*
X8625002D02*
D03*
X8674999D02*
D03*
X8725002D02*
D03*
Y6330427D02*
D03*
X8674999D02*
D03*
X8625002D02*
D03*
X8574999D02*
D03*
X8525002D02*
D03*
X8475000D02*
D03*
X8425002D02*
D03*
X8375000D02*
D03*
X8325002D02*
D03*
X8275000D02*
D03*
X8225003D02*
D03*
X8175000D02*
D03*
D22*
X8770000Y5735427D02*
D03*
Y5785424D02*
D03*
Y5835426D02*
D03*
Y5885424D02*
D03*
Y5935426D02*
D03*
Y5985424D02*
D03*
Y6035426D02*
D03*
Y6085423D02*
D03*
Y6135426D02*
D03*
Y6185428D02*
D03*
Y6235426D02*
D03*
Y6285428D02*
D03*
X8130002D02*
D03*
Y6235426D02*
D03*
Y6185428D02*
D03*
Y6135426D02*
D03*
Y6085423D02*
D03*
Y6035426D02*
D03*
Y5985424D02*
D03*
Y5935426D02*
D03*
Y5885424D02*
D03*
Y5835426D02*
D03*
Y5785424D02*
D03*
Y5735427D02*
D03*
D23*
X8450001Y6010427D02*
D03*
D24*
X6867296Y6462857D02*
D03*
Y6527861D02*
D03*
Y6592860D02*
D03*
X7057299D02*
D03*
Y6527861D02*
D03*
Y6462857D02*
D03*
D25*
X6612885Y6727861D02*
D03*
X6522883D02*
D03*
X7287885Y6587861D02*
D03*
X7197882D02*
D03*
X9014999Y6480002D02*
D03*
X8925002D02*
D03*
X6565001Y5270002D02*
D03*
X6654998D02*
D03*
X6645001Y4100002D02*
D03*
X6734998D02*
D03*
X6445001Y4740001D02*
D03*
X6354999D02*
D03*
X3925001Y5850001D02*
D03*
X3834999D02*
D03*
X3954998Y6330000D02*
D03*
X3865001D02*
D03*
D26*
X6817385Y5892861D02*
D03*
X7008383D02*
D03*
X6912884Y6102858D02*
D03*
D27*
X10149998Y6167498D02*
D03*
X9829999D02*
D03*
X10149998Y6352502D02*
D03*
X9829999D02*
D03*
D28*
X7582499Y5779999D02*
D03*
Y5459999D02*
D03*
X7397501Y5779999D02*
D03*
Y5459999D02*
D03*
D29*
X11156914Y6159998D02*
D03*
Y6390000D02*
D03*
D30*
X6230000Y3019999D02*
D03*
Y3719998D02*
D03*
X6929999Y3019999D02*
D03*
Y3719998D02*
D03*
D31*
X4728530Y4902398D02*
D03*
Y4997399D02*
D03*
Y5092400D02*
D03*
X4478528D02*
D03*
Y4997399D02*
D03*
Y4902398D02*
D03*
X4733900Y5456601D02*
D03*
Y5551602D02*
D03*
Y5646603D02*
D03*
X4483903D02*
D03*
Y5551602D02*
D03*
Y5456601D02*
D03*
X4510801Y4413702D02*
D03*
Y4508698D02*
D03*
Y4603699D02*
D03*
X4760798D02*
D03*
Y4508698D02*
D03*
Y4413702D02*
D03*
D32*
X5564998Y4920000D02*
D03*
X5355001D02*
D03*
X5544998Y5459999D02*
D03*
X5335001D02*
D03*
X5595000Y4409999D02*
D03*
X5384998D02*
D03*
D33*
X6920001Y5220000D02*
D03*
X7000001D02*
D03*
X6660002Y4769998D02*
D03*
X6580002D02*
D03*
D34*
X6960001Y5320000D02*
D03*
X6620002Y4869998D02*
D03*
D35*
X6554998Y5135001D02*
D03*
Y5070003D02*
D03*
Y5004999D02*
D03*
X6765000D02*
D03*
Y5135001D02*
D03*
X6085002Y4295003D02*
D03*
Y4229999D02*
D03*
Y4165001D02*
D03*
X6294999D02*
D03*
Y4295003D02*
D03*
D36*
X5945002Y4906198D02*
D03*
X6010001D02*
D03*
X6074999D02*
D03*
X6139998D02*
D03*
X6205002D02*
D03*
X6270000D02*
D03*
X6334999D02*
D03*
Y5493802D02*
D03*
X6270000D02*
D03*
X6205002D02*
D03*
X6139998D02*
D03*
X6074999D02*
D03*
X6010001D02*
D03*
X5945002D02*
D03*
D37*
X6205002Y4675002D02*
D03*
X6139998D02*
D03*
X6074999D02*
D03*
Y4465000D02*
D03*
X6205002D02*
D03*
D38*
X6550000Y4260002D02*
D03*
D39*
X6649999Y4300002D02*
D03*
Y4220002D02*
D03*
D40*
X2910002Y4460001D02*
D03*
Y5519999D02*
D03*
Y3070001D02*
D03*
Y4129999D02*
D03*
D41*
X3659998Y4689998D02*
D03*
Y4889998D02*
D03*
Y5090003D02*
D03*
Y5290002D02*
D03*
Y3299998D02*
D03*
Y3499998D02*
D03*
Y3700003D02*
D03*
Y3900002D02*
D03*
%TF.MD5,59238d688cf0124bde6e7898a8664204*%
M02*
