%TF.GenerationSoftware,Altium Limited,Altium Designer,24.10.1 (45)*%
G04 Layer_Color=65535*
%FSLAX45Y45*%
%MOMM*%
%TF.SameCoordinates,2EBBFB3B-01A8-4DF5-8D17-AA19E7DB42BB*%
%TF.FilePolarity,Positive*%
%TF.FileFunction,Legend,Top*%
%TF.Part,Single*%
G01*
G75*
%TA.AperFunction,NonConductor*%
%ADD52C,0.25000*%
%ADD53C,0.20000*%
%ADD54C,0.10000*%
%ADD55C,0.12700*%
%ADD56C,0.15000*%
%ADD57C,0.25400*%
D52*
X8857498Y5460003D02*
G03*
X8857498Y5460003I-12500J0D01*
G01*
X8122499Y5590426D02*
G03*
X8122499Y5590426I-12500J0D01*
G01*
X6287500Y5700000D02*
G03*
X6287500Y5700000I-12500J0D01*
G01*
D53*
X4392500Y3424000D02*
G03*
X4392500Y3424000I-10000J0D01*
G01*
X6230001Y2799998D02*
G03*
X6240001Y2799998I5000J0D01*
G01*
D02*
G03*
X6230001Y2799998I-5000J0D01*
G01*
D02*
G03*
X6240001Y2799998I5000J0D01*
G01*
X5741000Y4920000D02*
G03*
X5741000Y4920000I-10000J0D01*
G01*
X5721000Y5460000D02*
G03*
X5721000Y5460000I-10000J0D01*
G01*
X5771000Y4410000D02*
G03*
X5771000Y4410000I-10000J0D01*
G01*
X3754575Y6510000D02*
G03*
X3754575Y6510000I-10000J0D01*
G01*
X12999503Y3158002D02*
X13519998D01*
Y5717002D01*
X11438001Y3158002D02*
X11958498D01*
X11438001D02*
Y5579999D01*
X11958498Y3158002D02*
X12999503D01*
X11590000Y5717002D02*
X13519998D01*
X9000002Y5410002D02*
X9600001D01*
X9000002Y4809998D02*
X9600001D01*
Y5410002D01*
X9000002Y4809998D02*
Y5410002D01*
X9474256Y4620001D02*
X9704253D01*
Y4320002D02*
Y4620001D01*
X9474256Y4320002D02*
X9704253D01*
X9474256D02*
Y4620001D01*
X9299255D02*
X9439255D01*
X10360000Y5060000D02*
X10859999D01*
X8095000Y5655427D02*
X8117500D01*
X8095000D02*
Y5677926D01*
Y6342924D02*
Y6365428D01*
X8117500D01*
X8782502D02*
X8805001D01*
Y6342924D02*
Y6365428D01*
X8782502Y5655427D02*
X8805001D01*
Y5677926D01*
X6997299Y6407861D02*
X7117298D01*
X6766885Y5990361D02*
Y6005358D01*
X7058884D01*
Y5990361D02*
Y6005358D01*
X6766885Y5990361D02*
X7058884D01*
X6762384Y5830357D02*
Y5955360D01*
X5520004Y5750001D02*
X6120003D01*
X5520004Y6350005D02*
X6120003D01*
X5520004Y5750001D02*
Y6350005D01*
X6120003Y5750001D02*
Y6350005D01*
X11104413Y6274999D02*
X11209416D01*
X4573529Y4852401D02*
X4633529D01*
X4573529D02*
Y5142403D01*
X4633529D01*
Y4852401D02*
Y5142403D01*
X4668530Y4837400D02*
X4788530D01*
X6632499Y5170002D02*
X6687500D01*
Y4970003D02*
Y5170002D01*
X6632499Y4970003D02*
X6687500D01*
X6632499D02*
Y5170002D01*
X6512499Y5180000D02*
X6597503D01*
X5890001Y5015001D02*
Y5384998D01*
X6390000D01*
Y5015001D02*
Y5384998D01*
X5890001Y5015001D02*
X6390000D01*
X5887502Y4832502D02*
Y4980000D01*
X4578899Y5406598D02*
X4638899D01*
X4578899D02*
Y5696600D01*
X4638899D01*
Y5406598D02*
Y5696600D01*
X4673900Y5391602D02*
X4793899D01*
X6240003Y4542500D02*
Y4597502D01*
X6039998Y4542500D02*
X6240003D01*
X6039998D02*
Y4597502D01*
X6240003D01*
X6250000Y4632503D02*
Y4717501D01*
X6162502Y4329999D02*
X6217498D01*
Y4129999D02*
Y4329999D01*
X6162502Y4129999D02*
X6217498D01*
X6162502D02*
Y4329999D01*
X6042503Y4340001D02*
X6127501D01*
X4700798Y4348698D02*
X4820798D01*
X4665802Y4363700D02*
Y4653702D01*
X4605802D02*
X4665802D01*
X4605802Y4363700D02*
Y4653702D01*
Y4363700D02*
X4665802D01*
X3000573Y6659499D02*
X3035574D01*
X3000573Y5765500D02*
Y6659499D01*
Y5765500D02*
X3035574D01*
X3291576Y6659499D02*
X3359577D01*
X3291576Y5765500D02*
X3359577D01*
D54*
X9830000Y6470000D02*
G03*
X9830000Y6460000I0J-5000D01*
G01*
D02*
G03*
X9830000Y6470000I0J5000D01*
G01*
X7690000Y5780000D02*
G03*
X7700000Y5780000I5000J0D01*
G01*
D02*
G03*
X7690000Y5780000I-5000J0D01*
G01*
X10559999Y3750000D02*
X10779999D01*
Y3227502D02*
Y3750000D01*
X9580001D02*
X9800001D01*
X9580001Y3227502D02*
Y3750000D01*
X9760001Y2824998D02*
X10599999D01*
X8860003Y3720003D02*
X9080002D01*
Y3197499D02*
Y3720003D01*
X7879999D02*
X8099999D01*
X7879999Y3197499D02*
Y3720003D01*
X8059999Y2795001D02*
X8900003D01*
X6154999Y3219999D02*
Y3519998D01*
X6405001Y3794999D02*
X6729999D01*
X7005000Y3219999D02*
Y3519998D01*
X6405001Y2944998D02*
X6729999D01*
X3659998Y4389999D02*
Y4609998D01*
X3137499Y4389999D02*
X3659998D01*
Y5370002D02*
Y5590002D01*
X3137499D02*
X3659998D01*
X2735001Y4569998D02*
Y5410002D01*
X3659998Y2999999D02*
Y3219999D01*
X3137499Y2999999D02*
X3659998D01*
Y3980002D02*
Y4200002D01*
X3137499D02*
X3659998D01*
X2735001Y3179999D02*
Y4020002D01*
D55*
X4667499Y4074998D02*
X4732498D01*
Y3610000D02*
Y4074998D01*
Y3375000D02*
Y3490001D01*
X4592498Y3375000D02*
X4732498D01*
X4432498Y3610000D02*
Y4074998D01*
X4497502D01*
X5375001Y4984999D02*
X5544998D01*
X5375001Y4855002D02*
X5544998D01*
Y4975001D02*
Y4984999D01*
Y4855002D02*
Y4864999D01*
X5375001Y4975001D02*
Y4984999D01*
Y4855002D02*
Y4864999D01*
X5355001Y5525003D02*
X5524998D01*
X5355001Y5395001D02*
X5524998D01*
Y5515000D02*
Y5525003D01*
Y5395001D02*
Y5404998D01*
X5355001Y5515000D02*
Y5525003D01*
Y5395001D02*
Y5404998D01*
X5404998Y4475002D02*
X5575000D01*
X5404998Y4345000D02*
X5575000D01*
Y4465000D02*
Y4475002D01*
Y4345000D02*
Y4355003D01*
X5404998Y4465000D02*
Y4475002D01*
Y4345000D02*
Y4355003D01*
D56*
X6885000Y5237500D02*
Y5320000D01*
X6920001D01*
X7035002Y5237500D02*
Y5320000D01*
X7000001D02*
X7035002D01*
X6955003Y5220000D02*
X6965000D01*
X6614998Y4769998D02*
X6625001D01*
X6660002Y4869998D02*
X6694998D01*
Y4787499D02*
Y4869998D01*
X6545001D02*
X6580002D01*
X6545001Y4787499D02*
Y4869998D01*
X6649999Y4254998D02*
Y4265000D01*
X6550000Y4300002D02*
Y4335003D01*
X6632499D01*
X6550000Y4185001D02*
Y4220002D01*
Y4185001D02*
X6632499D01*
D57*
X11522657Y5972381D02*
X11471873D01*
X11497265D01*
Y5845422D01*
X11471873Y5820030D01*
X11446482D01*
X11421090Y5845422D01*
X11573441D02*
X11598833Y5820030D01*
X11649616D01*
X11675008Y5845422D01*
Y5946989D01*
X11649616Y5972381D01*
X11598833D01*
X11573441Y5946989D01*
Y5921597D01*
X11598833Y5896205D01*
X11675008D01*
X11725791Y5946989D02*
X11751183Y5972381D01*
X11801967D01*
X11827359Y5946989D01*
Y5845422D01*
X11801967Y5820030D01*
X11751183D01*
X11725791Y5845422D01*
Y5946989D01*
X11878142Y5820030D02*
X11928926D01*
X11903534D01*
Y5972381D01*
X11878142Y5946989D01*
X8524069Y4925819D02*
X8498677Y4900428D01*
Y4849644D01*
X8524069Y4824252D01*
X8549461D01*
X8574853Y4849644D01*
Y4900428D01*
X8600245Y4925819D01*
X8625636D01*
X8651028Y4900428D01*
Y4849644D01*
X8625636Y4824252D01*
X8498677Y4976603D02*
X8651028D01*
X8600245Y5027386D01*
X8651028Y5078170D01*
X8498677D01*
X8651028Y5205129D02*
X8498677D01*
X8574853Y5128954D01*
Y5230521D01*
X8524069Y5281304D02*
X8498677Y5306696D01*
Y5357480D01*
X8524069Y5382872D01*
X8625636D01*
X8651028Y5357480D01*
Y5306696D01*
X8625636Y5281304D01*
X8524069D01*
X8651028Y5433655D02*
Y5484439D01*
Y5459047D01*
X8498677D01*
X8524069Y5433655D01*
X5105870Y4826450D02*
Y4978801D01*
X5182046D01*
X5207437Y4953409D01*
Y4902626D01*
X5182046Y4877234D01*
X5105870D01*
X5156654D02*
X5207437Y4826450D01*
X5359788Y4978801D02*
X5309004Y4953409D01*
X5258221Y4902626D01*
Y4851842D01*
X5283613Y4826450D01*
X5334396D01*
X5359788Y4851842D01*
Y4877234D01*
X5334396Y4902626D01*
X5258221D01*
X5410572Y4953409D02*
X5435963Y4978801D01*
X5486747D01*
X5512139Y4953409D01*
Y4851842D01*
X5486747Y4826450D01*
X5435963D01*
X5410572Y4851842D01*
Y4953409D01*
X5639098Y4826450D02*
Y4978801D01*
X5562922Y4902626D01*
X5664490D01*
X4632063Y3119258D02*
X4733630D01*
Y3271609D01*
X4632063D01*
X4733630Y3195434D02*
X4682847D01*
X4581280Y3144650D02*
X4555888Y3119258D01*
X4505104D01*
X4479712Y3144650D01*
Y3170042D01*
X4505104Y3195434D01*
X4479712Y3220826D01*
Y3246217D01*
X4505104Y3271609D01*
X4555888D01*
X4581280Y3246217D01*
Y3220826D01*
X4555888Y3195434D01*
X4581280Y3170042D01*
Y3144650D01*
X4555888Y3195434D02*
X4505104D01*
X4428929Y3144650D02*
X4403537Y3119258D01*
X4352754D01*
X4327362Y3144650D01*
Y3246217D01*
X4352754Y3271609D01*
X4403537D01*
X4428929Y3246217D01*
Y3144650D01*
X4276578D02*
X4251186Y3119258D01*
X4200403D01*
X4175011Y3144650D01*
Y3246217D01*
X4200403Y3271609D01*
X4251186D01*
X4276578Y3246217D01*
Y3144650D01*
X5167643Y4152511D02*
X5193035Y4127119D01*
X5243818D01*
X5269210Y4152511D01*
Y4254078D01*
X5243818Y4279470D01*
X5193035D01*
X5167643Y4254078D01*
X5015292Y4127119D02*
X5066076Y4152511D01*
X5116859Y4203295D01*
Y4254078D01*
X5091468Y4279470D01*
X5040684D01*
X5015292Y4254078D01*
Y4228686D01*
X5040684Y4203295D01*
X5116859D01*
X4964509Y4152511D02*
X4939117Y4127119D01*
X4888333D01*
X4862942Y4152511D01*
Y4254078D01*
X4888333Y4279470D01*
X4939117D01*
X4964509Y4254078D01*
Y4152511D01*
X4710591Y4127119D02*
X4761375Y4152511D01*
X4812158Y4203295D01*
Y4254078D01*
X4786766Y4279470D01*
X4735983D01*
X4710591Y4254078D01*
Y4228686D01*
X4735983Y4203295D01*
X4812158D01*
X5463489Y3477642D02*
X5488881Y3503034D01*
Y3553818D01*
X5463489Y3579210D01*
X5361922D01*
X5336531Y3553818D01*
Y3503034D01*
X5361922Y3477642D01*
X5463489Y3426859D02*
X5488881Y3401467D01*
Y3350683D01*
X5463489Y3325292D01*
X5438098D01*
X5412706Y3350683D01*
X5387314Y3325292D01*
X5361922D01*
X5336531Y3350683D01*
Y3401467D01*
X5361922Y3426859D01*
X5387314D01*
X5412706Y3401467D01*
X5438098Y3426859D01*
X5463489D01*
X5412706Y3401467D02*
Y3350683D01*
X5463489Y3274508D02*
X5488881Y3249116D01*
Y3198333D01*
X5463489Y3172941D01*
X5361922D01*
X5336531Y3198333D01*
Y3249116D01*
X5361922Y3274508D01*
X5463489D01*
Y3122157D02*
X5488881Y3096765D01*
Y3045982D01*
X5463489Y3020590D01*
X5361922D01*
X5336531Y3045982D01*
Y3096765D01*
X5361922Y3122157D01*
X5463489D01*
X5222881Y3579210D02*
X5070530D01*
Y3477642D01*
X5197489Y3426859D02*
X5222881Y3401467D01*
Y3350683D01*
X5197489Y3325292D01*
X5172098D01*
X5146706Y3350683D01*
X5121314Y3325292D01*
X5095922D01*
X5070530Y3350683D01*
Y3401467D01*
X5095922Y3426859D01*
X5121314D01*
X5146706Y3401467D01*
X5172098Y3426859D01*
X5197489D01*
X5146706Y3401467D02*
Y3350683D01*
X5197489Y3274508D02*
X5222881Y3249116D01*
Y3198333D01*
X5197489Y3172941D01*
X5095922D01*
X5070530Y3198333D01*
Y3249116D01*
X5095922Y3274508D01*
X5197489D01*
Y3122157D02*
X5222881Y3096765D01*
Y3045982D01*
X5197489Y3020590D01*
X5095922D01*
X5070530Y3045982D01*
Y3096765D01*
X5095922Y3122157D01*
X5197489D01*
X4867643Y3020511D02*
X4893035Y2995119D01*
X4943818D01*
X4969210Y3020511D01*
Y3122078D01*
X4943818Y3147470D01*
X4893035D01*
X4867643Y3122078D01*
X4816860Y3020511D02*
X4791468Y2995119D01*
X4740684D01*
X4715292Y3020511D01*
Y3045903D01*
X4740684Y3071295D01*
X4715292Y3096686D01*
Y3122078D01*
X4740684Y3147470D01*
X4791468D01*
X4816860Y3122078D01*
Y3096686D01*
X4791468Y3071295D01*
X4816860Y3045903D01*
Y3020511D01*
X4791468Y3071295D02*
X4740684D01*
X4664509Y3020511D02*
X4639117Y2995119D01*
X4588333D01*
X4562942Y3020511D01*
Y3122078D01*
X4588333Y3147470D01*
X4639117D01*
X4664509Y3122078D01*
Y3020511D01*
X4512158Y3147470D02*
X4461375D01*
X4486766D01*
Y2995119D01*
X4512158Y3020511D01*
X5307643Y3196510D02*
X5333035Y3171119D01*
X5383818D01*
X5409210Y3196510D01*
Y3298077D01*
X5383818Y3323469D01*
X5333035D01*
X5307643Y3298077D01*
X5256859Y3196510D02*
X5231468Y3171119D01*
X5180684D01*
X5155292Y3196510D01*
Y3221902D01*
X5180684Y3247294D01*
X5155292Y3272686D01*
Y3298077D01*
X5180684Y3323469D01*
X5231468D01*
X5256859Y3298077D01*
Y3272686D01*
X5231468Y3247294D01*
X5256859Y3221902D01*
Y3196510D01*
X5231468Y3247294D02*
X5180684D01*
X5104509Y3196510D02*
X5079117Y3171119D01*
X5028333D01*
X5002941Y3196510D01*
Y3298077D01*
X5028333Y3323469D01*
X5079117D01*
X5104509Y3298077D01*
Y3196510D01*
X4850591Y3323469D02*
X4952158D01*
X4850591Y3221902D01*
Y3196510D01*
X4875983Y3171119D01*
X4926766D01*
X4952158Y3196510D01*
X9597037Y4252601D02*
X9546254D01*
X9571646D01*
Y4125642D01*
X9546254Y4100250D01*
X9520862D01*
X9495470Y4125642D01*
X9647821D02*
X9673213Y4100250D01*
X9723996D01*
X9749388Y4125642D01*
Y4227209D01*
X9723996Y4252601D01*
X9673213D01*
X9647821Y4227209D01*
Y4201817D01*
X9673213Y4176425D01*
X9749388D01*
X9800172Y4227209D02*
X9825564Y4252601D01*
X9876347D01*
X9901739Y4227209D01*
Y4125642D01*
X9876347Y4100250D01*
X9825564D01*
X9800172Y4125642D01*
Y4227209D01*
X10054090Y4100250D02*
X9952522D01*
X10054090Y4201817D01*
Y4227209D01*
X10028698Y4252601D01*
X9977914D01*
X9952522Y4227209D01*
X9127643Y3376511D02*
X9153035Y3351120D01*
X9203818D01*
X9229210Y3376511D01*
Y3478078D01*
X9203818Y3503470D01*
X9153035D01*
X9127643Y3478078D01*
X9076859D02*
X9051468Y3503470D01*
X9000684D01*
X8975292Y3478078D01*
Y3376511D01*
X9000684Y3351120D01*
X9051468D01*
X9076859Y3376511D01*
Y3401903D01*
X9051468Y3427295D01*
X8975292D01*
X8924509Y3376511D02*
X8899117Y3351120D01*
X8848333D01*
X8822941Y3376511D01*
Y3478078D01*
X8848333Y3503470D01*
X8899117D01*
X8924509Y3478078D01*
Y3376511D01*
X8772158D02*
X8746766Y3351120D01*
X8695983D01*
X8670591Y3376511D01*
Y3478078D01*
X8695983Y3503470D01*
X8746766D01*
X8772158Y3478078D01*
Y3376511D01*
X7897037Y4222601D02*
X7846254D01*
X7871645D01*
Y4095642D01*
X7846254Y4070250D01*
X7820862D01*
X7795470Y4095642D01*
X7947821D02*
X7973213Y4070250D01*
X8023996D01*
X8049388Y4095642D01*
Y4197209D01*
X8023996Y4222601D01*
X7973213D01*
X7947821Y4197209D01*
Y4171817D01*
X7973213Y4146426D01*
X8049388D01*
X8100172Y4197209D02*
X8125563Y4222601D01*
X8176347D01*
X8201739Y4197209D01*
Y4095642D01*
X8176347Y4070250D01*
X8125563D01*
X8100172Y4095642D01*
Y4197209D01*
X8252522D02*
X8277914Y4222601D01*
X8328698D01*
X8354089Y4197209D01*
Y4095642D01*
X8328698Y4070250D01*
X8277914D01*
X8252522Y4095642D01*
Y4197209D01*
X9034130Y4208550D02*
Y4056199D01*
X8957955D01*
X8932563Y4081591D01*
Y4132375D01*
X8957955Y4157766D01*
X9034130D01*
X8983347D02*
X8932563Y4208550D01*
X8780212Y4056199D02*
X8881780D01*
Y4132375D01*
X8830996Y4106983D01*
X8805604D01*
X8780212Y4132375D01*
Y4183158D01*
X8805604Y4208550D01*
X8856388D01*
X8881780Y4183158D01*
X8729429Y4081591D02*
X8704037Y4056199D01*
X8653253D01*
X8627862Y4081591D01*
Y4183158D01*
X8653253Y4208550D01*
X8704037D01*
X8729429Y4183158D01*
Y4081591D01*
X8577078Y4208550D02*
X8526295D01*
X8551686D01*
Y4056199D01*
X8577078Y4081591D01*
X9194130Y4153549D02*
Y4001199D01*
X9117955D01*
X9092563Y4026591D01*
Y4077374D01*
X9117955Y4102766D01*
X9194130D01*
X9143347D02*
X9092563Y4153549D01*
X8940212Y4001199D02*
X9041779D01*
Y4077374D01*
X8990996Y4051982D01*
X8965604D01*
X8940212Y4077374D01*
Y4128158D01*
X8965604Y4153549D01*
X9016388D01*
X9041779Y4128158D01*
X8889429Y4026591D02*
X8864037Y4001199D01*
X8813253D01*
X8787862Y4026591D01*
Y4128158D01*
X8813253Y4153549D01*
X8864037D01*
X8889429Y4128158D01*
Y4026591D01*
X8737078D02*
X8711686Y4001199D01*
X8660903D01*
X8635511Y4026591D01*
Y4128158D01*
X8660903Y4153549D01*
X8711686D01*
X8737078Y4128158D01*
Y4026591D01*
X9836511Y4362357D02*
X9811120Y4336965D01*
Y4286182D01*
X9836511Y4260790D01*
X9938078D01*
X9963470Y4286182D01*
Y4336965D01*
X9938078Y4362357D01*
X9811120Y4514708D02*
Y4413141D01*
X9887295D01*
X9861903Y4463924D01*
Y4489316D01*
X9887295Y4514708D01*
X9938078D01*
X9963470Y4489316D01*
Y4438532D01*
X9938078Y4413141D01*
X9836511Y4565491D02*
X9811120Y4590883D01*
Y4641667D01*
X9836511Y4667058D01*
X9938078D01*
X9963470Y4641667D01*
Y4590883D01*
X9938078Y4565491D01*
X9836511D01*
Y4717842D02*
X9811120Y4743234D01*
Y4794017D01*
X9836511Y4819409D01*
X9938078D01*
X9963470Y4794017D01*
Y4743234D01*
X9938078Y4717842D01*
X9836511D01*
X8864132Y4273552D02*
Y4121201D01*
X8787957D01*
X8762565Y4146593D01*
Y4197376D01*
X8787957Y4222768D01*
X8864132D01*
X8813348D02*
X8762565Y4273552D01*
X8610214Y4121201D02*
X8711781D01*
Y4197376D01*
X8660998Y4171985D01*
X8635606D01*
X8610214Y4197376D01*
Y4248160D01*
X8635606Y4273552D01*
X8686389D01*
X8711781Y4248160D01*
X8559430Y4146593D02*
X8534039Y4121201D01*
X8483255D01*
X8457863Y4146593D01*
Y4248160D01*
X8483255Y4273552D01*
X8534039D01*
X8559430Y4248160D01*
Y4146593D01*
X8305512Y4273552D02*
X8407080D01*
X8305512Y4171985D01*
Y4146593D01*
X8330904Y4121201D01*
X8381688D01*
X8407080Y4146593D01*
X10134033Y4626208D02*
X9981683D01*
Y4550032D01*
X10007074Y4524640D01*
X10032466D01*
X10057858Y4550032D01*
Y4626208D01*
Y4550032D01*
X10083250Y4524640D01*
X10108641D01*
X10134033Y4550032D01*
Y4626208D01*
Y4372290D02*
Y4473857D01*
X10057858D01*
X10083250Y4423073D01*
Y4397682D01*
X10057858Y4372290D01*
X10007074D01*
X9981683Y4397682D01*
Y4448465D01*
X10007074Y4473857D01*
X10108641Y4321506D02*
X10134033Y4296114D01*
Y4245331D01*
X10108641Y4219939D01*
X10007074D01*
X9981683Y4245331D01*
Y4296114D01*
X10007074Y4321506D01*
X10108641D01*
Y4169155D02*
X10134033Y4143764D01*
Y4092980D01*
X10108641Y4067588D01*
X10007074D01*
X9981683Y4092980D01*
Y4143764D01*
X10007074Y4169155D01*
X10108641D01*
X10888129Y4251058D02*
X10786561Y4403409D01*
Y4251058D02*
X10888129Y4403409D01*
X10634211Y4251058D02*
X10735778D01*
Y4327233D01*
X10684994Y4301841D01*
X10659603D01*
X10634211Y4327233D01*
Y4378017D01*
X10659603Y4403409D01*
X10710386D01*
X10735778Y4378017D01*
X10583427Y4276450D02*
X10558035Y4251058D01*
X10507252D01*
X10481860Y4276450D01*
Y4378017D01*
X10507252Y4403409D01*
X10558035D01*
X10583427Y4378017D01*
Y4276450D01*
X10431076D02*
X10405685Y4251058D01*
X10354901D01*
X10329509Y4276450D01*
Y4378017D01*
X10354901Y4403409D01*
X10405685D01*
X10431076Y4378017D01*
Y4276450D01*
X7836638Y5590056D02*
X7963596D01*
X7988988Y5615447D01*
Y5666231D01*
X7963596Y5691623D01*
X7836638D01*
X7862029Y5742406D02*
X7836638Y5767798D01*
Y5818582D01*
X7862029Y5843974D01*
X7887421D01*
X7912813Y5818582D01*
X7938205Y5843974D01*
X7963596D01*
X7988988Y5818582D01*
Y5767798D01*
X7963596Y5742406D01*
X7938205D01*
X7912813Y5767798D01*
X7887421Y5742406D01*
X7862029D01*
X7912813Y5767798D02*
Y5818582D01*
X7862029Y5894757D02*
X7836638Y5920149D01*
Y5970932D01*
X7862029Y5996324D01*
X7963596D01*
X7988988Y5970932D01*
Y5920149D01*
X7963596Y5894757D01*
X7862029D01*
Y6047108D02*
X7836638Y6072500D01*
Y6123283D01*
X7862029Y6148675D01*
X7963596D01*
X7988988Y6123283D01*
Y6072500D01*
X7963596Y6047108D01*
X7862029D01*
X8594128Y5253549D02*
Y5101199D01*
X8517953D01*
X8492561Y5126590D01*
Y5177374D01*
X8517953Y5202766D01*
X8594128D01*
X8543345D02*
X8492561Y5253549D01*
X8365602D02*
Y5101199D01*
X8441778Y5177374D01*
X8340210D01*
X8289427Y5126590D02*
X8264035Y5101199D01*
X8213252D01*
X8187860Y5126590D01*
Y5228157D01*
X8213252Y5253549D01*
X8264035D01*
X8289427Y5228157D01*
Y5126590D01*
X8137076D02*
X8111684Y5101199D01*
X8060901D01*
X8035509Y5126590D01*
Y5151982D01*
X8060901Y5177374D01*
X8086293D01*
X8060901D01*
X8035509Y5202766D01*
Y5228157D01*
X8060901Y5253549D01*
X8111684D01*
X8137076Y5228157D01*
X8060511Y5548632D02*
X8035119Y5523240D01*
Y5472457D01*
X8060511Y5447065D01*
X8162078D01*
X8187470Y5472457D01*
Y5523240D01*
X8162078Y5548632D01*
X8060511Y5599416D02*
X8035119Y5624807D01*
Y5675591D01*
X8060511Y5700983D01*
X8085903D01*
X8111294Y5675591D01*
X8136686Y5700983D01*
X8162078D01*
X8187470Y5675591D01*
Y5624807D01*
X8162078Y5599416D01*
X8136686D01*
X8111294Y5624807D01*
X8085903Y5599416D01*
X8060511D01*
X8111294Y5624807D02*
Y5675591D01*
X8060511Y5751766D02*
X8035119Y5777158D01*
Y5827942D01*
X8060511Y5853333D01*
X8162078D01*
X8187470Y5827942D01*
Y5777158D01*
X8162078Y5751766D01*
X8060511D01*
Y5904117D02*
X8035119Y5929509D01*
Y5980292D01*
X8060511Y6005684D01*
X8085903D01*
X8111294Y5980292D01*
X8136686Y6005684D01*
X8162078D01*
X8187470Y5980292D01*
Y5929509D01*
X8162078Y5904117D01*
X8136686D01*
X8111294Y5929509D01*
X8085903Y5904117D01*
X8060511D01*
X8111294Y5929509D02*
Y5980292D01*
X9204127Y6263548D02*
Y6111197D01*
X9127952D01*
X9102560Y6136589D01*
Y6187372D01*
X9127952Y6212764D01*
X9204127D01*
X9153344D02*
X9102560Y6263548D01*
X8975601D02*
Y6111197D01*
X9051777Y6187372D01*
X8950209D01*
X8899426Y6136589D02*
X8874034Y6111197D01*
X8823251D01*
X8797859Y6136589D01*
Y6238156D01*
X8823251Y6263548D01*
X8874034D01*
X8899426Y6238156D01*
Y6136589D01*
X8645508Y6263548D02*
X8747075D01*
X8645508Y6161981D01*
Y6136589D01*
X8670900Y6111197D01*
X8721683D01*
X8747075Y6136589D01*
X9767490Y5827645D02*
X9792882Y5853037D01*
Y5903820D01*
X9767490Y5929212D01*
X9665923D01*
X9640531Y5903820D01*
Y5853037D01*
X9665923Y5827645D01*
X9767490Y5776861D02*
X9792882Y5751469D01*
Y5700686D01*
X9767490Y5675294D01*
X9742098D01*
X9716706Y5700686D01*
X9691314Y5675294D01*
X9665923D01*
X9640531Y5700686D01*
Y5751469D01*
X9665923Y5776861D01*
X9691314D01*
X9716706Y5751469D01*
X9742098Y5776861D01*
X9767490D01*
X9716706Y5751469D02*
Y5700686D01*
X9767490Y5624510D02*
X9792882Y5599119D01*
Y5548335D01*
X9767490Y5522943D01*
X9665923D01*
X9640531Y5548335D01*
Y5599119D01*
X9665923Y5624510D01*
X9767490D01*
X9792882Y5472160D02*
Y5370593D01*
X9767490D01*
X9665923Y5472160D01*
X9640531D01*
X9513489Y5567642D02*
X9538881Y5593034D01*
Y5643818D01*
X9513489Y5669210D01*
X9411922D01*
X9386530Y5643818D01*
Y5593034D01*
X9411922Y5567642D01*
Y5516859D02*
X9386530Y5491467D01*
Y5440684D01*
X9411922Y5415292D01*
X9513489D01*
X9538881Y5440684D01*
Y5491467D01*
X9513489Y5516859D01*
X9488098D01*
X9462706Y5491467D01*
Y5415292D01*
X9513489Y5364508D02*
X9538881Y5339116D01*
Y5288333D01*
X9513489Y5262941D01*
X9411922D01*
X9386530Y5288333D01*
Y5339116D01*
X9411922Y5364508D01*
X9513489D01*
X9386530Y5212157D02*
Y5161374D01*
Y5186766D01*
X9538881D01*
X9513489Y5212157D01*
X7950511Y5172357D02*
X7925119Y5146965D01*
Y5096182D01*
X7950511Y5070790D01*
X8052078D01*
X8077470Y5096182D01*
Y5146965D01*
X8052078Y5172357D01*
X7950511Y5223141D02*
X7925119Y5248533D01*
Y5299316D01*
X7950511Y5324708D01*
X7975903D01*
X8001295Y5299316D01*
X8026687Y5324708D01*
X8052078D01*
X8077470Y5299316D01*
Y5248533D01*
X8052078Y5223141D01*
X8026687D01*
X8001295Y5248533D01*
X7975903Y5223141D01*
X7950511D01*
X8001295Y5248533D02*
Y5299316D01*
X7950511Y5375491D02*
X7925119Y5400883D01*
Y5451667D01*
X7950511Y5477059D01*
X8052078D01*
X8077470Y5451667D01*
Y5400883D01*
X8052078Y5375491D01*
X7950511D01*
X7925119Y5629409D02*
X7950511Y5578626D01*
X8001295Y5527842D01*
X8052078D01*
X8077470Y5553234D01*
Y5604017D01*
X8052078Y5629409D01*
X8026687D01*
X8001295Y5604017D01*
Y5527842D01*
X7950511Y5046932D02*
X7925119Y5021540D01*
Y4970756D01*
X7950511Y4945365D01*
X8052078D01*
X8077470Y4970756D01*
Y5021540D01*
X8052078Y5046932D01*
X7950511Y5097715D02*
X7925119Y5123107D01*
Y5173891D01*
X7950511Y5199282D01*
X7975903D01*
X8001295Y5173891D01*
X8026687Y5199282D01*
X8052078D01*
X8077470Y5173891D01*
Y5123107D01*
X8052078Y5097715D01*
X8026687D01*
X8001295Y5123107D01*
X7975903Y5097715D01*
X7950511D01*
X8001295Y5123107D02*
Y5173891D01*
X7950511Y5250066D02*
X7925119Y5275458D01*
Y5326241D01*
X7950511Y5351633D01*
X8052078D01*
X8077470Y5326241D01*
Y5275458D01*
X8052078Y5250066D01*
X7950511D01*
X7925119Y5503984D02*
Y5402417D01*
X8001295D01*
X7975903Y5453200D01*
Y5478592D01*
X8001295Y5503984D01*
X8052078D01*
X8077470Y5478592D01*
Y5427809D01*
X8052078Y5402417D01*
X8588881Y5380061D02*
X8436530D01*
Y5278494D01*
X8563489Y5227710D02*
X8588881Y5202319D01*
Y5151535D01*
X8563489Y5126143D01*
X8538098D01*
X8512706Y5151535D01*
X8487314Y5126143D01*
X8461922D01*
X8436530Y5151535D01*
Y5202319D01*
X8461922Y5227710D01*
X8487314D01*
X8512706Y5202319D01*
X8538098Y5227710D01*
X8563489D01*
X8512706Y5202319D02*
Y5151535D01*
X8563489Y5075360D02*
X8588881Y5049968D01*
Y4999184D01*
X8563489Y4973792D01*
X8461922D01*
X8436530Y4999184D01*
Y5049968D01*
X8461922Y5075360D01*
X8563489D01*
X8436530Y4923009D02*
Y4872225D01*
Y4897617D01*
X8588881D01*
X8563489Y4923009D01*
X7740510Y5562358D02*
X7715118Y5536966D01*
Y5486183D01*
X7740510Y5460791D01*
X7842077D01*
X7867469Y5486183D01*
Y5536966D01*
X7842077Y5562358D01*
X7740510Y5613142D02*
X7715118Y5638534D01*
Y5689317D01*
X7740510Y5714709D01*
X7765902D01*
X7791294Y5689317D01*
X7816685Y5714709D01*
X7842077D01*
X7867469Y5689317D01*
Y5638534D01*
X7842077Y5613142D01*
X7816685D01*
X7791294Y5638534D01*
X7765902Y5613142D01*
X7740510D01*
X7791294Y5638534D02*
Y5689317D01*
X7740510Y5765492D02*
X7715118Y5790884D01*
Y5841668D01*
X7740510Y5867060D01*
X7842077D01*
X7867469Y5841668D01*
Y5790884D01*
X7842077Y5765492D01*
X7740510D01*
X7867469Y5994018D02*
X7715118D01*
X7791294Y5917843D01*
Y6019410D01*
X6552138Y6417369D02*
X6704489D01*
Y6493545D01*
X6679097Y6518937D01*
X6653705D01*
X6628313Y6493545D01*
Y6417369D01*
Y6493545D01*
X6602922Y6518937D01*
X6577530D01*
X6552138Y6493545D01*
Y6417369D01*
Y6671287D02*
Y6569720D01*
X6628313D01*
X6602922Y6620504D01*
Y6645896D01*
X6628313Y6671287D01*
X6679097D01*
X6704489Y6645896D01*
Y6595112D01*
X6679097Y6569720D01*
X6577530Y6722071D02*
X6552138Y6747463D01*
Y6798246D01*
X6577530Y6823638D01*
X6679097D01*
X6704489Y6798246D01*
Y6747463D01*
X6679097Y6722071D01*
X6577530D01*
X6704489Y6874422D02*
Y6925205D01*
Y6899813D01*
X6552138D01*
X6577530Y6874422D01*
X6396433Y6703730D02*
X6244082D01*
Y6779905D01*
X6269474Y6805297D01*
X6320258D01*
X6345649Y6779905D01*
Y6703730D01*
Y6754513D02*
X6396433Y6805297D01*
X6244082Y6957648D02*
Y6856080D01*
X6320258D01*
X6294866Y6906864D01*
Y6932256D01*
X6320258Y6957648D01*
X6371041D01*
X6396433Y6932256D01*
Y6881472D01*
X6371041Y6856080D01*
X6269474Y7008431D02*
X6244082Y7033823D01*
Y7084606D01*
X6269474Y7109998D01*
X6371041D01*
X6396433Y7084606D01*
Y7033823D01*
X6371041Y7008431D01*
X6269474D01*
X6396433Y7236957D02*
X6244082D01*
X6320258Y7160782D01*
Y7262349D01*
X7982357Y6653489D02*
X7956965Y6678881D01*
X7906182D01*
X7880790Y6653489D01*
Y6551922D01*
X7906182Y6526530D01*
X7956965D01*
X7982357Y6551922D01*
X8033141Y6653489D02*
X8058533Y6678881D01*
X8109316D01*
X8134708Y6653489D01*
Y6628097D01*
X8109316Y6602705D01*
X8134708Y6577313D01*
Y6551922D01*
X8109316Y6526530D01*
X8058533D01*
X8033141Y6551922D01*
Y6577313D01*
X8058533Y6602705D01*
X8033141Y6628097D01*
Y6653489D01*
X8058533Y6602705D02*
X8109316D01*
X8185491Y6526530D02*
X8236275D01*
X8210883D01*
Y6678881D01*
X8185491Y6653489D01*
X8312450D02*
X8337842Y6678881D01*
X8388626D01*
X8414017Y6653489D01*
Y6551922D01*
X8388626Y6526530D01*
X8337842D01*
X8312450Y6551922D01*
Y6653489D01*
X6550525Y5984372D02*
X6575917Y5958980D01*
X6626700D01*
X6652092Y5984372D01*
Y6085939D01*
X6626700Y6111331D01*
X6575917D01*
X6550525Y6085939D01*
X6499741Y5984372D02*
X6474350Y5958980D01*
X6423566D01*
X6398174Y5984372D01*
Y6009764D01*
X6423566Y6035156D01*
X6398174Y6060547D01*
Y6085939D01*
X6423566Y6111331D01*
X6474350D01*
X6499741Y6085939D01*
Y6060547D01*
X6474350Y6035156D01*
X6499741Y6009764D01*
Y5984372D01*
X6474350Y6035156D02*
X6423566D01*
X6347391Y5984372D02*
X6321999Y5958980D01*
X6271215D01*
X6245823Y5984372D01*
Y6085939D01*
X6271215Y6111331D01*
X6321999D01*
X6347391Y6085939D01*
Y5984372D01*
X6195040Y6085939D02*
X6169648Y6111331D01*
X6118865D01*
X6093473Y6085939D01*
Y5984372D01*
X6118865Y5958980D01*
X6169648D01*
X6195040Y5984372D01*
Y6009764D01*
X6169648Y6035156D01*
X6093473D01*
X6632221Y5930518D02*
X6530654D01*
X6505262Y5905126D01*
Y5854343D01*
X6530654Y5828951D01*
X6632221D01*
X6657613Y5854343D01*
Y5905126D01*
X6606829Y5879734D02*
X6657613Y5930518D01*
Y5905126D02*
X6632221Y5930518D01*
X6657613Y6057477D02*
X6505262D01*
X6581437Y5981301D01*
Y6082869D01*
X6530654Y6133652D02*
X6505262Y6159044D01*
Y6209828D01*
X6530654Y6235219D01*
X6632221D01*
X6657613Y6209828D01*
Y6159044D01*
X6632221Y6133652D01*
X6530654D01*
Y6286003D02*
X6505262Y6311395D01*
Y6362178D01*
X6530654Y6387570D01*
X6632221D01*
X6657613Y6362178D01*
Y6311395D01*
X6632221Y6286003D01*
X6530654D01*
X7414334Y6611989D02*
X7566684D01*
Y6535814D01*
X7541293Y6510422D01*
X7490509D01*
X7465117Y6535814D01*
Y6611989D01*
Y6561206D02*
X7414334Y6510422D01*
X7566684Y6358071D02*
Y6459638D01*
X7490509D01*
X7515901Y6408855D01*
Y6383463D01*
X7490509Y6358071D01*
X7439726D01*
X7414334Y6383463D01*
Y6434246D01*
X7439726Y6459638D01*
X7541293Y6307288D02*
X7566684Y6281896D01*
Y6231112D01*
X7541293Y6205720D01*
X7439726D01*
X7414334Y6231112D01*
Y6281896D01*
X7439726Y6307288D01*
X7541293D01*
Y6154937D02*
X7566684Y6129545D01*
Y6078762D01*
X7541293Y6053370D01*
X7515901D01*
X7490509Y6078762D01*
Y6104153D01*
Y6078762D01*
X7465117Y6053370D01*
X7439726D01*
X7414334Y6078762D01*
Y6129545D01*
X7439726Y6154937D01*
X6978371Y6390926D02*
X7003763Y6416318D01*
Y6467101D01*
X6978371Y6492493D01*
X6876804D01*
X6851412Y6467101D01*
Y6416318D01*
X6876804Y6390926D01*
X7003763Y6238575D02*
Y6340143D01*
X6927587D01*
X6952979Y6289359D01*
Y6263967D01*
X6927587Y6238575D01*
X6876804D01*
X6851412Y6263967D01*
Y6314751D01*
X6876804Y6340143D01*
X6978371Y6187792D02*
X7003763Y6162400D01*
Y6111616D01*
X6978371Y6086225D01*
X6876804D01*
X6851412Y6111616D01*
Y6162400D01*
X6876804Y6187792D01*
X6978371D01*
X6851412Y6035441D02*
Y5984658D01*
Y6010049D01*
X7003763D01*
X6978371Y6035441D01*
X9594130Y6138550D02*
Y5986199D01*
X9517955D01*
X9492563Y6011591D01*
Y6062375D01*
X9517955Y6087767D01*
X9594130D01*
X9543346D02*
X9492563Y6138550D01*
X9365604D02*
Y5986199D01*
X9441779Y6062375D01*
X9340212D01*
X9289428Y6011591D02*
X9264037Y5986199D01*
X9213253D01*
X9187861Y6011591D01*
Y6113158D01*
X9213253Y6138550D01*
X9264037D01*
X9289428Y6113158D01*
Y6011591D01*
X9060902Y6138550D02*
Y5986199D01*
X9137078Y6062375D01*
X9035511D01*
X6595929Y6234183D02*
X6621321Y6259574D01*
Y6310358D01*
X6595929Y6335750D01*
X6570538D01*
X6545146Y6310358D01*
Y6259574D01*
X6519754Y6234183D01*
X6494362D01*
X6468970Y6259574D01*
Y6310358D01*
X6494362Y6335750D01*
X6621321Y6183399D02*
X6468970D01*
X6519754Y6132616D01*
X6468970Y6081832D01*
X6621321D01*
X6468970Y5954873D02*
X6621321D01*
X6545146Y6031048D01*
Y5929481D01*
X6595929Y5878698D02*
X6621321Y5853306D01*
Y5802522D01*
X6595929Y5777130D01*
X6494362D01*
X6468970Y5802522D01*
Y5853306D01*
X6494362Y5878698D01*
X6595929D01*
Y5726347D02*
X6621321Y5700955D01*
Y5650172D01*
X6595929Y5624780D01*
X6494362D01*
X6468970Y5650172D01*
Y5700955D01*
X6494362Y5726347D01*
X6595929D01*
X8798550Y6455870D02*
X8646199D01*
Y6532045D01*
X8671591Y6557437D01*
X8722374D01*
X8747766Y6532045D01*
Y6455870D01*
Y6506653D02*
X8798550Y6557437D01*
Y6684396D02*
X8646199D01*
X8722374Y6608220D01*
Y6709788D01*
X8671591Y6760571D02*
X8646199Y6785963D01*
Y6836747D01*
X8671591Y6862138D01*
X8773158D01*
X8798550Y6836747D01*
Y6785963D01*
X8773158Y6760571D01*
X8671591D01*
X8798550Y6912922D02*
Y6963705D01*
Y6938314D01*
X8646199D01*
X8671591Y6912922D01*
X9655990Y6804781D02*
Y6652430D01*
X9732165D01*
X9757557Y6677822D01*
Y6779389D01*
X9732165Y6804781D01*
X9655990D01*
X9884516Y6652430D02*
Y6804781D01*
X9808341Y6728605D01*
X9909908D01*
X9960692Y6779389D02*
X9986083Y6804781D01*
X10036867D01*
X10062259Y6779389D01*
Y6677822D01*
X10036867Y6652430D01*
X9986083D01*
X9960692Y6677822D01*
Y6779389D01*
X10113042D02*
X10138434Y6804781D01*
X10189218D01*
X10214609Y6779389D01*
Y6677822D01*
X10189218Y6652430D01*
X10138434D01*
X10113042Y6677822D01*
Y6779389D01*
X7515872Y5356449D02*
Y5508799D01*
X7592048D01*
X7617439Y5483408D01*
Y5432624D01*
X7592048Y5407232D01*
X7515872D01*
X7566656D02*
X7617439Y5356449D01*
X7668223Y5483408D02*
X7693615Y5508799D01*
X7744398D01*
X7769790Y5483408D01*
Y5458016D01*
X7744398Y5432624D01*
X7719006D01*
X7744398D01*
X7769790Y5407232D01*
Y5381841D01*
X7744398Y5356449D01*
X7693615D01*
X7668223Y5381841D01*
X7820574Y5483408D02*
X7845966Y5508799D01*
X7896749D01*
X7922141Y5483408D01*
Y5381841D01*
X7896749Y5356449D01*
X7845966D01*
X7820574Y5381841D01*
Y5483408D01*
X8074492Y5356449D02*
X7972924D01*
X8074492Y5458016D01*
Y5483408D01*
X8049100Y5508799D01*
X7998316D01*
X7972924Y5483408D01*
X8561489Y5153068D02*
X8586881Y5178460D01*
Y5229244D01*
X8561489Y5254636D01*
X8459922D01*
X8434531Y5229244D01*
Y5178460D01*
X8459922Y5153068D01*
X8561489Y5102285D02*
X8586881Y5076893D01*
Y5026110D01*
X8561489Y5000718D01*
X8536098D01*
X8510706Y5026110D01*
X8485314Y5000718D01*
X8459922D01*
X8434531Y5026110D01*
Y5076893D01*
X8459922Y5102285D01*
X8485314D01*
X8510706Y5076893D01*
X8536098Y5102285D01*
X8561489D01*
X8510706Y5076893D02*
Y5026110D01*
X8561489Y4949934D02*
X8586881Y4924542D01*
Y4873759D01*
X8561489Y4848367D01*
X8459922D01*
X8434531Y4873759D01*
Y4924542D01*
X8459922Y4949934D01*
X8561489D01*
Y4797583D02*
X8586881Y4772192D01*
Y4721408D01*
X8561489Y4696016D01*
X8536098D01*
X8510706Y4721408D01*
Y4746800D01*
Y4721408D01*
X8485314Y4696016D01*
X8459922D01*
X8434531Y4721408D01*
Y4772192D01*
X8459922Y4797583D01*
X6837014Y5516409D02*
Y5364058D01*
X6760839D01*
X6735447Y5389450D01*
Y5440233D01*
X6760839Y5465625D01*
X6837014D01*
X6786231D02*
X6735447Y5516409D01*
X6608488D02*
Y5364058D01*
X6684663Y5440233D01*
X6583096D01*
X6532313Y5389450D02*
X6506921Y5364058D01*
X6456137D01*
X6430745Y5389450D01*
Y5491017D01*
X6456137Y5516409D01*
X6506921D01*
X6532313Y5491017D01*
Y5389450D01*
X6379962D02*
X6354570Y5364058D01*
X6303786D01*
X6278395Y5389450D01*
Y5491017D01*
X6303786Y5516409D01*
X6354570D01*
X6379962Y5491017D01*
Y5389450D01*
X8034781Y5954010D02*
X7882430D01*
Y5877835D01*
X7907822Y5852443D01*
X8009389D01*
X8034781Y5877835D01*
Y5954010D01*
X8009389Y5801659D02*
X8034781Y5776268D01*
Y5725484D01*
X8009389Y5700092D01*
X7983997D01*
X7958605Y5725484D01*
Y5750876D01*
Y5725484D01*
X7933213Y5700092D01*
X7907822D01*
X7882430Y5725484D01*
Y5776268D01*
X7907822Y5801659D01*
X8009389Y5649309D02*
X8034781Y5623917D01*
Y5573133D01*
X8009389Y5547742D01*
X7907822D01*
X7882430Y5573133D01*
Y5623917D01*
X7907822Y5649309D01*
X8009389D01*
Y5496958D02*
X8034781Y5471566D01*
Y5420783D01*
X8009389Y5395391D01*
X7907822D01*
X7882430Y5420783D01*
Y5471566D01*
X7907822Y5496958D01*
X8009389D01*
X11079444Y6682621D02*
Y6530270D01*
X11155620D01*
X11181012Y6555662D01*
Y6581053D01*
X11155620Y6606445D01*
X11079444D01*
X11155620D01*
X11181012Y6631837D01*
Y6657229D01*
X11155620Y6682621D01*
X11079444D01*
X11333362D02*
X11231795D01*
Y6606445D01*
X11282579Y6631837D01*
X11307971D01*
X11333362Y6606445D01*
Y6555662D01*
X11307971Y6530270D01*
X11257187D01*
X11231795Y6555662D01*
X11384146Y6657229D02*
X11409538Y6682621D01*
X11460321D01*
X11485713Y6657229D01*
Y6555662D01*
X11460321Y6530270D01*
X11409538D01*
X11384146Y6555662D01*
Y6657229D01*
X11638064Y6530270D02*
X11536497D01*
X11638064Y6631837D01*
Y6657229D01*
X11612672Y6682621D01*
X11561888D01*
X11536497Y6657229D01*
X6025011Y4178938D02*
Y4026588D01*
X6101186D01*
X6126578Y4051979D01*
Y4077371D01*
X6101186Y4102763D01*
X6025011D01*
X6101186D01*
X6126578Y4128155D01*
Y4153546D01*
X6101186Y4178938D01*
X6025011D01*
X6253537Y4026588D02*
Y4178938D01*
X6177362Y4102763D01*
X6278929D01*
X6329712Y4153546D02*
X6355104Y4178938D01*
X6405888D01*
X6431279Y4153546D01*
Y4051979D01*
X6405888Y4026588D01*
X6355104D01*
X6329712Y4051979D01*
Y4153546D01*
X6482063D02*
X6507455Y4178938D01*
X6558238D01*
X6583630Y4153546D01*
Y4051979D01*
X6558238Y4026588D01*
X6507455D01*
X6482063Y4051979D01*
Y4153546D01*
X5628239Y4830430D02*
X5780590D01*
Y4906605D01*
X5755198Y4931997D01*
X5729806D01*
X5704415Y4906605D01*
Y4830430D01*
Y4906605D01*
X5679023Y4931997D01*
X5653631D01*
X5628239Y4906605D01*
Y4830430D01*
X5653631Y4982781D02*
X5628239Y5008173D01*
Y5058956D01*
X5653631Y5084348D01*
X5679023D01*
X5704415Y5058956D01*
Y5033564D01*
Y5058956D01*
X5729806Y5084348D01*
X5755198D01*
X5780590Y5058956D01*
Y5008173D01*
X5755198Y4982781D01*
X5653631Y5135131D02*
X5628239Y5160523D01*
Y5211307D01*
X5653631Y5236699D01*
X5755198D01*
X5780590Y5211307D01*
Y5160523D01*
X5755198Y5135131D01*
X5653631D01*
Y5287482D02*
X5628239Y5312874D01*
Y5363658D01*
X5653631Y5389049D01*
X5755198D01*
X5780590Y5363658D01*
Y5312874D01*
X5755198Y5287482D01*
X5653631D01*
X4081450Y6354130D02*
X4233801D01*
Y6277955D01*
X4208409Y6252563D01*
X4157626D01*
X4132234Y6277955D01*
Y6354130D01*
Y6303347D02*
X4081450Y6252563D01*
X4233801Y6201779D02*
Y6100212D01*
X4208409D01*
X4106842Y6201779D01*
X4081450D01*
X4208409Y6049429D02*
X4233801Y6024037D01*
Y5973253D01*
X4208409Y5947861D01*
X4106842D01*
X4081450Y5973253D01*
Y6024037D01*
X4106842Y6049429D01*
X4208409D01*
X4081450Y5897078D02*
Y5846294D01*
Y5871686D01*
X4233801D01*
X4208409Y5897078D01*
X4051450Y5874130D02*
X4203801D01*
Y5797955D01*
X4178409Y5772563D01*
X4127625D01*
X4102234Y5797955D01*
Y5874130D01*
Y5823347D02*
X4051450Y5772563D01*
X4203801Y5721780D02*
Y5620212D01*
X4178409D01*
X4076842Y5721780D01*
X4051450D01*
X4178409Y5569429D02*
X4203801Y5544037D01*
Y5493253D01*
X4178409Y5467862D01*
X4076842D01*
X4051450Y5493253D01*
Y5544037D01*
X4076842Y5569429D01*
X4178409D01*
Y5417078D02*
X4203801Y5391686D01*
Y5340903D01*
X4178409Y5315511D01*
X4076842D01*
X4051450Y5340903D01*
Y5391686D01*
X4076842Y5417078D01*
X4178409D01*
X5105870Y4626450D02*
Y4778801D01*
X5182046D01*
X5207437Y4753409D01*
Y4702626D01*
X5182046Y4677234D01*
X5105870D01*
X5156654D02*
X5207437Y4626450D01*
X5359788Y4778801D02*
X5309004Y4753409D01*
X5258221Y4702626D01*
Y4651842D01*
X5283613Y4626450D01*
X5334396D01*
X5359788Y4651842D01*
Y4677234D01*
X5334396Y4702626D01*
X5258221D01*
X5410572Y4753409D02*
X5435963Y4778801D01*
X5486747D01*
X5512139Y4753409D01*
Y4651842D01*
X5486747Y4626450D01*
X5435963D01*
X5410572Y4651842D01*
Y4753409D01*
X5664490Y4778801D02*
X5562922D01*
Y4702626D01*
X5613706Y4728017D01*
X5639098D01*
X5664490Y4702626D01*
Y4651842D01*
X5639098Y4626450D01*
X5588314D01*
X5562922Y4651842D01*
X5060409Y5124950D02*
Y5277301D01*
X5136585D01*
X5161976Y5251909D01*
Y5201125D01*
X5136585Y5175734D01*
X5060409D01*
X5111193D02*
X5161976Y5124950D01*
X5314327Y5277301D02*
X5263543Y5251909D01*
X5212760Y5201125D01*
Y5150342D01*
X5238152Y5124950D01*
X5288935D01*
X5314327Y5150342D01*
Y5175734D01*
X5288935Y5201125D01*
X5212760D01*
X5365111Y5251909D02*
X5390503Y5277301D01*
X5441286D01*
X5466678Y5251909D01*
Y5150342D01*
X5441286Y5124950D01*
X5390503D01*
X5365111Y5150342D01*
Y5251909D01*
X5517461D02*
X5542853Y5277301D01*
X5593637D01*
X5619029Y5251909D01*
Y5226517D01*
X5593637Y5201125D01*
X5568245D01*
X5593637D01*
X5619029Y5175734D01*
Y5150342D01*
X5593637Y5124950D01*
X5542853D01*
X5517461Y5150342D01*
X5207891Y5671425D02*
Y5823775D01*
X5284066D01*
X5309458Y5798384D01*
Y5747600D01*
X5284066Y5722208D01*
X5207891D01*
X5258674D02*
X5309458Y5671425D01*
X5461808Y5823775D02*
X5411025Y5798384D01*
X5360241Y5747600D01*
Y5696817D01*
X5385633Y5671425D01*
X5436417D01*
X5461808Y5696817D01*
Y5722208D01*
X5436417Y5747600D01*
X5360241D01*
X5512592Y5798384D02*
X5537984Y5823775D01*
X5588767D01*
X5614159Y5798384D01*
Y5696817D01*
X5588767Y5671425D01*
X5537984D01*
X5512592Y5696817D01*
Y5798384D01*
X5766510Y5671425D02*
X5664943D01*
X5766510Y5772992D01*
Y5798384D01*
X5741118Y5823775D01*
X5690335D01*
X5664943Y5798384D01*
X5065870Y5331450D02*
Y5483801D01*
X5142045D01*
X5167437Y5458409D01*
Y5407625D01*
X5142045Y5382234D01*
X5065870D01*
X5116653D02*
X5167437Y5331450D01*
X5319788Y5483801D02*
X5269004Y5458409D01*
X5218221Y5407625D01*
Y5356842D01*
X5243613Y5331450D01*
X5294396D01*
X5319788Y5356842D01*
Y5382234D01*
X5294396Y5407625D01*
X5218221D01*
X5370571Y5458409D02*
X5395963Y5483801D01*
X5446747D01*
X5472139Y5458409D01*
Y5356842D01*
X5446747Y5331450D01*
X5395963D01*
X5370571Y5356842D01*
Y5458409D01*
X5522922Y5331450D02*
X5573706D01*
X5548314D01*
Y5483801D01*
X5522922Y5458409D01*
X5169610Y5525876D02*
Y5373525D01*
X5093434D01*
X5068042Y5398917D01*
Y5449700D01*
X5093434Y5475092D01*
X5169610D01*
X5118826D02*
X5068042Y5525876D01*
X4915692Y5373525D02*
X4966475Y5398917D01*
X5017259Y5449700D01*
Y5500484D01*
X4991867Y5525876D01*
X4941084D01*
X4915692Y5500484D01*
Y5475092D01*
X4941084Y5449700D01*
X5017259D01*
X4864908Y5398917D02*
X4839516Y5373525D01*
X4788733D01*
X4763341Y5398917D01*
Y5500484D01*
X4788733Y5525876D01*
X4839516D01*
X4864908Y5500484D01*
Y5398917D01*
X4712558D02*
X4687166Y5373525D01*
X4636382D01*
X4610990Y5398917D01*
Y5500484D01*
X4636382Y5525876D01*
X4687166D01*
X4712558Y5500484D01*
Y5398917D01*
X6518550Y4075870D02*
X6366199D01*
Y4152045D01*
X6391591Y4177437D01*
X6442374D01*
X6467766Y4152045D01*
Y4075870D01*
Y4126653D02*
X6518550Y4177437D01*
X6391591Y4228221D02*
X6366199Y4253613D01*
Y4304396D01*
X6391591Y4329788D01*
X6416983D01*
X6442374Y4304396D01*
Y4279004D01*
Y4304396D01*
X6467766Y4329788D01*
X6493158D01*
X6518550Y4304396D01*
Y4253613D01*
X6493158Y4228221D01*
X6391591Y4380571D02*
X6366199Y4405963D01*
Y4456747D01*
X6391591Y4482139D01*
X6493158D01*
X6518550Y4456747D01*
Y4405963D01*
X6493158Y4380571D01*
X6391591D01*
Y4532922D02*
X6366199Y4558314D01*
Y4609097D01*
X6391591Y4634489D01*
X6416983D01*
X6442374Y4609097D01*
Y4583706D01*
Y4609097D01*
X6467766Y4634489D01*
X6493158D01*
X6518550Y4609097D01*
Y4558314D01*
X6493158Y4532922D01*
X6571450Y4764130D02*
X6723801D01*
Y4687955D01*
X6698409Y4662563D01*
X6647626D01*
X6622234Y4687955D01*
Y4764130D01*
Y4713347D02*
X6571450Y4662563D01*
X6698409Y4611779D02*
X6723801Y4586388D01*
Y4535604D01*
X6698409Y4510212D01*
X6673017D01*
X6647626Y4535604D01*
Y4560996D01*
Y4535604D01*
X6622234Y4510212D01*
X6596842D01*
X6571450Y4535604D01*
Y4586388D01*
X6596842Y4611779D01*
X6698409Y4459429D02*
X6723801Y4434037D01*
Y4383253D01*
X6698409Y4357861D01*
X6596842D01*
X6571450Y4383253D01*
Y4434037D01*
X6596842Y4459429D01*
X6698409D01*
X6571450Y4307078D02*
Y4256295D01*
Y4281686D01*
X6723801D01*
X6698409Y4307078D01*
X6781450Y5294130D02*
X6933801D01*
Y5217955D01*
X6908409Y5192563D01*
X6857626D01*
X6832234Y5217955D01*
Y5294130D01*
Y5243346D02*
X6781450Y5192563D01*
X6908409Y5141779D02*
X6933801Y5116387D01*
Y5065604D01*
X6908409Y5040212D01*
X6883017D01*
X6857626Y5065604D01*
Y5090996D01*
Y5065604D01*
X6832234Y5040212D01*
X6806842D01*
X6781450Y5065604D01*
Y5116387D01*
X6806842Y5141779D01*
X6908409Y4989428D02*
X6933801Y4964037D01*
Y4913253D01*
X6908409Y4887861D01*
X6806842D01*
X6781450Y4913253D01*
Y4964037D01*
X6806842Y4989428D01*
X6908409D01*
Y4837078D02*
X6933801Y4811686D01*
Y4760902D01*
X6908409Y4735510D01*
X6806842D01*
X6781450Y4760902D01*
Y4811686D01*
X6806842Y4837078D01*
X6908409D01*
X6626637Y4538122D02*
Y4639689D01*
X6601245Y4665081D01*
X6550462D01*
X6525070Y4639689D01*
Y4538122D01*
X6550462Y4512730D01*
X6601245D01*
X6575853Y4563514D02*
X6626637Y4512730D01*
X6601245D02*
X6626637Y4538122D01*
X6677421Y4639689D02*
X6702813Y4665081D01*
X6753596D01*
X6778988Y4639689D01*
Y4614297D01*
X6753596Y4588905D01*
X6728204D01*
X6753596D01*
X6778988Y4563514D01*
Y4538122D01*
X6753596Y4512730D01*
X6702813D01*
X6677421Y4538122D01*
X6829771Y4639689D02*
X6855163Y4665081D01*
X6905947D01*
X6931339Y4639689D01*
Y4538122D01*
X6905947Y4512730D01*
X6855163D01*
X6829771Y4538122D01*
Y4639689D01*
X7083689Y4512730D02*
X6982122D01*
X7083689Y4614297D01*
Y4639689D01*
X7058298Y4665081D01*
X7007514D01*
X6982122Y4639689D01*
X6898122Y4793363D02*
X6999689D01*
X7025081Y4818755D01*
Y4869538D01*
X6999689Y4894930D01*
X6898122D01*
X6872730Y4869538D01*
Y4818755D01*
X6923514Y4844147D02*
X6872730Y4793363D01*
Y4818755D02*
X6898122Y4793363D01*
X6999689Y4742580D02*
X7025081Y4717188D01*
Y4666404D01*
X6999689Y4641012D01*
X6974297D01*
X6948906Y4666404D01*
Y4691796D01*
Y4666404D01*
X6923514Y4641012D01*
X6898122D01*
X6872730Y4666404D01*
Y4717188D01*
X6898122Y4742580D01*
X6999689Y4590229D02*
X7025081Y4564837D01*
Y4514053D01*
X6999689Y4488662D01*
X6898122D01*
X6872730Y4514053D01*
Y4564837D01*
X6898122Y4590229D01*
X6999689D01*
X6872730Y4437878D02*
Y4387095D01*
Y4412486D01*
X7025081D01*
X6999689Y4437878D01*
X7238122Y5243363D02*
X7339689D01*
X7365081Y5268755D01*
Y5319538D01*
X7339689Y5344930D01*
X7238122D01*
X7212730Y5319538D01*
Y5268755D01*
X7263514Y5294146D02*
X7212730Y5243363D01*
Y5268755D02*
X7238122Y5243363D01*
X7339689Y5192579D02*
X7365081Y5167187D01*
Y5116404D01*
X7339689Y5091012D01*
X7314298D01*
X7288906Y5116404D01*
Y5141796D01*
Y5116404D01*
X7263514Y5091012D01*
X7238122D01*
X7212730Y5116404D01*
Y5167187D01*
X7238122Y5192579D01*
X7339689Y5040228D02*
X7365081Y5014837D01*
Y4964053D01*
X7339689Y4938661D01*
X7238122D01*
X7212730Y4964053D01*
Y5014837D01*
X7238122Y5040228D01*
X7339689D01*
Y4887878D02*
X7365081Y4862486D01*
Y4811702D01*
X7339689Y4786310D01*
X7238122D01*
X7212730Y4811702D01*
Y4862486D01*
X7238122Y4887878D01*
X7339689D01*
X5299681Y4449010D02*
X5147330D01*
Y4347443D01*
X5299681Y4195092D02*
X5274289Y4245876D01*
X5223505Y4296660D01*
X5172722D01*
X5147330Y4271268D01*
Y4220484D01*
X5172722Y4195092D01*
X5198114D01*
X5223505Y4220484D01*
Y4296660D01*
X5274289Y4144309D02*
X5299681Y4118917D01*
Y4068134D01*
X5274289Y4042742D01*
X5172722D01*
X5147330Y4068134D01*
Y4118917D01*
X5172722Y4144309D01*
X5274289D01*
X5147330Y3890391D02*
Y3991958D01*
X5248897Y3890391D01*
X5274289D01*
X5299681Y3915783D01*
Y3966566D01*
X5274289Y3991958D01*
X5247995Y4937710D02*
X5095644D01*
Y4836143D01*
X5247995Y4683792D02*
X5222603Y4734576D01*
X5171819Y4785359D01*
X5121036D01*
X5095644Y4759967D01*
Y4709184D01*
X5121036Y4683792D01*
X5146427D01*
X5171819Y4709184D01*
Y4785359D01*
X5222603Y4633009D02*
X5247995Y4607617D01*
Y4556833D01*
X5222603Y4531441D01*
X5121036D01*
X5095644Y4556833D01*
Y4607617D01*
X5121036Y4633009D01*
X5222603D01*
X5095644Y4480658D02*
Y4429874D01*
Y4455266D01*
X5247995D01*
X5222603Y4480658D01*
X4445891Y5329576D02*
Y5177225D01*
X4547458D01*
X4699808Y5329576D02*
X4649025Y5304184D01*
X4598241Y5253400D01*
Y5202617D01*
X4623633Y5177225D01*
X4674417D01*
X4699808Y5202617D01*
Y5228008D01*
X4674417Y5253400D01*
X4598241D01*
X4750592Y5304184D02*
X4775984Y5329576D01*
X4826767D01*
X4852159Y5304184D01*
Y5202617D01*
X4826767Y5177225D01*
X4775984D01*
X4750592Y5202617D01*
Y5304184D01*
X4902943D02*
X4928335Y5329576D01*
X4979118D01*
X5004510Y5304184D01*
Y5202617D01*
X4979118Y5177225D01*
X4928335D01*
X4902943Y5202617D01*
Y5304184D01*
X4162601Y5572963D02*
Y5623747D01*
Y5598355D01*
X4035642D01*
X4010250Y5623747D01*
Y5649138D01*
X4035642Y5674530D01*
X4162601Y5522179D02*
Y5420612D01*
X4137209D01*
X4035642Y5522179D01*
X4010250D01*
X4137209Y5369829D02*
X4162601Y5344437D01*
Y5293653D01*
X4137209Y5268261D01*
X4035642D01*
X4010250Y5293653D01*
Y5344437D01*
X4035642Y5369829D01*
X4137209D01*
X4010250Y5115911D02*
Y5217478D01*
X4111817Y5115911D01*
X4137209D01*
X4162601Y5141303D01*
Y5192086D01*
X4137209Y5217478D01*
X4162601Y4182963D02*
Y4233747D01*
Y4208355D01*
X4035642D01*
X4010250Y4233747D01*
Y4259138D01*
X4035642Y4284530D01*
X4162601Y4132179D02*
Y4030612D01*
X4137209D01*
X4035642Y4132179D01*
X4010250D01*
X4137209Y3979829D02*
X4162601Y3954437D01*
Y3903653D01*
X4137209Y3878261D01*
X4035642D01*
X4010250Y3903653D01*
Y3954437D01*
X4035642Y3979829D01*
X4137209D01*
X4010250Y3827478D02*
Y3776695D01*
Y3802086D01*
X4162601D01*
X4137209Y3827478D01*
X3638158Y4804119D02*
X3688942D01*
X3663550D01*
Y4931078D01*
X3688942Y4956470D01*
X3714333D01*
X3739725Y4931078D01*
X3587374Y4804119D02*
X3485807D01*
Y4829511D01*
X3587374Y4931078D01*
Y4956470D01*
X3435024Y4829511D02*
X3409632Y4804119D01*
X3358848D01*
X3333456Y4829511D01*
Y4931078D01*
X3358848Y4956470D01*
X3409632D01*
X3435024Y4931078D01*
Y4829511D01*
X3282673D02*
X3257281Y4804119D01*
X3206498D01*
X3181106Y4829511D01*
Y4931078D01*
X3206498Y4956470D01*
X3257281D01*
X3282673Y4931078D01*
Y4829511D01*
X5062059Y4342690D02*
X5214410D01*
Y4418866D01*
X5189018Y4444258D01*
X5087451D01*
X5062059Y4418866D01*
Y4342690D01*
X5214410Y4495041D02*
X5112843D01*
X5062059Y4545825D01*
X5112843Y4596608D01*
X5214410D01*
X5138235D01*
Y4495041D01*
X5214410Y4647392D02*
X5062059D01*
Y4723567D01*
X5087451Y4748959D01*
X5138235D01*
X5163627Y4723567D01*
Y4647392D01*
Y4698175D02*
X5214410Y4748959D01*
Y4799742D02*
X5062059D01*
Y4875918D01*
X5087451Y4901310D01*
X5138235D01*
X5163627Y4875918D01*
Y4799742D01*
Y4850526D02*
X5214410Y4901310D01*
X5087451Y4952093D02*
X5062059Y4977485D01*
Y5028269D01*
X5087451Y5053660D01*
X5112843D01*
X5138235Y5028269D01*
Y5002877D01*
Y5028269D01*
X5163627Y5053660D01*
X5189018D01*
X5214410Y5028269D01*
Y4977485D01*
X5189018Y4952093D01*
X5087451Y5104444D02*
X5062059Y5129836D01*
Y5180619D01*
X5087451Y5206011D01*
X5189018D01*
X5214410Y5180619D01*
Y5129836D01*
X5189018Y5104444D01*
X5087451D01*
X5214410Y5358362D02*
Y5256795D01*
X5112843Y5358362D01*
X5087451D01*
X5062059Y5332970D01*
Y5282187D01*
X5087451Y5256795D01*
X5032059Y4852690D02*
X5184410D01*
Y4928866D01*
X5159018Y4954258D01*
X5057451D01*
X5032059Y4928866D01*
Y4852690D01*
X5184410Y5005041D02*
X5082843D01*
X5032059Y5055825D01*
X5082843Y5106608D01*
X5184410D01*
X5108235D01*
Y5005041D01*
X5184410Y5157392D02*
X5032059D01*
Y5233567D01*
X5057451Y5258959D01*
X5108235D01*
X5133627Y5233567D01*
Y5157392D01*
Y5208175D02*
X5184410Y5258959D01*
Y5309742D02*
X5032059D01*
Y5385918D01*
X5057451Y5411310D01*
X5108235D01*
X5133627Y5385918D01*
Y5309742D01*
Y5360526D02*
X5184410Y5411310D01*
X5057451Y5462093D02*
X5032059Y5487485D01*
Y5538269D01*
X5057451Y5563660D01*
X5082843D01*
X5108235Y5538269D01*
Y5512877D01*
Y5538269D01*
X5133627Y5563660D01*
X5159018D01*
X5184410Y5538269D01*
Y5487485D01*
X5159018Y5462093D01*
X5057451Y5614444D02*
X5032059Y5639836D01*
Y5690619D01*
X5057451Y5716011D01*
X5159018D01*
X5184410Y5690619D01*
Y5639836D01*
X5159018Y5614444D01*
X5057451D01*
X5184410Y5766795D02*
Y5817578D01*
Y5792187D01*
X5032059D01*
X5057451Y5766795D01*
X5012059Y5392690D02*
X5164410D01*
Y5468866D01*
X5139018Y5494257D01*
X5037451D01*
X5012059Y5468866D01*
Y5392690D01*
X5164410Y5545041D02*
X5062843D01*
X5012059Y5595824D01*
X5062843Y5646608D01*
X5164410D01*
X5088235D01*
Y5545041D01*
X5164410Y5697392D02*
X5012059D01*
Y5773567D01*
X5037451Y5798959D01*
X5088235D01*
X5113627Y5773567D01*
Y5697392D01*
Y5748175D02*
X5164410Y5798959D01*
Y5849742D02*
X5012059D01*
Y5925918D01*
X5037451Y5951310D01*
X5088235D01*
X5113627Y5925918D01*
Y5849742D01*
Y5900526D02*
X5164410Y5951310D01*
X5037451Y6002093D02*
X5012059Y6027485D01*
Y6078269D01*
X5037451Y6103660D01*
X5062843D01*
X5088235Y6078269D01*
Y6052877D01*
Y6078269D01*
X5113627Y6103660D01*
X5139018D01*
X5164410Y6078269D01*
Y6027485D01*
X5139018Y6002093D01*
X5037451Y6154444D02*
X5012059Y6179836D01*
Y6230619D01*
X5037451Y6256011D01*
X5139018D01*
X5164410Y6230619D01*
Y6179836D01*
X5139018Y6154444D01*
X5037451D01*
Y6306795D02*
X5012059Y6332186D01*
Y6382970D01*
X5037451Y6408362D01*
X5139018D01*
X5164410Y6382970D01*
Y6332186D01*
X5139018Y6306795D01*
X5037451D01*
X4332311Y4327058D02*
X4306920Y4301666D01*
Y4250882D01*
X4332311Y4225490D01*
X4433878D01*
X4459270Y4250882D01*
Y4301666D01*
X4433878Y4327058D01*
X4306920Y4479408D02*
X4332311Y4428625D01*
X4383095Y4377841D01*
X4433878D01*
X4459270Y4403233D01*
Y4454016D01*
X4433878Y4479408D01*
X4408487D01*
X4383095Y4454016D01*
Y4377841D01*
X4332311Y4530192D02*
X4306920Y4555584D01*
Y4606367D01*
X4332311Y4631759D01*
X4433878D01*
X4459270Y4606367D01*
Y4555584D01*
X4433878Y4530192D01*
X4332311D01*
Y4682543D02*
X4306920Y4707934D01*
Y4758718D01*
X4332311Y4784110D01*
X4357703D01*
X4383095Y4758718D01*
X4408487Y4784110D01*
X4433878D01*
X4459270Y4758718D01*
Y4707934D01*
X4433878Y4682543D01*
X4408487D01*
X4383095Y4707934D01*
X4357703Y4682543D01*
X4332311D01*
X4383095Y4707934D02*
Y4758718D01*
X4207643Y4160511D02*
X4233035Y4135119D01*
X4283818D01*
X4309210Y4160511D01*
Y4262078D01*
X4283818Y4287470D01*
X4233035D01*
X4207643Y4262078D01*
X4055292Y4135119D02*
X4106076Y4160511D01*
X4156860Y4211295D01*
Y4262078D01*
X4131468Y4287470D01*
X4080684D01*
X4055292Y4262078D01*
Y4236686D01*
X4080684Y4211295D01*
X4156860D01*
X4004509Y4160511D02*
X3979117Y4135119D01*
X3928334D01*
X3902942Y4160511D01*
Y4262078D01*
X3928334Y4287470D01*
X3979117D01*
X4004509Y4262078D01*
Y4160511D01*
X3852158Y4135119D02*
X3750591D01*
Y4160511D01*
X3852158Y4262078D01*
Y4287470D01*
X4314411Y4824332D02*
X4289019Y4798940D01*
Y4748156D01*
X4314411Y4722764D01*
X4415978D01*
X4441370Y4748156D01*
Y4798940D01*
X4415978Y4824332D01*
X4289019Y4976682D02*
X4314411Y4925899D01*
X4365194Y4875115D01*
X4415978D01*
X4441370Y4900507D01*
Y4951291D01*
X4415978Y4976682D01*
X4390586D01*
X4365194Y4951291D01*
Y4875115D01*
X4314411Y5027466D02*
X4289019Y5052858D01*
Y5103641D01*
X4314411Y5129033D01*
X4415978D01*
X4441370Y5103641D01*
Y5052858D01*
X4415978Y5027466D01*
X4314411D01*
X4289019Y5281384D02*
Y5179817D01*
X4365194D01*
X4339803Y5230600D01*
Y5255992D01*
X4365194Y5281384D01*
X4415978D01*
X4441370Y5255992D01*
Y5205209D01*
X4415978Y5179817D01*
X4307411Y5363857D02*
X4282019Y5338465D01*
Y5287682D01*
X4307411Y5262290D01*
X4408978D01*
X4434370Y5287682D01*
Y5338465D01*
X4408978Y5363857D01*
X4282019Y5516208D02*
X4307411Y5465424D01*
X4358194Y5414641D01*
X4408978D01*
X4434370Y5440033D01*
Y5490816D01*
X4408978Y5516208D01*
X4383586D01*
X4358194Y5490816D01*
Y5414641D01*
X4307411Y5566991D02*
X4282019Y5592383D01*
Y5643167D01*
X4307411Y5668559D01*
X4408978D01*
X4434370Y5643167D01*
Y5592383D01*
X4408978Y5566991D01*
X4307411D01*
X4434370Y5795517D02*
X4282019D01*
X4358194Y5719342D01*
Y5820909D01*
X4159743Y4651011D02*
X4185135Y4625619D01*
X4235918D01*
X4261310Y4651011D01*
Y4752578D01*
X4235918Y4777970D01*
X4185135D01*
X4159743Y4752578D01*
X4007392Y4625619D02*
X4058176Y4651011D01*
X4108959Y4701795D01*
Y4752578D01*
X4083567Y4777970D01*
X4032784D01*
X4007392Y4752578D01*
Y4727186D01*
X4032784Y4701795D01*
X4108959D01*
X3956609Y4651011D02*
X3931217Y4625619D01*
X3880433D01*
X3855041Y4651011D01*
Y4752578D01*
X3880433Y4777970D01*
X3931217D01*
X3956609Y4752578D01*
Y4651011D01*
X3804258D02*
X3778866Y4625619D01*
X3728082D01*
X3702691Y4651011D01*
Y4676403D01*
X3728082Y4701795D01*
X3753474D01*
X3728082D01*
X3702691Y4727186D01*
Y4752578D01*
X3728082Y4777970D01*
X3778866D01*
X3804258Y4752578D01*
X3922411Y5613857D02*
X3897019Y5588465D01*
Y5537682D01*
X3922411Y5512290D01*
X4023978D01*
X4049370Y5537682D01*
Y5588465D01*
X4023978Y5613857D01*
X3897019Y5766208D02*
X3922411Y5715424D01*
X3973194Y5664640D01*
X4023978D01*
X4049370Y5690032D01*
Y5740816D01*
X4023978Y5766208D01*
X3998586D01*
X3973194Y5740816D01*
Y5664640D01*
X3922411Y5816991D02*
X3897019Y5842383D01*
Y5893167D01*
X3922411Y5918558D01*
X4023978D01*
X4049370Y5893167D01*
Y5842383D01*
X4023978Y5816991D01*
X3922411D01*
X4049370Y6070909D02*
Y5969342D01*
X3947803Y6070909D01*
X3922411D01*
X3897019Y6045517D01*
Y5994734D01*
X3922411Y5969342D01*
X5132607Y4651011D02*
X5157999Y4625619D01*
X5208783D01*
X5234175Y4651011D01*
Y4752578D01*
X5208783Y4777970D01*
X5157999D01*
X5132607Y4752578D01*
X4980257Y4625619D02*
X5031040Y4651011D01*
X5081824Y4701795D01*
Y4752578D01*
X5056432Y4777970D01*
X5005649D01*
X4980257Y4752578D01*
Y4727186D01*
X5005649Y4701795D01*
X5081824D01*
X4929473Y4651011D02*
X4904081Y4625619D01*
X4853298D01*
X4827906Y4651011D01*
Y4752578D01*
X4853298Y4777970D01*
X4904081D01*
X4929473Y4752578D01*
Y4651011D01*
X4777123Y4777970D02*
X4726339D01*
X4751731D01*
Y4625619D01*
X4777123Y4651011D01*
X5122743Y5203911D02*
X5148135Y5178519D01*
X5198918D01*
X5224310Y5203911D01*
Y5305478D01*
X5198918Y5330870D01*
X5148135D01*
X5122743Y5305478D01*
X4970392Y5178519D02*
X5021176Y5203911D01*
X5071959Y5254695D01*
Y5305478D01*
X5046568Y5330870D01*
X4995784D01*
X4970392Y5305478D01*
Y5280087D01*
X4995784Y5254695D01*
X5071959D01*
X4919609Y5203911D02*
X4894217Y5178519D01*
X4843433D01*
X4818041Y5203911D01*
Y5305478D01*
X4843433Y5330870D01*
X4894217D01*
X4919609Y5305478D01*
Y5203911D01*
X4767258D02*
X4741866Y5178519D01*
X4691083D01*
X4665691Y5203911D01*
Y5305478D01*
X4691083Y5330870D01*
X4741866D01*
X4767258Y5305478D01*
Y5203911D01*
X4307691Y4883576D02*
Y4731225D01*
X4383866D01*
X4409258Y4756617D01*
Y4782008D01*
X4383866Y4807400D01*
X4307691D01*
X4383866D01*
X4409258Y4832792D01*
Y4858184D01*
X4383866Y4883576D01*
X4307691D01*
X4561609D02*
X4510825Y4858184D01*
X4460041Y4807400D01*
Y4756617D01*
X4485433Y4731225D01*
X4536217D01*
X4561609Y4756617D01*
Y4782008D01*
X4536217Y4807400D01*
X4460041D01*
X4612392Y4858184D02*
X4637784Y4883576D01*
X4688567D01*
X4713959Y4858184D01*
Y4756617D01*
X4688567Y4731225D01*
X4637784D01*
X4612392Y4756617D01*
Y4858184D01*
X4866310Y4731225D02*
X4764743D01*
X4866310Y4832792D01*
Y4858184D01*
X4840918Y4883576D01*
X4790135D01*
X4764743Y4858184D01*
X4790219Y4589779D02*
Y4742130D01*
X4714043D01*
X4688651Y4716738D01*
Y4691347D01*
X4714043Y4665955D01*
X4790219D01*
X4714043D01*
X4688651Y4640563D01*
Y4615171D01*
X4714043Y4589779D01*
X4790219D01*
X4536301D02*
X4587084Y4615171D01*
X4637868Y4665955D01*
Y4716738D01*
X4612476Y4742130D01*
X4561692D01*
X4536301Y4716738D01*
Y4691347D01*
X4561692Y4665955D01*
X4637868D01*
X4485517Y4615171D02*
X4460125Y4589779D01*
X4409342D01*
X4383950Y4615171D01*
Y4716738D01*
X4409342Y4742130D01*
X4460125D01*
X4485517Y4716738D01*
Y4615171D01*
X4333166Y4742130D02*
X4282383D01*
X4307774D01*
Y4589779D01*
X4333166Y4615171D01*
X4278791Y5945276D02*
Y5792925D01*
X4354966D01*
X4380358Y5818317D01*
Y5843708D01*
X4354966Y5869100D01*
X4278791D01*
X4354966D01*
X4380358Y5894492D01*
Y5919884D01*
X4354966Y5945276D01*
X4278791D01*
X4532708D02*
X4481925Y5919884D01*
X4431141Y5869100D01*
Y5818317D01*
X4456533Y5792925D01*
X4507317D01*
X4532708Y5818317D01*
Y5843708D01*
X4507317Y5869100D01*
X4431141D01*
X4583492Y5919884D02*
X4608884Y5945276D01*
X4659667D01*
X4685059Y5919884D01*
Y5818317D01*
X4659667Y5792925D01*
X4608884D01*
X4583492Y5818317D01*
Y5919884D01*
X4735843D02*
X4761235Y5945276D01*
X4812018D01*
X4837410Y5919884D01*
Y5818317D01*
X4812018Y5792925D01*
X4761235D01*
X4735843Y5818317D01*
Y5919884D01*
X6592541Y4343030D02*
X6440190D01*
Y4266855D01*
X6465582Y4241463D01*
X6490974D01*
X6516365Y4266855D01*
Y4343030D01*
Y4266855D01*
X6541757Y4241463D01*
X6567149D01*
X6592541Y4266855D01*
Y4343030D01*
X6567149Y4190679D02*
X6592541Y4165288D01*
Y4114504D01*
X6567149Y4089112D01*
X6541757D01*
X6516365Y4114504D01*
Y4139896D01*
Y4114504D01*
X6490974Y4089112D01*
X6465582D01*
X6440190Y4114504D01*
Y4165288D01*
X6465582Y4190679D01*
X6567149Y4038329D02*
X6592541Y4012937D01*
Y3962153D01*
X6567149Y3936761D01*
X6465582D01*
X6440190Y3962153D01*
Y4012937D01*
X6465582Y4038329D01*
X6567149D01*
Y3885978D02*
X6592541Y3860586D01*
Y3809803D01*
X6567149Y3784411D01*
X6541757D01*
X6516365Y3809803D01*
Y3835195D01*
Y3809803D01*
X6490974Y3784411D01*
X6465582D01*
X6440190Y3809803D01*
Y3860586D01*
X6465582Y3885978D01*
X6253030Y4167459D02*
Y4319810D01*
X6176855D01*
X6151463Y4294418D01*
Y4269026D01*
X6176855Y4243634D01*
X6253030D01*
X6176855D01*
X6151463Y4218243D01*
Y4192851D01*
X6176855Y4167459D01*
X6253030D01*
X6100679Y4192851D02*
X6075288Y4167459D01*
X6024504D01*
X5999112Y4192851D01*
Y4218243D01*
X6024504Y4243634D01*
X6049896D01*
X6024504D01*
X5999112Y4269026D01*
Y4294418D01*
X6024504Y4319810D01*
X6075288D01*
X6100679Y4294418D01*
X5948329Y4192851D02*
X5922937Y4167459D01*
X5872153D01*
X5846761Y4192851D01*
Y4294418D01*
X5872153Y4319810D01*
X5922937D01*
X5948329Y4294418D01*
Y4192851D01*
X5694411Y4319810D02*
X5795978D01*
X5694411Y4218243D01*
Y4192851D01*
X5719803Y4167459D01*
X5770586D01*
X5795978Y4192851D01*
X7062541Y5183030D02*
X6910190D01*
Y5106855D01*
X6935582Y5081463D01*
X6960974D01*
X6986366Y5106855D01*
Y5183030D01*
Y5106855D01*
X7011758Y5081463D01*
X7037149D01*
X7062541Y5106855D01*
Y5183030D01*
X7037149Y5030679D02*
X7062541Y5005287D01*
Y4954504D01*
X7037149Y4929112D01*
X7011758D01*
X6986366Y4954504D01*
Y4979896D01*
Y4954504D01*
X6960974Y4929112D01*
X6935582D01*
X6910190Y4954504D01*
Y5005287D01*
X6935582Y5030679D01*
X7037149Y4878329D02*
X7062541Y4852937D01*
Y4802153D01*
X7037149Y4776761D01*
X6935582D01*
X6910190Y4802153D01*
Y4852937D01*
X6935582Y4878329D01*
X7037149D01*
X6910190Y4725978D02*
Y4675194D01*
Y4700586D01*
X7062541D01*
X7037149Y4725978D01*
%TF.MD5,2771b12f7a5a72802fdc05c28a3c2f33*%
M02*
