%TF.GenerationSoftware,Altium Limited,Altium Designer,24.10.1 (45)*%
G04 Layer_Color=0*
%FSLAX45Y45*%
%MOMM*%
%TF.SameCoordinates,2EBBFB3B-01A8-4DF5-8D17-AA19E7DB42BB*%
%TF.FilePolarity,Positive*%
%TF.FileFunction,Plated,1,4,PTH,Drill*%
%TF.Part,Single*%
G01*
G75*
%TA.AperFunction,ComponentDrill*%
%ADD99C,1.10000*%
%TA.AperFunction,OtherDrill,Pad Free-2 (78.2mm,34.9mm)*%
%ADD100C,0.76200*%
%TA.AperFunction,ComponentDrill*%
%ADD101C,0.40000*%
%ADD102O,1.40000X0.60000*%
%ADD103O,2.10000X0.60000*%
%TA.AperFunction,ViaDrill,NotFilled*%
%ADD104C,0.35000*%
%ADD105C,0.20000*%
D99*
X11590000Y3290001D02*
D03*
X12098000D02*
D03*
X13114000D02*
D03*
X12860001D02*
D03*
X12606000D02*
D03*
X12352000D02*
D03*
X11844000D02*
D03*
X13367999Y3293999D02*
D03*
Y5579999D02*
D03*
X11590000D02*
D03*
X11844000D02*
D03*
X12098000D02*
D03*
X12352000D02*
D03*
X12606000D02*
D03*
X12860001D02*
D03*
X13114000D02*
D03*
D100*
X7820000Y3490000D02*
D03*
D101*
X3610574Y6510000D02*
D03*
Y6425001D02*
D03*
Y6340003D02*
D03*
Y6254999D02*
D03*
Y6170000D02*
D03*
Y6085002D02*
D03*
Y5999998D02*
D03*
Y5915000D02*
D03*
X3475573D02*
D03*
Y5999998D02*
D03*
Y6085002D02*
D03*
Y6170000D02*
D03*
Y6254999D02*
D03*
Y6340003D02*
D03*
Y6425001D02*
D03*
Y6510000D02*
D03*
D102*
X3174573Y6645001D02*
D03*
Y5779999D02*
D03*
D103*
X3512576Y6645001D02*
D03*
Y5779999D02*
D03*
D104*
X9164000Y5832160D02*
D03*
X8778887Y6404180D02*
D03*
X9164320Y5831840D02*
D03*
X9260000Y6030000D02*
D03*
X9027160Y5748020D02*
D03*
X6720886Y6289863D02*
D03*
X6705200Y6590000D02*
D03*
X6650000Y6840000D02*
D03*
X8020000Y5830000D02*
D03*
X4890000Y5040000D02*
D03*
X4950000Y4530000D02*
D03*
X5130000Y4800000D02*
D03*
X5570000Y5070000D02*
D03*
X8430000Y5220000D02*
D03*
X8200000Y4880000D02*
D03*
X8020000Y5600000D02*
D03*
X7934960Y4023360D02*
D03*
X7737881Y4897120D02*
D03*
X6420000Y3990000D02*
D03*
X9350000Y6400000D02*
D03*
X10469999Y6377498D02*
D03*
X11150000Y5450000D02*
D03*
X11010000Y6390000D02*
D03*
X8840003Y4246880D02*
D03*
X9466580Y3726002D02*
D03*
X6819555Y6364615D02*
D03*
X5867400Y4676140D02*
D03*
X10129520Y5335001D02*
D03*
X8255000Y5595620D02*
D03*
X5615940Y3652520D02*
D03*
X7197882Y6474938D02*
D03*
X8138160Y6469380D02*
D03*
X5854400Y5584403D02*
D03*
X6906372Y5083272D02*
D03*
X6294999Y4471899D02*
D03*
X6471920Y3721100D02*
D03*
X7397501Y5237480D02*
D03*
X6804660Y4879340D02*
D03*
X6908800Y5642859D02*
D03*
X6408420Y4879340D02*
D03*
X7073900Y5140960D02*
D03*
X6294999Y4409999D02*
D03*
X5924398D02*
D03*
X7496642Y6587861D02*
D03*
X8050814Y6364615D02*
D03*
X9806940Y4246880D02*
D03*
X4074201Y4750598D02*
D03*
Y5435798D02*
D03*
Y4908499D02*
D03*
X10185999Y4478020D02*
D03*
X10080000Y3482340D02*
D03*
X5851205Y5400004D02*
D03*
D105*
X8230001Y5790428D02*
D03*
Y5900425D02*
D03*
Y6010427D02*
D03*
Y6120425D02*
D03*
Y6230427D02*
D03*
X8339999Y5790428D02*
D03*
Y5900425D02*
D03*
Y6010427D02*
D03*
Y6120425D02*
D03*
Y6230427D02*
D03*
X8450001Y5790428D02*
D03*
Y5900425D02*
D03*
Y6010427D02*
D03*
Y6120425D02*
D03*
Y6230427D02*
D03*
X8559998Y5790428D02*
D03*
Y5900425D02*
D03*
Y6010427D02*
D03*
Y6120425D02*
D03*
Y6230427D02*
D03*
X8670000Y5790428D02*
D03*
Y5900425D02*
D03*
Y6010427D02*
D03*
Y6120425D02*
D03*
Y6230427D02*
D03*
%TF.MD5,7134d7f6b754177f62d158c470fdf4f8*%
M02*
