%TF.GenerationSoftware,Altium Limited,Altium Designer,24.10.1 (45)*%
G04 Layer_Physical_Order=2*
G04 Layer_Color=36540*
%FSLAX45Y45*%
%MOMM*%
%TF.SameCoordinates,2EBBFB3B-01A8-4DF5-8D17-AA19E7DB42BB*%
%TF.FilePolarity,Positive*%
%TF.FileFunction,Copper,L2,Inr,Signal*%
%TF.Part,Single*%
G01*
G75*
%TA.AperFunction,Conductor*%
%ADD42C,0.25400*%
%TA.AperFunction,ComponentPad*%
%ADD43C,1.65000*%
%TA.AperFunction,ViaPad*%
%ADD45C,1.52400*%
%TA.AperFunction,ComponentPad*%
%ADD46C,0.65000*%
%ADD47O,1.70000X0.90000*%
%ADD48O,2.40000X0.90000*%
%TA.AperFunction,ViaPad*%
%ADD49C,0.85000*%
%ADD50C,0.50000*%
%TA.AperFunction,Conductor*%
%ADD51R,111.50000X44.90000*%
D42*
X12505084Y5550284D02*
G03*
X12649571Y5484246I100916J29715D01*
G01*
X13121330Y5475055D02*
G03*
X13157571Y5484246I-7331J104944D01*
G01*
X12604976Y5439403D02*
G03*
X12615797Y5439741I1024J140596D01*
G01*
X5415280Y4648200D02*
X6573520D01*
X11407999Y3726002D02*
X11844000Y3290001D01*
X12027874Y6158125D02*
X12606000Y5579999D01*
X12183979Y5748020D02*
X12352000Y5579999D01*
X12649571Y5484246D02*
X12860001Y5579999D01*
X12479020Y5638800D02*
X12505083Y5550284D01*
X12471580Y5646239D02*
X12479020Y5638800D01*
X12194540Y5923280D02*
X12471580Y5646239D01*
X12077820Y6040000D02*
X12194540Y5923280D01*
X10626974Y6040000D02*
X12077820D01*
X10586974Y6000000D02*
X10626974Y6040000D01*
X9871551Y6000000D02*
X10586974D01*
X9831551Y6040000D02*
X9871551Y6000000D01*
X9270000Y6040000D02*
X9831551D01*
X9260000Y6030000D02*
X9270000Y6040000D01*
X9027160Y5748020D02*
X12183979D01*
X12186199Y2870200D02*
X12606000Y3290001D01*
X9088120Y2870200D02*
X12186199D01*
X7934960Y4023360D02*
X9088120Y2870200D01*
X8122250Y6158125D02*
X12027874D01*
X8100156Y6136030D02*
X8122250Y6158125D01*
X7536790Y6136030D02*
X8100156D01*
X7197882Y6474938D02*
X7536790Y6136030D01*
X12170959Y3108960D02*
X12352000Y3290001D01*
X10453380Y3108960D02*
X12170959D01*
X10080000Y3482340D02*
X10453380Y3108960D01*
X13157571Y5484246D02*
X13367999Y5579999D01*
X12615797Y5439741D02*
X13121330Y5475055D01*
X11150000Y5450000D02*
X12604976Y5439403D01*
X8840003Y4246880D02*
X9806940D01*
X6420000Y3990000D02*
Y3990000D01*
X6676880Y4246880D01*
X8840003D01*
X9357858Y6792143D02*
X9772502Y6377498D01*
X10469999D01*
X7377156Y6792143D02*
X9357858D01*
X7087413Y6502400D02*
X7377156Y6792143D01*
X7087413Y6420526D02*
Y6502400D01*
Y6420526D02*
X7142881Y6365057D01*
Y5972856D02*
Y6365057D01*
X10887121Y4246880D02*
X11407999Y3726002D01*
X7397501Y5237480D02*
X8368050D01*
X6804660Y5133340D02*
Y5538719D01*
Y4879340D02*
Y5133340D01*
X6408420Y4879340D02*
X6804660D01*
X6070600D02*
X6408420D01*
X4074201Y4750598D02*
Y4908499D01*
X9466580Y3726002D02*
X11407999D01*
X9806940Y4246880D02*
X10887121D01*
X6573520Y4648200D02*
X6804660Y4879340D01*
X5867400Y4676140D02*
X6070600Y4879340D01*
X10129520Y4534499D02*
Y5335001D01*
Y4534499D02*
X10185999Y4478020D01*
X6908800Y5237480D02*
X7397501D01*
X6804660Y5538719D02*
X6908800Y5642859D01*
X8368050Y5237480D02*
X8380105Y5225425D01*
X6804660Y5133340D02*
X6908800Y5237480D01*
X4074201Y4908499D02*
Y5435798D01*
X3475573Y6254999D02*
X3560572Y6170000D01*
X3610574D01*
D43*
X11590000Y3290001D02*
D03*
X12098000D02*
D03*
X13114000D02*
D03*
X12860001D02*
D03*
X12606000D02*
D03*
X12352000D02*
D03*
X11844000D02*
D03*
X13367999Y3293999D02*
D03*
Y5579999D02*
D03*
X11590000D02*
D03*
X11844000D02*
D03*
X12098000D02*
D03*
X12352000D02*
D03*
X12606000D02*
D03*
X12860001D02*
D03*
X13114000D02*
D03*
D45*
X7820000Y3490000D02*
D03*
D46*
X3610574Y6510000D02*
D03*
Y6425001D02*
D03*
Y6340003D02*
D03*
Y6254999D02*
D03*
Y6170000D02*
D03*
Y6085002D02*
D03*
Y5999998D02*
D03*
Y5915000D02*
D03*
X3475573D02*
D03*
Y5999998D02*
D03*
Y6085002D02*
D03*
Y6170000D02*
D03*
Y6254999D02*
D03*
Y6340003D02*
D03*
Y6425001D02*
D03*
Y6510000D02*
D03*
D47*
X3174573Y6645001D02*
D03*
Y5779999D02*
D03*
D48*
X3512576Y6645001D02*
D03*
Y5779999D02*
D03*
D49*
X9164000Y5832160D02*
D03*
X8778887Y6404180D02*
D03*
X9164320Y5831840D02*
D03*
X9260000Y6030000D02*
D03*
X9027160Y5748020D02*
D03*
X6720886Y6289863D02*
D03*
X6705200Y6590000D02*
D03*
X6650000Y6840000D02*
D03*
X8020000Y5830000D02*
D03*
X4890000Y5040000D02*
D03*
X4950000Y4530000D02*
D03*
X5130000Y4800000D02*
D03*
X5570000Y5070000D02*
D03*
X8430000Y5220000D02*
D03*
X8200000Y4880000D02*
D03*
X8020000Y5600000D02*
D03*
X7934960Y4023360D02*
D03*
X7737881Y4897120D02*
D03*
X6420000Y3990000D02*
D03*
X9350000Y6400000D02*
D03*
X10469999Y6377498D02*
D03*
X11150000Y5450000D02*
D03*
X11010000Y6390000D02*
D03*
X8840003Y4246880D02*
D03*
X9466580Y3726002D02*
D03*
X6819555Y6364615D02*
D03*
X5867400Y4676140D02*
D03*
X10129520Y5335001D02*
D03*
X8255000Y5595620D02*
D03*
X5615940Y3652520D02*
D03*
X7197882Y6474938D02*
D03*
X8138160Y6469380D02*
D03*
X5854400Y5584403D02*
D03*
X6906372Y5083272D02*
D03*
X6294999Y4471899D02*
D03*
X6471920Y3721100D02*
D03*
X7397501Y5237480D02*
D03*
X6804660Y4879340D02*
D03*
X6908800Y5642859D02*
D03*
X6408420Y4879340D02*
D03*
X7073900Y5140960D02*
D03*
X6294999Y4409999D02*
D03*
X5924398D02*
D03*
X7496642Y6587861D02*
D03*
X8050814Y6364615D02*
D03*
X9806940Y4246880D02*
D03*
X4074201Y4750598D02*
D03*
Y5435798D02*
D03*
Y4908499D02*
D03*
X10185999Y4478020D02*
D03*
X10080000Y3482340D02*
D03*
X5851205Y5400004D02*
D03*
D50*
X8230001Y5790428D02*
D03*
Y5900425D02*
D03*
Y6010427D02*
D03*
Y6120425D02*
D03*
Y6230427D02*
D03*
X8339999Y5790428D02*
D03*
Y5900425D02*
D03*
Y6010427D02*
D03*
Y6120425D02*
D03*
Y6230427D02*
D03*
X8450001Y5790428D02*
D03*
Y5900425D02*
D03*
Y6010427D02*
D03*
Y6120425D02*
D03*
Y6230427D02*
D03*
X8559998Y5790428D02*
D03*
Y5900425D02*
D03*
Y6010427D02*
D03*
Y6120425D02*
D03*
Y6230427D02*
D03*
X8670000Y5790428D02*
D03*
Y5900425D02*
D03*
Y6010427D02*
D03*
Y6120425D02*
D03*
Y6230427D02*
D03*
D51*
X8125000Y4815000D02*
D03*
%TF.MD5,9b31987e89ee46ecf7d0d83252cca37c*%
M02*
