%TF.GenerationSoftware,Altium Limited,Altium Designer,24.10.1 (45)*%
G04 Layer_Physical_Order=1*
G04 Layer_Color=255*
%FSLAX45Y45*%
%MOMM*%
%TF.SameCoordinates,2EBBFB3B-01A8-4DF5-8D17-AA19E7DB42BB*%
%TF.FilePolarity,Positive*%
%TF.FileFunction,Copper,L1,Top,Signal*%
%TF.Part,Single*%
G01*
G75*
%TA.AperFunction,SMDPad,CuDef*%
%ADD10R,2.10000X1.40000*%
%ADD11R,0.55000X0.55000*%
%ADD12R,1.00000X1.00000*%
%ADD13R,1.25000X0.50000*%
%ADD14R,1.25000X1.00000*%
%ADD15R,0.62000X0.62000*%
%ADD16R,0.62000X0.62000*%
%ADD17R,1.50000X3.60000*%
%ADD18R,1.00000X3.40000*%
%ADD19R,1.40000X0.30000*%
%ADD20R,5.50000X2.95000*%
%ADD21O,0.35000X0.50000*%
%ADD22O,0.50000X0.35000*%
%ADD23R,5.40000X5.40000*%
%ADD24R,1.20000X0.40000*%
%ADD25R,0.55000X0.55000*%
%ADD26R,0.60000X1.25000*%
%ADD27R,1.90000X1.50000*%
%ADD28R,1.50000X1.90000*%
%ADD29R,1.45000X0.75000*%
%ADD30R,2.50000X2.50000*%
%ADD31R,1.20000X0.60000*%
%ADD32R,0.60000X0.46000*%
%ADD33R,0.28000X0.50000*%
%ADD34R,0.36000X0.50000*%
%ADD35R,0.85000X0.40000*%
%ADD36R,0.45000X1.47500*%
%ADD37R,0.40000X0.85000*%
%ADD38R,0.50000X0.36000*%
%ADD39R,0.50000X0.28000*%
%ADD40R,3.60000X1.50000*%
%ADD41R,3.40000X1.00000*%
%TA.AperFunction,Conductor*%
%ADD42C,0.25400*%
%TA.AperFunction,ComponentPad*%
%ADD43C,1.65000*%
%ADD44R,1.65000X1.65000*%
%TA.AperFunction,ViaPad*%
%ADD45C,1.52400*%
%TA.AperFunction,ComponentPad*%
%ADD46C,0.65000*%
%ADD47O,1.70000X0.90000*%
%ADD48O,2.40000X0.90000*%
%TA.AperFunction,ViaPad*%
%ADD49C,0.85000*%
%ADD50C,0.50000*%
D10*
X9755002Y5335001D02*
D03*
X8845001D02*
D03*
X9755002Y4884999D02*
D03*
X8845001D02*
D03*
X5365003Y5825002D02*
D03*
X6275004D02*
D03*
X5365003Y6275004D02*
D03*
X6275004D02*
D03*
D11*
X5130002Y4609998D02*
D03*
Y4700001D02*
D03*
X9010000Y4425000D02*
D03*
Y4334998D02*
D03*
X9169999Y4369999D02*
D03*
Y4280002D02*
D03*
X8840003Y4489999D02*
D03*
Y4400001D02*
D03*
X8570001Y5379999D02*
D03*
Y5470002D02*
D03*
X9180000Y6479997D02*
D03*
Y6390000D02*
D03*
X9570002Y6265001D02*
D03*
Y6354999D02*
D03*
X7540000Y5139998D02*
D03*
Y5230000D02*
D03*
X6812885Y5732861D02*
D03*
Y5642859D02*
D03*
X5084542Y4908499D02*
D03*
Y4998502D02*
D03*
X5090002Y5115003D02*
D03*
Y5205000D02*
D03*
X5080803Y5455498D02*
D03*
Y5545501D02*
D03*
Y5651800D02*
D03*
Y5741802D02*
D03*
X5130002Y4500001D02*
D03*
Y4409999D02*
D03*
D12*
X4582500Y4025001D02*
D03*
D13*
X4494997Y3550001D02*
D03*
X4669998D02*
D03*
D14*
X4494997Y3424997D02*
D03*
D15*
X5240000Y4502003D02*
D03*
Y4409999D02*
D03*
X4940000Y3277997D02*
D03*
Y3370001D02*
D03*
X5379999Y3545997D02*
D03*
Y3453999D02*
D03*
X9200002Y3633998D02*
D03*
Y3726002D02*
D03*
X7910002Y6304001D02*
D03*
Y6395999D02*
D03*
X6622882Y6333861D02*
D03*
Y6241857D02*
D03*
X4232102Y5000498D02*
D03*
Y4908499D02*
D03*
X5204963Y5000498D02*
D03*
Y4908499D02*
D03*
X5195103Y5553400D02*
D03*
Y5461401D02*
D03*
X4280002Y4418000D02*
D03*
Y4509999D02*
D03*
D16*
X5114000Y3550001D02*
D03*
X5205999D02*
D03*
X4940000D02*
D03*
X4848001D02*
D03*
X10185999Y4289999D02*
D03*
X10094001D02*
D03*
X8410001Y5476276D02*
D03*
X8318002D02*
D03*
X9418001Y5900000D02*
D03*
X9510000D02*
D03*
X9164000Y5639999D02*
D03*
X9255999D02*
D03*
X8299999Y5100000D02*
D03*
X8208000D02*
D03*
X8299999Y4974575D02*
D03*
X8208000D02*
D03*
X8213999Y5350850D02*
D03*
X8305998D02*
D03*
X7997998Y5490002D02*
D03*
X8090002D02*
D03*
X6628882Y6463284D02*
D03*
X6720886D02*
D03*
X8212003Y5225425D02*
D03*
X8304002D02*
D03*
X4656902Y5291501D02*
D03*
X4564898D02*
D03*
X4663902Y4751974D02*
D03*
X4571898D02*
D03*
X4873112Y4908499D02*
D03*
X4965116D02*
D03*
X4877603Y5456601D02*
D03*
X4969601D02*
D03*
X4179900Y5541498D02*
D03*
X4271899D02*
D03*
X4589800Y4254698D02*
D03*
X4681799D02*
D03*
X5016800Y4419798D02*
D03*
X4924801D02*
D03*
D17*
X10710001Y2999999D02*
D03*
X9649998D02*
D03*
X9010000Y2970002D02*
D03*
X7950002D02*
D03*
D18*
X10479999Y3750000D02*
D03*
X10280000D02*
D03*
X10080000D02*
D03*
X9880001D02*
D03*
X8779998Y3720003D02*
D03*
X8579998D02*
D03*
X8379998D02*
D03*
X8179999D02*
D03*
D19*
X9369257Y4569998D02*
D03*
Y4520001D02*
D03*
Y4469999D02*
D03*
Y4420001D02*
D03*
Y4369999D02*
D03*
X9809256D02*
D03*
Y4420001D02*
D03*
Y4469999D02*
D03*
Y4520001D02*
D03*
Y4569998D02*
D03*
D20*
X10610002Y5464998D02*
D03*
Y4655002D02*
D03*
D21*
X8175000Y5690428D02*
D03*
X8225003D02*
D03*
X8275000D02*
D03*
X8325002D02*
D03*
X8375000D02*
D03*
X8425002D02*
D03*
X8475000D02*
D03*
X8525002D02*
D03*
X8574999D02*
D03*
X8625002D02*
D03*
X8674999D02*
D03*
X8725002D02*
D03*
Y6330427D02*
D03*
X8674999D02*
D03*
X8625002D02*
D03*
X8574999D02*
D03*
X8525002D02*
D03*
X8475000D02*
D03*
X8425002D02*
D03*
X8375000D02*
D03*
X8325002D02*
D03*
X8275000D02*
D03*
X8225003D02*
D03*
X8175000D02*
D03*
D22*
X8770000Y5735427D02*
D03*
Y5785424D02*
D03*
Y5835426D02*
D03*
Y5885424D02*
D03*
Y5935426D02*
D03*
Y5985424D02*
D03*
Y6035426D02*
D03*
Y6085423D02*
D03*
Y6135426D02*
D03*
Y6185428D02*
D03*
Y6235426D02*
D03*
Y6285428D02*
D03*
X8130002D02*
D03*
Y6235426D02*
D03*
Y6185428D02*
D03*
Y6135426D02*
D03*
Y6085423D02*
D03*
Y6035426D02*
D03*
Y5985424D02*
D03*
Y5935426D02*
D03*
Y5885424D02*
D03*
Y5835426D02*
D03*
Y5785424D02*
D03*
Y5735427D02*
D03*
D23*
X8450001Y6010427D02*
D03*
D24*
X6867296Y6462857D02*
D03*
Y6527861D02*
D03*
Y6592860D02*
D03*
X7057299D02*
D03*
Y6527861D02*
D03*
Y6462857D02*
D03*
D25*
X6612885Y6727861D02*
D03*
X6522883D02*
D03*
X7287885Y6587861D02*
D03*
X7197882D02*
D03*
X9014999Y6480002D02*
D03*
X8925002D02*
D03*
X6565001Y5270002D02*
D03*
X6654998D02*
D03*
X6645001Y4100002D02*
D03*
X6734998D02*
D03*
X6445001Y4740001D02*
D03*
X6354999D02*
D03*
X3925001Y5850001D02*
D03*
X3834999D02*
D03*
X3954998Y6330000D02*
D03*
X3865001D02*
D03*
D26*
X6817385Y5892861D02*
D03*
X7008383D02*
D03*
X6912884Y6102858D02*
D03*
D27*
X10149998Y6167498D02*
D03*
X9829999D02*
D03*
X10149998Y6352502D02*
D03*
X9829999D02*
D03*
D28*
X7582499Y5779999D02*
D03*
Y5459999D02*
D03*
X7397501Y5779999D02*
D03*
Y5459999D02*
D03*
D29*
X11156914Y6159998D02*
D03*
Y6390000D02*
D03*
D30*
X6230000Y3019999D02*
D03*
Y3719998D02*
D03*
X6929999Y3019999D02*
D03*
Y3719998D02*
D03*
D31*
X4728530Y4902398D02*
D03*
Y4997399D02*
D03*
Y5092400D02*
D03*
X4478528D02*
D03*
Y4997399D02*
D03*
Y4902398D02*
D03*
X4733900Y5456601D02*
D03*
Y5551602D02*
D03*
Y5646603D02*
D03*
X4483903D02*
D03*
Y5551602D02*
D03*
Y5456601D02*
D03*
X4510801Y4413702D02*
D03*
Y4508698D02*
D03*
Y4603699D02*
D03*
X4760798D02*
D03*
Y4508698D02*
D03*
Y4413702D02*
D03*
D32*
X5564998Y4920000D02*
D03*
X5355001D02*
D03*
X5544998Y5459999D02*
D03*
X5335001D02*
D03*
X5595000Y4409999D02*
D03*
X5384998D02*
D03*
D33*
X6920001Y5220000D02*
D03*
X7000001D02*
D03*
X6660002Y4769998D02*
D03*
X6580002D02*
D03*
D34*
X6960001Y5320000D02*
D03*
X6620002Y4869998D02*
D03*
D35*
X6554998Y5135001D02*
D03*
Y5070003D02*
D03*
Y5004999D02*
D03*
X6765000D02*
D03*
Y5135001D02*
D03*
X6085002Y4295003D02*
D03*
Y4229999D02*
D03*
Y4165001D02*
D03*
X6294999D02*
D03*
Y4295003D02*
D03*
D36*
X5945002Y4906198D02*
D03*
X6010001D02*
D03*
X6074999D02*
D03*
X6139998D02*
D03*
X6205002D02*
D03*
X6270000D02*
D03*
X6334999D02*
D03*
Y5493802D02*
D03*
X6270000D02*
D03*
X6205002D02*
D03*
X6139998D02*
D03*
X6074999D02*
D03*
X6010001D02*
D03*
X5945002D02*
D03*
D37*
X6205002Y4675002D02*
D03*
X6139998D02*
D03*
X6074999D02*
D03*
Y4465000D02*
D03*
X6205002D02*
D03*
D38*
X6550000Y4260002D02*
D03*
D39*
X6649999Y4300002D02*
D03*
Y4220002D02*
D03*
D40*
X2910002Y4460001D02*
D03*
Y5519999D02*
D03*
Y3070001D02*
D03*
Y4129999D02*
D03*
D41*
X3659998Y4689998D02*
D03*
Y4889998D02*
D03*
Y5090003D02*
D03*
Y5290002D02*
D03*
Y3299998D02*
D03*
Y3499998D02*
D03*
Y3700003D02*
D03*
Y3900002D02*
D03*
D42*
X11717020Y3248660D02*
Y4018280D01*
X10909300Y4826000D02*
X11717020Y4018280D01*
X10644398Y3290001D02*
X11590000D01*
X7851140Y2755900D02*
X12325899D01*
X12860001Y3290001D01*
X11299739Y2999740D02*
X11590000Y3290001D01*
X12847321Y3573780D02*
X12966701Y3454400D01*
X7843520Y2689860D02*
X12522200D01*
X12966701Y3134360D01*
Y3454400D01*
X9169400Y5227320D02*
X12253321D01*
X12606000Y5579999D01*
X11820000Y5970000D02*
X12104280Y5685720D01*
X11296680Y6243320D02*
X11570000Y5970000D01*
X11820000D01*
X13473201Y3250423D02*
Y5474797D01*
X13367999Y5579999D02*
X13473201Y5474797D01*
X12410440Y4980940D02*
X12966701Y5537200D01*
Y5651861D01*
X13004439Y5689600D02*
X13258398D01*
X12966701Y5651861D02*
X13004439Y5689600D01*
X11904980Y3350981D02*
Y4370979D01*
X13114000Y5579999D01*
X9369257Y4569998D02*
X9423400D01*
Y4792980D01*
X9611360Y4980940D01*
X12410440D01*
X11717020Y3248660D02*
X11785600Y3180080D01*
X11988079D01*
X12098000Y3290001D01*
X12352000D02*
X12635779Y3573780D01*
X12847321D01*
X11844000Y3290001D02*
X11904980Y3350981D01*
X12104280Y5586279D02*
Y5685720D01*
X12098000Y5579999D02*
X12104280Y5586279D01*
X13258398Y5689600D02*
X13367999Y5579999D01*
X8767483Y6392776D02*
X8778887Y6404180D01*
X8701141Y6753860D02*
X8910202Y6544799D01*
X8710000Y6910000D02*
X9030000Y6590000D01*
X12877235Y2654463D02*
X13473201Y3250423D01*
X7828859Y2654463D02*
X12877235D01*
X7460981Y3022341D02*
X7828859Y2654463D01*
X7460981Y3022341D02*
Y3189016D01*
X6929999Y3719998D02*
X7460981Y3189016D01*
X10673080Y6243320D02*
X11296680D01*
X10429555Y5999795D02*
X10673080Y6243320D01*
X9550205Y5999795D02*
X10429555D01*
X9404772Y6145228D02*
X9550205Y5999795D01*
X8789900Y6145228D02*
X9404772D01*
X8780098Y6135426D02*
X8789900Y6145228D01*
X8770000Y6135426D02*
X8780098D01*
X9093200Y5303520D02*
X9169400Y5227320D01*
X9093200Y5303520D02*
Y5814060D01*
X8921836Y5985424D02*
X9093200Y5814060D01*
X8770000Y5985424D02*
X8921836D01*
X7815580Y2717800D02*
X7820000Y3490000D01*
X7815580Y2717800D02*
X7843520Y2689860D01*
X10710001Y2999740D02*
X11299739D01*
X7928508Y6135426D02*
X8130002D01*
X7870000Y6076917D02*
X7928508Y6135426D01*
X7870000Y3764592D02*
Y6076917D01*
Y3764592D02*
X8107294Y3527298D01*
X8259526D01*
X8288228Y3556000D01*
Y3911600D01*
X8339028Y3962400D01*
X8405104D01*
X8463280Y3904224D01*
Y3423920D02*
Y3904224D01*
X8214360Y3175000D02*
X8463280Y3423920D01*
X7851140Y3175000D02*
X8214360D01*
X7851140Y2755900D02*
Y3175000D01*
X10479999Y3454400D02*
Y3750000D01*
Y3454400D02*
X10644398Y3290001D01*
X9906000Y4826000D02*
X10909300D01*
X9500001Y4420001D02*
X9906000Y4826000D01*
X9369257Y4420001D02*
X9500001D01*
X9164320Y5831840D02*
X9349841D01*
X9116862Y6030000D02*
X9260000D01*
X9208355Y6265001D02*
X9570002D01*
X9128782Y6185428D02*
X9208355Y6265001D01*
X8770000Y6185428D02*
X9128782D01*
X10479999Y3750000D02*
Y3995999D01*
X7950002Y2970002D02*
X9010000D01*
X8839754Y5935426D02*
X9027160Y5748020D01*
X8937308Y6020824D02*
X9058132Y5900000D01*
X8847703Y6020824D02*
X8937308D01*
X8793587Y5885424D02*
X8999220Y5679791D01*
X8770000Y5885424D02*
X8793587D01*
X8770000Y6085423D02*
X9061438D01*
X9116862Y6030000D01*
X8833100Y6035426D02*
X8847703Y6020824D01*
X8770000Y6035426D02*
X8833100D01*
X9011882Y6311880D02*
X9180000Y6479997D01*
X9011882Y6273528D02*
Y6311880D01*
X8988382Y6250028D02*
X9011882Y6273528D01*
X9030000Y6590000D02*
X10921913D01*
X6663543Y6241857D02*
X6720886Y6289863D01*
Y6463284D01*
X6693796Y6578596D02*
X6705200Y6590000D01*
X6650000Y6830576D02*
Y6840000D01*
X9755002Y5335001D02*
X10129520D01*
X9560997D02*
X9755002D01*
X8787699Y5392298D02*
X8845001Y5335001D01*
X8713302Y5392298D02*
X8787699D01*
X8635599Y5470002D02*
X8713302Y5392298D01*
X8570001Y5470002D02*
X8635599D01*
X9255999Y5639999D02*
X9560997Y5335001D01*
X5204963Y5000498D02*
Y5134963D01*
X5144081Y5195845D02*
X5204963Y5134963D01*
X7540000Y5010000D02*
Y5139998D01*
X7652880Y4897120D02*
X7737881D01*
X7540000Y5010000D02*
X7652880Y4897120D01*
X7540000Y5139998D02*
X7629998D01*
X7698740Y5208740D01*
Y6092739D01*
X7910002Y6304001D01*
X5087272Y5112272D02*
X5090002Y5115003D01*
X5087272Y5001232D02*
Y5112272D01*
X5084542Y4998502D02*
X5087272Y5001232D01*
X5089455Y5205547D02*
X5099158Y5195845D01*
X4695007Y5205547D02*
X5089455D01*
X4592601Y5103141D02*
X4695007Y5205547D01*
X4592601Y5012278D02*
Y5103141D01*
Y5012278D02*
X4607480Y4997399D01*
X4728530D01*
X5099158Y5195845D02*
X5144081D01*
X4728530Y4997399D02*
X4831272D01*
X8020000Y5600000D02*
X8110428Y5690428D01*
X8175000D01*
X8025426Y5835426D02*
X8130002D01*
X8020000Y5830000D02*
X8025426Y5835426D01*
X8045424Y5985424D02*
X8130002D01*
X8020000Y5960000D02*
X8045424Y5985424D01*
X8020000Y5830000D02*
Y5960000D01*
X9164000Y5639999D02*
Y5831840D01*
X9806940Y4246880D02*
Y4369999D01*
X7000001Y5194107D02*
X7020753D01*
X8020000Y5600000D02*
Y5830000D01*
X7980000Y5555321D02*
X8020000Y5595321D01*
Y5600000D01*
X7980000Y5507999D02*
X7997998Y5490002D01*
X7980000Y5507999D02*
Y5555321D01*
X4873112Y4813112D02*
Y4908499D01*
X4663902Y4751974D02*
X4811974D01*
X4873112Y4813112D01*
X4858771Y4902398D02*
X4873112Y4908499D01*
X4831272Y4997399D02*
X4873872Y5040000D01*
X4890000D01*
X4758530Y5092400D02*
X4775830Y5109700D01*
Y5111000D01*
X4790709Y5125880D02*
X4957164D01*
X5084542Y4998502D01*
X4728530Y5092400D02*
X4758530D01*
X4775830Y5111000D02*
X4790709Y5125880D01*
X4760798Y4508698D02*
X4912570D01*
X4933872Y4530000D01*
X4950000D01*
X4232102Y4908499D02*
X4440601Y4700001D01*
X5130002D01*
X6605935Y6550055D02*
X6634476Y6578596D01*
X6693796D01*
X6533037Y6502557D02*
X6601697Y6546641D01*
X6605935Y6550055D01*
X6578600Y6651650D02*
X6641490D01*
X6743700Y6753860D01*
X6497635Y6570685D02*
X6578600Y6651650D01*
X6612885Y6793461D02*
X6650000Y6830576D01*
X6612885Y6727861D02*
Y6793461D01*
X6497635Y6116635D02*
Y6570685D01*
X6320000Y6770000D02*
X6362139Y6727861D01*
X6334879Y6910000D02*
X8710000D01*
X6320000Y6770000D02*
Y6895121D01*
X6362139Y6727861D02*
X6522883D01*
X6320000Y6895121D02*
X6334879Y6910000D01*
X5130002Y4700001D02*
X5225121D01*
X5240000Y4685122D01*
Y4502003D02*
Y4685122D01*
X5130001Y4700002D02*
Y4799999D01*
X5130000Y4800000D02*
X5130001Y4799999D01*
Y4700002D02*
X5130002Y4700001D01*
X5567499Y4924499D02*
X5571998Y4920000D01*
X5567499Y4924499D02*
Y5067499D01*
X5570000Y5070000D01*
X6205002Y4465000D02*
X6294999D01*
X8306714Y5222713D02*
X8427287D01*
X8304002Y5225425D02*
X8306714Y5222713D01*
X8427287D02*
X8430000Y5220000D01*
X8410001Y5256127D02*
X8430000Y5236128D01*
Y5220000D02*
Y5236128D01*
X8410001Y5256127D02*
Y5476276D01*
X8204000Y4884000D02*
Y4970575D01*
X8208000Y4974575D01*
X8200000Y4880000D02*
X8204000Y4884000D01*
X8175000Y5522570D02*
Y5685526D01*
X7908895Y4049425D02*
Y6048894D01*
X7945424Y6085423D02*
X8130002D01*
X7908895Y6048894D02*
X7945424Y6085423D01*
X7908895Y4049425D02*
X7934960Y4023360D01*
X7975426Y6035426D02*
X8130002D01*
X7944297Y6004297D02*
X7975426Y6035426D01*
X7944297Y4299702D02*
Y6004297D01*
Y4299702D02*
X8078399Y4165600D01*
X7815580Y6093460D02*
X7820000Y3490000D01*
X7815580Y6093460D02*
X7907548Y6185428D01*
X6597700Y4167699D02*
Y4273241D01*
X6420000Y3990000D02*
X6597700Y4167699D01*
Y4273241D02*
X6624460Y4300002D01*
X6420000Y3990000D02*
X6553200Y3856800D01*
Y3343199D02*
Y3856800D01*
X6230000Y3019999D02*
X6553200Y3343199D01*
X9094531Y4469999D02*
X9369257D01*
X9074529Y4490000D02*
X9094531Y4469999D01*
X8840004Y4490000D02*
X9074529D01*
X8840003Y4489999D02*
X8840004Y4490000D01*
X9366957Y4472299D02*
X9369257Y4469999D01*
X8840004Y4490000D02*
X8999220Y4649216D01*
X9185000Y6395000D02*
X9345000D01*
X9350000Y6400000D01*
X9180000Y6390000D02*
X9185000Y6395000D01*
X6210300Y6275004D02*
Y6995121D01*
X9180000Y6479997D02*
X9299606D01*
X8847703Y6250028D02*
X8988382D01*
X8833100Y6235426D02*
X8847703Y6250028D01*
X8770000Y6235426D02*
X8833100D01*
X9299606Y6479997D02*
X9342329Y6522720D01*
X10467340D01*
X10668000Y6322060D01*
X11252200D01*
Y6467800D01*
X11120000Y6600000D02*
X11252200Y6467800D01*
X11120000Y6600000D02*
Y6645121D01*
X11105121Y6660000D02*
X11120000Y6645121D01*
X9130000Y6660000D02*
X11105121D01*
X8780000Y7010000D02*
X9130000Y6660000D01*
X6225179Y7010000D02*
X8780000D01*
X6210300Y6995121D02*
X6225179Y7010000D01*
X6210300Y6275004D02*
X6275004D01*
X9349841Y5831840D02*
X9418001Y5900000D01*
X9058132D02*
X9418001D01*
X9491700Y5881700D02*
X9510000Y5900000D01*
X9491700Y5879596D02*
Y5881700D01*
X9396452Y5784348D02*
X9491700Y5879596D01*
X9331248Y5784348D02*
X9396452D01*
X9255999Y5709099D02*
X9331248Y5784348D01*
X9255999Y5639999D02*
Y5709099D01*
X9572499Y6352502D02*
X9829999D01*
X9570002Y6354999D02*
X9572499Y6352502D01*
X10428874D02*
X10453871Y6377498D01*
X10149998Y6352502D02*
X10428874D01*
X10453871Y6377498D02*
X10469999D01*
X8870099Y6285428D02*
X8935149Y6350478D01*
Y6400152D01*
X9014999Y6480002D01*
X8770000Y6285428D02*
X8870099D01*
X8910202Y6494802D02*
Y6544799D01*
Y6494802D02*
X8925002Y6480002D01*
X6743700Y6753860D02*
X8701141D01*
X6497635Y6116635D02*
X6753545D01*
X6817385Y6052795D01*
Y5892861D02*
Y6052795D01*
X11150000Y5450000D02*
Y6153083D01*
X11156914Y6159998D01*
X10769600D02*
X11156914D01*
X10921913Y6590000D02*
X11121913Y6390000D01*
X8709764Y6392776D02*
X8767483D01*
X8676836Y6359848D02*
X8709764Y6392776D01*
X8676836Y6333726D02*
Y6359848D01*
X8674999Y6331890D02*
X8676836Y6333726D01*
X11010000Y6390000D02*
X11121913D01*
X8674999Y6330427D02*
Y6331890D01*
X9806940Y4369999D02*
X9809256D01*
X9715500D02*
X9806940D01*
X9715500Y4469999D02*
Y4569998D01*
Y4369999D02*
Y4469999D01*
X6720886Y6463284D02*
X6721312Y6462857D01*
X6819555Y6364615D01*
X10609580Y5464998D02*
Y5999978D01*
X6972300Y6309360D02*
Y6345443D01*
X7008383Y5838358D02*
X7227926Y6057900D01*
X6812885Y5642859D02*
X7008383Y5838358D01*
X10185999Y4392402D02*
Y4478020D01*
X10158400Y4420001D02*
X10185999Y4392402D01*
X10058400Y4520001D02*
X10158400Y4420001D01*
X9649998Y2999740D02*
X10710001D01*
X6334999Y4879340D02*
X6408420D01*
X5867400Y4676140D02*
X6074999D01*
X4387601Y3550001D02*
X4425396D01*
X4409801Y3534405D02*
X4425396Y3550001D01*
X4175394Y3299998D02*
X4409801Y3534405D01*
X5205999Y3550001D02*
X5513421D01*
X5509417Y3545997D02*
X5513421Y3550001D01*
X7119996Y6420526D02*
Y6462857D01*
X6906260Y6592860D02*
Y6637020D01*
X6620002Y4838700D02*
X6695440D01*
X6620002Y4580382D02*
Y4838700D01*
X5354320Y4876800D02*
Y4920000D01*
X3536376Y6081136D02*
X3614044Y6003468D01*
X3929715Y5999998D02*
X4253601Y5676113D01*
X3926246Y6003468D02*
X3929715Y5999998D01*
X9060200Y4267200D02*
Y4374799D01*
Y4211300D02*
Y4267200D01*
Y4165600D02*
Y4211300D01*
X6294999Y4465000D02*
Y4471899D01*
Y4409999D02*
Y4465000D01*
Y4295003D02*
Y4409999D01*
X6230000Y3721100D02*
X6471920D01*
X8840003Y4246880D02*
Y4400001D01*
X9200002Y3726002D02*
X9466580D01*
X6622882Y6241857D02*
X6663543D01*
X6334999Y5493802D02*
X6940555D01*
X7205721Y5228636D01*
Y4570725D02*
Y5228636D01*
X6734998Y4100002D02*
X7205721Y4570725D01*
X6270000Y5442549D02*
Y5493802D01*
Y5442549D02*
X6289797Y5422753D01*
Y5410647D02*
Y5422753D01*
Y5410647D02*
X6332748Y5367701D01*
X6987921D01*
X7160001Y5195621D01*
Y4950003D02*
Y5195621D01*
X6374999Y4165001D02*
X7160001Y4950003D01*
X6294999Y4165001D02*
X6374999D01*
X3659998Y3299998D02*
X4175394D01*
X5379999Y3453999D02*
X5538059D01*
X6085002Y4000942D01*
Y4165001D01*
X6662420Y5059680D02*
X6819900D01*
X9809256Y4420001D02*
X10158400D01*
X10185999Y4289999D02*
Y4392402D01*
X9809256Y4520001D02*
X10058400D01*
X6074999Y4675002D02*
Y4676140D01*
X10480004Y5335001D02*
X10610002Y5464998D01*
X10129520Y5335001D02*
X10480004D01*
X8225003Y5625617D02*
Y5690428D01*
Y5625617D02*
X8255000Y5595620D01*
X5379999Y3545997D02*
X5509417D01*
X5513421Y3550001D02*
X5615940Y3652520D01*
X8999220Y4649216D02*
Y5679791D01*
X7197882Y6474938D02*
Y6587861D01*
X8275000Y6330427D02*
Y6375720D01*
X8181340Y6469380D02*
X8275000Y6375720D01*
X8138160Y6469380D02*
X8181340D01*
X8770000Y5935426D02*
X8839754D01*
X5854400Y5584403D02*
X5945002Y5493802D01*
X6765000Y5135001D02*
X6854642D01*
X6906372Y5083272D01*
X6230000Y3719998D02*
Y3721100D01*
X6533037Y6152037D02*
Y6502557D01*
Y6152037D02*
X6882247D01*
X6912884Y6121400D01*
Y6102858D02*
Y6121400D01*
X7397501Y5237480D02*
Y5459999D01*
X6804660Y4879340D02*
X6850380Y4925060D01*
X6819900Y5059680D02*
X6850380Y5029200D01*
X6554998Y5004999D02*
X6607739D01*
X6662420Y5059680D01*
X6812885Y5642859D02*
X6908800D01*
X6334999Y4879340D02*
Y4906198D01*
X6850380Y4925060D02*
Y5029200D01*
X6660002Y4769998D02*
X6692336Y4778736D01*
X6891853D01*
X7073900Y4960783D01*
Y5140960D01*
X7000001Y5194107D02*
Y5220000D01*
X7020753Y5194107D02*
X7073900Y5140960D01*
X6554998Y5070003D02*
X6621780D01*
Y5095240D01*
X6705600Y5179060D01*
X6875780D01*
X6883400Y5171440D01*
X6934200D01*
X6977380Y5128260D01*
Y4938598D02*
Y5128260D01*
X6852920Y4814138D02*
X6977380Y4938598D01*
X6720002Y4814138D02*
X6852920D01*
X6695440Y4838700D02*
X6720002Y4814138D01*
X6620002Y4838700D02*
Y4869998D01*
X6593840Y4554220D02*
X6620002Y4580382D01*
X5742940Y4554220D02*
X6593840D01*
X5562600Y4734560D02*
X5742940Y4554220D01*
X5378902Y4734560D02*
X5562600D01*
X5204963Y4908499D02*
X5378902Y4734560D01*
X5595000Y4409999D02*
X5924398D01*
X6812885Y5888360D02*
X6817385Y5892861D01*
X6812885Y5732861D02*
Y5888360D01*
X7287885Y6587861D02*
X7496642D01*
X8179999Y3720003D02*
Y3962400D01*
X8281599Y4064000D01*
X8958600D01*
X9060200Y4165600D01*
X8078399D02*
X8958600D01*
X9060200Y4267200D01*
X9010000Y4425000D02*
X9060200Y4374799D01*
X4253601Y5559801D02*
X4271899Y5541498D01*
X3610574Y5999998D02*
X3929715D01*
X6867296Y6592860D02*
X6906260D01*
Y6637020D02*
X7000240D01*
X7045777Y6682557D01*
X8338825D01*
X8425002Y6596380D01*
Y6330427D02*
Y6596380D01*
X4498340Y3277997D02*
X4940000D01*
X4476339Y3299998D02*
X4498340Y3277997D01*
X4475394Y3299998D02*
X4476339D01*
X4409801Y3365597D02*
X4475394Y3299998D01*
X4409801Y3365597D02*
Y3534405D01*
X4425396Y3550001D02*
X4494997D01*
X4280002Y3657600D02*
Y4418000D01*
Y3657600D02*
X4387601Y3550001D01*
X7910002Y6304001D02*
X7990200D01*
X8050814Y6364615D01*
X8213999Y5350850D02*
Y5483570D01*
X8175000Y5522570D02*
X8213999Y5483570D01*
X9715500Y4469999D02*
X9809256D01*
X9715500Y4569998D02*
X9809256D01*
X6807200Y6527861D02*
X6867296D01*
X6781800Y6553261D02*
X6807200Y6527861D01*
X6781800Y6553261D02*
Y6647180D01*
X6852580Y6717960D01*
X8511042D01*
X8625002Y6604000D01*
Y6330427D02*
Y6604000D01*
X6721312Y6462857D02*
X6867296D01*
X8375000Y6330427D02*
Y6453520D01*
X8293938Y6534582D02*
X8375000Y6453520D01*
X7829982Y6534582D02*
X8293938D01*
X7696200Y6400800D02*
X7829982Y6534582D01*
X7139722Y6400800D02*
X7696200D01*
X7119996Y6420526D02*
X7139722Y6400800D01*
X7057299Y6462857D02*
X7119996D01*
X6972300Y6345443D02*
Y6527861D01*
Y6345443D02*
X7008383Y6309360D01*
Y5892861D02*
Y6309360D01*
X6972300Y6527861D02*
X7057299D01*
X6850380Y6187440D02*
X6972300Y6309360D01*
X6568440Y6187440D02*
X6850380D01*
X6568440D02*
Y6296660D01*
X6585682D01*
X6622882Y6333861D01*
X8050814Y6364615D02*
X8130002Y6285428D01*
X7008383Y5838358D02*
Y5892861D01*
X7057299Y6592860D02*
X7095724D01*
X7144304Y6641440D01*
X7197882Y6587861D01*
X5164003Y5825002D02*
X5365003D01*
X5080803Y5741802D02*
X5164003Y5825002D01*
X7227926Y6057900D02*
X7513320D01*
X7851419Y6395999D01*
X7910002D01*
X6628882Y6399179D02*
Y6463284D01*
X6622882Y6393180D02*
X6628882Y6399179D01*
X6622882Y6333861D02*
Y6393180D01*
X8208000Y4974575D02*
Y5100000D01*
X8570001Y4670003D02*
X8840003Y4400001D01*
X8570001Y4670003D02*
Y5379999D01*
X8840003Y4400001D02*
X8944996D01*
X9010000Y4334998D01*
X7997998Y5184577D02*
X8208000Y4974575D01*
X7997998Y5184577D02*
Y5490002D01*
X8208000Y5100000D02*
X8212003Y5104003D01*
Y5225425D01*
X9809256Y4369999D02*
X10014001D01*
X10094001Y4289999D01*
X8926002Y4000002D02*
X9200002Y3726002D01*
X8739998Y4000002D02*
X8926002D01*
X8579998Y3840002D02*
X8739998Y4000002D01*
X8579998Y3720003D02*
Y3840002D01*
X9169999Y4280002D02*
X9425503D01*
X9715500Y4569998D01*
X10094001Y4157939D02*
Y4289999D01*
Y4157939D02*
X10280000Y3971940D01*
Y3750000D02*
Y3971940D01*
X9809256Y4569998D02*
X9975952D01*
X10060955Y4655002D01*
X10610002D01*
X6205002Y4607560D02*
Y4675002D01*
X5744647Y4607560D02*
X6205002D01*
X5581401Y4770806D02*
X5744647Y4607560D01*
X5406974Y4770806D02*
X5581401D01*
X5300980Y4876800D02*
X5406974Y4770806D01*
X5300980Y4876800D02*
Y4975860D01*
X5384800D01*
X5514340Y4846320D01*
X5854700D01*
X5892800Y4808220D01*
X6010001D01*
Y4906198D01*
X6019480Y4915682D01*
Y4993630D01*
X6160851Y5135001D01*
X6554998D01*
Y5196840D01*
X6565001Y5206843D01*
Y5270002D01*
X6139998Y4675002D02*
Y4906198D01*
X6270000Y4824999D02*
Y4906198D01*
Y4824999D02*
X6354999Y4740001D01*
X6205002Y4906198D02*
Y5011420D01*
X6375400D01*
X6426200Y4960620D01*
X6648521D01*
X6692900Y5004999D01*
X6765000D01*
X6082299Y4295003D02*
X6085002D01*
X6074999Y4302303D02*
X6082299Y4295003D01*
X6074999Y4302303D02*
Y4465000D01*
X2910002Y3070001D02*
Y4129999D01*
Y4460001D01*
Y5519999D01*
Y3070001D02*
X3310001D01*
X3539998Y3299998D01*
X3659998D01*
X2910002Y4460001D02*
X3015000D01*
X3245002Y4689998D01*
X3659998D01*
X4940000Y3277997D02*
X5203998D01*
X5379999Y3453999D01*
X3659998Y4689998D02*
X4013601D01*
X4074201Y4750598D01*
Y5435798D02*
X4179900Y5541498D01*
X4074201Y4908499D02*
X4232102D01*
X5379999Y3453999D02*
X6088258Y2745740D01*
X6655740D01*
X6929999Y3019999D01*
X3925001Y5796397D02*
X4179900Y5541498D01*
X3925001Y5796397D02*
Y5850001D01*
X6929999Y3019999D02*
Y3719998D01*
X3860002Y5915000D02*
X3925001Y5850001D01*
X3610574Y5915000D02*
X3860002D01*
X3475573D02*
X3610574D01*
X3475573Y6510000D02*
X3610574D01*
X3774999D01*
X3954998Y6330000D01*
X4492605D01*
X5080803Y5741802D01*
X10609580Y5999978D02*
X10769600Y6159998D01*
X10609580Y5464998D02*
X10610002D01*
X8304002Y5104003D02*
Y5225425D01*
X8299999Y5100000D02*
X8304002Y5104003D01*
X5080803Y5741802D02*
X5195103Y5627502D01*
Y5553400D02*
Y5627502D01*
X8299999Y4974575D02*
Y5100000D01*
X4702942Y5741802D02*
X5080803D01*
X4650740Y5689600D02*
X4702942Y5741802D01*
X4650740Y5551602D02*
Y5689600D01*
Y5551602D02*
X4733900D01*
X9369257Y4520001D02*
Y4569998D01*
X8304002Y5225425D02*
Y5257800D01*
X8273522Y5288280D02*
X8304002Y5257800D01*
X8158480Y5288280D02*
X8273522D01*
X8158480D02*
Y5421523D01*
X8090002Y5490002D02*
X8158480Y5421523D01*
X10185999Y4289999D02*
X10479999Y3995999D01*
X10710001Y2999740D02*
Y2999999D01*
X9649998Y2999740D02*
Y2999999D01*
X9620001Y2970002D02*
X9649998Y2999999D01*
X9010000Y2970002D02*
X9620001D01*
X9010000D02*
Y3443996D01*
X9200002Y3633998D01*
X8817300D02*
X9200002D01*
X8779998Y3671301D02*
X8817300Y3633998D01*
X8779998Y3671301D02*
Y3720003D01*
X11121913Y6390000D02*
X11156914D01*
X4656902Y5291501D02*
X4712503D01*
X4877603Y5456601D01*
X4733900D02*
X4877603D01*
X4979700Y5646603D02*
X5080803Y5545501D01*
X4733900Y5646603D02*
X4979700D01*
X5080803Y5545501D02*
Y5651800D01*
X4483903Y5456601D02*
X4564898D01*
Y5291501D02*
Y5456601D01*
X4728530Y4902398D02*
X4858771D01*
X4478528D02*
X4546300D01*
X4571898Y4876800D01*
Y4751974D02*
Y4876800D01*
X4681799Y4254698D02*
Y4413702D01*
X4760798D01*
X4838700D01*
X4844796Y4419798D01*
X4924801D01*
X4760798Y4603699D02*
X4763953Y4606849D01*
X5126853D01*
X5130002Y4609998D01*
Y4500001D02*
Y4609998D01*
X4510801Y4413702D02*
X4589800D01*
Y4254698D02*
Y4413702D01*
X5079700Y5456601D02*
X5080803Y5455498D01*
X4969601Y5456601D02*
X5079700D01*
X5080803Y5455498D02*
X5133340D01*
X5139243Y5461401D01*
X5195103D01*
X5195799Y5460700D01*
X5334300D01*
X5335001Y5459999D01*
X5391201D01*
X5520812Y5330388D01*
X6960001Y5327000D01*
Y5320000D02*
Y5327000D01*
X5520812Y5330388D02*
X5945002Y4906198D01*
X5084542Y4908499D02*
X5204963D01*
X4965116D02*
X5084542D01*
X6160851Y5070003D02*
X6554998D01*
X6074999Y4984151D02*
X6160851Y5070003D01*
X6074999Y4906198D02*
Y4984151D01*
Y4800600D02*
Y4906198D01*
X6047059Y4772660D02*
X6074999Y4800600D01*
X5771429Y4772660D02*
X6047059D01*
X5737880Y4806208D02*
X5771429Y4772660D01*
X5424917Y4806208D02*
X5737880D01*
X5354320Y4876800D02*
X5424917Y4806208D01*
X5354320Y4920000D02*
X5355001D01*
X5130002Y4409999D02*
X5240000D01*
X5384998D01*
X5125100Y4414901D02*
X5130002Y4409999D01*
X5021702Y4414901D02*
X5125100D01*
X5016800Y4419798D02*
X5021702Y4414901D01*
X5384998Y4409999D02*
X5391998D01*
X5571998Y4229999D01*
X6085002D01*
X6120806D01*
X6240805Y4109999D01*
X6392997D01*
X6542999Y4260002D01*
X6550000D01*
X4940000Y3370001D02*
Y3550001D01*
X5114000D01*
X8305998Y5350850D02*
Y5464272D01*
X8318002Y5476276D01*
X8325002Y5623123D01*
Y5690428D01*
X8275000D02*
X8325002D01*
X4669998Y3550001D02*
X4848001D01*
X3475573Y5999998D02*
X3610574D01*
X3475573Y6425001D02*
X3610574D01*
X3475573D02*
X3536376Y6364199D01*
Y6081136D02*
Y6364199D01*
X3614044Y6003468D02*
X3926246D01*
X4253601Y5559801D02*
Y5676113D01*
X4271899Y5541498D02*
X4377004Y5646603D01*
X4483903D01*
X4271899Y5541498D02*
X4473799D01*
X4483903Y5551602D01*
X3610574Y6340003D02*
X3854999D01*
X3865001Y6330000D01*
X3462513Y5850001D02*
X3834999D01*
X3420374Y5892135D02*
X3462513Y5850001D01*
X3420374Y5892135D02*
Y6029803D01*
X3475573Y6085002D01*
X9880001Y3750000D02*
Y3929979D01*
X9631680Y4178300D02*
X9880001Y3929979D01*
X9093200Y4178300D02*
X9631680D01*
X9060200Y4211300D02*
X9093200Y4178300D01*
X9010000Y4425000D02*
X9202105D01*
X9207104Y4420001D01*
X9369257D01*
X8379998Y3530600D02*
Y3720003D01*
X8341294Y3491895D02*
X8379998Y3530600D01*
X7953345Y3491895D02*
X8341294D01*
X7820000Y3490000D02*
X7953345Y3491895D01*
X7907548Y6185428D02*
X8130002D01*
X10080000Y3482340D02*
Y3750000D01*
Y4056096D01*
X9995733Y4140363D02*
X10080000Y4056096D01*
X9778655Y4140363D02*
X9995733D01*
X9703613Y4215404D02*
X9778655Y4140363D01*
X9147490Y4215404D02*
X9703613D01*
X9095603Y4267291D02*
X9147490Y4215404D01*
X9095603Y4267291D02*
Y4295602D01*
X9169999Y4369999D01*
X9369257D01*
X6654998Y5270002D02*
X6880997D01*
X6920001Y5230998D01*
Y5220000D02*
Y5230998D01*
X6445001Y4740001D02*
X6560998D01*
X6580002Y4759000D01*
Y4769998D01*
X6645001Y4100002D02*
X6647500Y4102501D01*
Y4218701D01*
X6648801Y4220002D01*
X6649999D01*
X6275004Y5825002D02*
Y6275004D01*
X8570001Y5470002D02*
X8573165Y5473162D01*
Y5688589D01*
X8574999Y5690428D01*
X4232102Y5000498D02*
X4235201Y4997399D01*
X4478528D01*
X3942598Y5290002D02*
X4232102Y5000498D01*
X3659998Y5290002D02*
X3942598D01*
X4232102Y5000498D02*
X4324005Y5092400D01*
X4478528D01*
X5851205Y5400004D02*
X5945002Y5493802D01*
Y5585501D01*
X5863001Y5667502D02*
X5945002Y5585501D01*
X5787502Y5667502D02*
X5863001D01*
X5579999Y5459999D02*
X5787502Y5667502D01*
X5544998Y5459999D02*
X5579999D01*
X3659998Y3900002D02*
X3780003D01*
X3817300Y3937300D01*
Y4049405D01*
X4259600Y4491700D01*
X4280002Y4509999D01*
X4281302Y4508698D01*
X4510801D01*
X4280002Y4509999D02*
X4373702Y4603699D01*
X4510801D01*
D43*
X11590000Y3290001D02*
D03*
X12098000D02*
D03*
X13114000D02*
D03*
X12860001D02*
D03*
X12606000D02*
D03*
X12352000D02*
D03*
X11844000D02*
D03*
X13367999Y3293999D02*
D03*
Y5579999D02*
D03*
X11844000D02*
D03*
X12098000D02*
D03*
X12352000D02*
D03*
X12606000D02*
D03*
X12860001D02*
D03*
X13114000D02*
D03*
D44*
X11590000D02*
D03*
D45*
X7820000Y3490000D02*
D03*
D46*
X3610574Y6510000D02*
D03*
Y6425001D02*
D03*
Y6340003D02*
D03*
Y6254999D02*
D03*
Y6170000D02*
D03*
Y6085002D02*
D03*
Y5999998D02*
D03*
Y5915000D02*
D03*
X3475573D02*
D03*
Y5999998D02*
D03*
Y6085002D02*
D03*
Y6170000D02*
D03*
Y6254999D02*
D03*
Y6340003D02*
D03*
Y6425001D02*
D03*
Y6510000D02*
D03*
D47*
X3174573Y6645001D02*
D03*
Y5779999D02*
D03*
D48*
X3512576Y6645001D02*
D03*
Y5779999D02*
D03*
D49*
X9164000Y5832160D02*
D03*
X8778887Y6404180D02*
D03*
X9164320Y5831840D02*
D03*
X9260000Y6030000D02*
D03*
X9027160Y5748020D02*
D03*
X6720886Y6289863D02*
D03*
X6705200Y6590000D02*
D03*
X6650000Y6840000D02*
D03*
X8020000Y5830000D02*
D03*
X4890000Y5040000D02*
D03*
X4950000Y4530000D02*
D03*
X5130000Y4800000D02*
D03*
X5570000Y5070000D02*
D03*
X8430000Y5220000D02*
D03*
X8200000Y4880000D02*
D03*
X8020000Y5600000D02*
D03*
X7934960Y4023360D02*
D03*
X7737881Y4897120D02*
D03*
X6420000Y3990000D02*
D03*
X9350000Y6400000D02*
D03*
X10469999Y6377498D02*
D03*
X11150000Y5450000D02*
D03*
X11010000Y6390000D02*
D03*
X8840003Y4246880D02*
D03*
X9466580Y3726002D02*
D03*
X6819555Y6364615D02*
D03*
X5867400Y4676140D02*
D03*
X10129520Y5335001D02*
D03*
X8255000Y5595620D02*
D03*
X5615940Y3652520D02*
D03*
X7197882Y6474938D02*
D03*
X8138160Y6469380D02*
D03*
X5854400Y5584403D02*
D03*
X6906372Y5083272D02*
D03*
X6294999Y4471899D02*
D03*
X6471920Y3721100D02*
D03*
X7397501Y5237480D02*
D03*
X6804660Y4879340D02*
D03*
X6908800Y5642859D02*
D03*
X6408420Y4879340D02*
D03*
X7073900Y5140960D02*
D03*
X6294999Y4409999D02*
D03*
X5924398D02*
D03*
X7496642Y6587861D02*
D03*
X8050814Y6364615D02*
D03*
X9806940Y4246880D02*
D03*
X4074201Y4750598D02*
D03*
Y5435798D02*
D03*
Y4908499D02*
D03*
X10185999Y4478020D02*
D03*
X10080000Y3482340D02*
D03*
X5851205Y5400004D02*
D03*
D50*
X8230001Y5790428D02*
D03*
Y5900425D02*
D03*
Y6010427D02*
D03*
Y6120425D02*
D03*
Y6230427D02*
D03*
X8339999Y5790428D02*
D03*
Y5900425D02*
D03*
Y6010427D02*
D03*
Y6120425D02*
D03*
Y6230427D02*
D03*
X8450001Y5790428D02*
D03*
Y5900425D02*
D03*
Y6010427D02*
D03*
Y6120425D02*
D03*
Y6230427D02*
D03*
X8559998Y5790428D02*
D03*
Y5900425D02*
D03*
Y6010427D02*
D03*
Y6120425D02*
D03*
Y6230427D02*
D03*
X8670000Y5790428D02*
D03*
Y5900425D02*
D03*
Y6010427D02*
D03*
Y6120425D02*
D03*
Y6230427D02*
D03*
%TF.MD5,31f477527465873881029b183cc30b05*%
M02*
