%TF.GenerationSoftware,Altium Limited,Altium Designer,24.10.1 (45)*%
G04 Layer_Physical_Order=3*
G04 Layer_Color=16440176*
%FSLAX45Y45*%
%MOMM*%
%TF.SameCoordinates,2EBBFB3B-01A8-4DF5-8D17-AA19E7DB42BB*%
%TF.FilePolarity,Positive*%
%TF.FileFunction,Copper,L3,Inr,Signal*%
%TF.Part,Single*%
G01*
G75*
%TA.AperFunction,Conductor*%
%ADD42C,0.25400*%
%TA.AperFunction,ComponentPad*%
%ADD43C,1.65000*%
%TA.AperFunction,ViaPad*%
%ADD45C,1.52400*%
%TA.AperFunction,ComponentPad*%
%ADD46C,0.65000*%
%ADD47O,1.70000X0.90000*%
%ADD48O,2.40000X0.90000*%
%TA.AperFunction,ViaPad*%
%ADD49C,0.85000*%
%ADD50C,0.50000*%
G36*
X13789999Y2670000D02*
X2630000D01*
Y6930000D01*
X6605381D01*
X6611817Y6915225D01*
X6613168Y6904600D01*
X6583116Y6874548D01*
X6578277Y6862865D01*
Y5223820D01*
X6583116Y5212136D01*
X6843023Y4952230D01*
X6841356Y4939563D01*
X6814141Y4924191D01*
X6813624Y4924405D01*
X6795696D01*
X6779132Y4917545D01*
X6766455Y4904868D01*
X6762726Y4895863D01*
X6450354D01*
X6446625Y4904868D01*
X6433948Y4917545D01*
X6417384Y4924405D01*
X6399456D01*
X6382892Y4917545D01*
X6370215Y4904868D01*
X6363355Y4888304D01*
Y4870376D01*
X6370215Y4853812D01*
X6382892Y4841135D01*
X6399456Y4834275D01*
X6417384D01*
X6433948Y4841135D01*
X6446625Y4853812D01*
X6450354Y4862817D01*
X6762726D01*
X6766455Y4853812D01*
X6779132Y4841135D01*
X6795696Y4834275D01*
X6813624D01*
X6830187Y4841135D01*
X6854177Y4829203D01*
Y3979404D01*
X6612396Y3737623D01*
X6513854D01*
X6510125Y3746628D01*
X6497448Y3759305D01*
X6480884Y3766165D01*
X6462956D01*
X6446392Y3759305D01*
X6433715Y3746628D01*
X6426855Y3730064D01*
Y3712136D01*
X6433715Y3695572D01*
X6446392Y3682895D01*
X6462956Y3676035D01*
X6480884D01*
X6497448Y3682895D01*
X6510125Y3695572D01*
X6513854Y3704577D01*
X6619240D01*
X6630924Y3709416D01*
X6882383Y3960876D01*
X6882384Y3960876D01*
X6887223Y3972560D01*
Y4947920D01*
X6882384Y4959604D01*
X6882383Y4959604D01*
X6611323Y5230664D01*
Y6347859D01*
X6636723Y6352911D01*
X6638316Y6349065D01*
X6662626Y6324755D01*
X6657613Y6316071D01*
X6653993Y6302563D01*
X6708186D01*
Y6356755D01*
X6694677Y6353136D01*
X6685994Y6348122D01*
X6666523Y6367593D01*
Y6531758D01*
X6691923Y6546721D01*
X6696236Y6544935D01*
X6714164D01*
X6730727Y6551795D01*
X6743405Y6564473D01*
X6750265Y6581036D01*
Y6598964D01*
X6743405Y6615528D01*
X6730727Y6628205D01*
X6721723Y6631934D01*
Y6862865D01*
X6716884Y6874548D01*
X6716883Y6874549D01*
X6686832Y6904600D01*
X6688183Y6915228D01*
X6694619Y6930000D01*
X13789999D01*
X13789999Y2670000D01*
D02*
G37*
%LPC*%
G36*
X3587576Y6693498D02*
X3437576D01*
X3419017Y6689806D01*
X3403283Y6679293D01*
X3392770Y6663560D01*
X3389079Y6645001D01*
X3392770Y6626442D01*
X3403283Y6610708D01*
X3419017Y6600195D01*
X3437576Y6596503D01*
X3587576D01*
X3606135Y6600195D01*
X3621869Y6610708D01*
X3632382Y6626442D01*
X3636073Y6645001D01*
X3632382Y6663560D01*
X3621869Y6679293D01*
X3606135Y6689806D01*
X3587576Y6693498D01*
D02*
G37*
G36*
X3214573D02*
X3134573D01*
X3116014Y6689806D01*
X3100281Y6679293D01*
X3089768Y6663560D01*
X3086076Y6645001D01*
X3089768Y6626442D01*
X3100281Y6610708D01*
X3116014Y6600195D01*
X3134573Y6596503D01*
X3214573D01*
X3233132Y6600195D01*
X3248866Y6610708D01*
X3259379Y6626442D01*
X3263070Y6645001D01*
X3259379Y6663560D01*
X3248866Y6679293D01*
X3233132Y6689806D01*
X3214573Y6693498D01*
D02*
G37*
G36*
X7505607Y6632926D02*
X7487678D01*
X7471115Y6626065D01*
X7458438Y6613388D01*
X7451577Y6596825D01*
Y6578897D01*
X7458438Y6562333D01*
X7471115Y6549656D01*
X7487678Y6542795D01*
X7505607D01*
X7522170Y6549656D01*
X7534847Y6562333D01*
X7541708Y6578897D01*
Y6596825D01*
X7534847Y6613388D01*
X7522170Y6626065D01*
X7505607Y6632926D01*
D02*
G37*
G36*
X8996898Y6528406D02*
X8985213Y6523566D01*
X8985213Y6523564D01*
X8947552Y6485903D01*
X8180094D01*
X8176365Y6494908D01*
X8163688Y6507585D01*
X8147124Y6514445D01*
X8129196D01*
X8112632Y6507585D01*
X8099955Y6494908D01*
X8093095Y6478344D01*
Y6460416D01*
X8099955Y6443853D01*
X8084064Y6423823D01*
X8077023Y6427888D01*
X8063514Y6431508D01*
Y6364615D01*
Y6297723D01*
X8077023Y6301342D01*
X8092506Y6310282D01*
X8105148Y6322924D01*
X8114087Y6338407D01*
X8116683Y6348092D01*
X8670277D01*
Y6309360D01*
X8675116Y6297676D01*
X8699241Y6273552D01*
X8685958Y6254295D01*
X8675493Y6257989D01*
X8675484Y6257993D01*
X8673152Y6257992D01*
X8664517D01*
X8654386Y6253796D01*
X8646632Y6246041D01*
X8642435Y6235910D01*
Y6224944D01*
X8646632Y6214813D01*
X8654386Y6207058D01*
X8664517Y6202862D01*
X8675484D01*
X8685615Y6207058D01*
X8693369Y6214813D01*
X8697566Y6224944D01*
Y6233578D01*
X8697566Y6235910D01*
X8697562Y6235919D01*
X8693869Y6246385D01*
X8713125Y6259667D01*
X9105740Y5867052D01*
X9100727Y5858369D01*
X9097108Y5844860D01*
X9151300D01*
Y5899052D01*
X9137791Y5895433D01*
X9129108Y5890420D01*
X8703323Y6316204D01*
Y6349200D01*
X8711506Y6354322D01*
X8728723Y6358319D01*
X8737196Y6349846D01*
X8752679Y6340907D01*
X8766187Y6337288D01*
Y6404180D01*
X8778887D01*
Y6416880D01*
X8845780D01*
X8842946Y6427457D01*
X8845341Y6434758D01*
X8858517Y6452857D01*
X8954396D01*
X8966080Y6457696D01*
X9003742Y6495358D01*
X10881274D01*
X10968664Y6407968D01*
X10964935Y6398964D01*
Y6381036D01*
X10971795Y6364472D01*
X10984473Y6351795D01*
X11001036Y6344934D01*
X11018964D01*
X11035528Y6351795D01*
X11048205Y6364472D01*
X11055066Y6381036D01*
Y6398964D01*
X11048205Y6415527D01*
X11035528Y6428205D01*
X11018964Y6435065D01*
X11001036D01*
X10992032Y6431336D01*
X10899802Y6523565D01*
X10888119Y6528405D01*
X8996899D01*
X8996898Y6528406D01*
D02*
G37*
G36*
X7206847Y6520003D02*
X7188918D01*
X7172355Y6513142D01*
X7159678Y6500465D01*
X7152817Y6483902D01*
Y6465973D01*
X7159678Y6449410D01*
X7172355Y6436733D01*
X7188918Y6429872D01*
X7206847D01*
X7223410Y6436733D01*
X7236087Y6449410D01*
X7242948Y6465973D01*
Y6483902D01*
X7236087Y6500465D01*
X7223410Y6513142D01*
X7206847Y6520003D01*
D02*
G37*
G36*
X9362700Y6466892D02*
Y6412700D01*
X9416893D01*
X9413273Y6426208D01*
X9404334Y6441691D01*
X9391692Y6454334D01*
X9376209Y6463273D01*
X9362700Y6466892D01*
D02*
G37*
G36*
X9337300D02*
X9323792Y6463273D01*
X9308309Y6454334D01*
X9295666Y6441691D01*
X9286727Y6426208D01*
X9283108Y6412700D01*
X9337300D01*
Y6466892D01*
D02*
G37*
G36*
X8038114Y6431508D02*
X8024606Y6427888D01*
X8009123Y6418949D01*
X7996481Y6406307D01*
X7987542Y6390824D01*
X7984946Y6381138D01*
X6885423D01*
X6882827Y6390824D01*
X6873888Y6406307D01*
X6861246Y6418949D01*
X6845763Y6427888D01*
X6832255Y6431508D01*
Y6364615D01*
Y6297723D01*
X6845763Y6301342D01*
X6861246Y6310282D01*
X6873888Y6322924D01*
X6882827Y6338407D01*
X6885423Y6348092D01*
X7984946D01*
X7987542Y6338407D01*
X7996481Y6322924D01*
X8009123Y6310282D01*
X8024606Y6301342D01*
X8038114Y6297723D01*
Y6364615D01*
Y6431508D01*
D02*
G37*
G36*
X8845780Y6391480D02*
X8791587D01*
Y6337288D01*
X8805096Y6340907D01*
X8820579Y6349846D01*
X8833221Y6362488D01*
X8842160Y6377971D01*
X8845780Y6391480D01*
D02*
G37*
G36*
X9416893Y6387300D02*
X9362700D01*
Y6333107D01*
X9376209Y6336727D01*
X9391692Y6345666D01*
X9404334Y6358308D01*
X9413273Y6373791D01*
X9416893Y6387300D01*
D02*
G37*
G36*
X9337300D02*
X9283108D01*
X9286727Y6373791D01*
X9295666Y6358308D01*
X9308309Y6345666D01*
X9323792Y6336727D01*
X9337300Y6333107D01*
Y6387300D01*
D02*
G37*
G36*
X10478963Y6422564D02*
X10461035D01*
X10444471Y6415703D01*
X10431794Y6403026D01*
X10424933Y6386462D01*
Y6368534D01*
X10431794Y6351971D01*
X10444471Y6339294D01*
X10461035Y6332433D01*
X10478963D01*
X10495526Y6339294D01*
X10508204Y6351971D01*
X10515064Y6368534D01*
Y6386462D01*
X10508204Y6403026D01*
X10495526Y6415703D01*
X10478963Y6422564D01*
D02*
G37*
G36*
X6806855Y6431508D02*
X6793346Y6427888D01*
X6777863Y6418949D01*
X6765221Y6406307D01*
X6756282Y6390824D01*
X6751655Y6373555D01*
X6733586Y6360484D01*
Y6289863D01*
Y6222971D01*
X6747094Y6226590D01*
X6762577Y6235529D01*
X6775219Y6248171D01*
X6784159Y6263654D01*
X6788786Y6280923D01*
X6806855Y6293995D01*
Y6364615D01*
Y6431508D01*
D02*
G37*
G36*
X6708186Y6277163D02*
X6653993D01*
X6657613Y6263654D01*
X6666552Y6248171D01*
X6679194Y6235529D01*
X6694677Y6226590D01*
X6708186Y6222971D01*
Y6277163D01*
D02*
G37*
G36*
X8565481Y6257992D02*
X8554515D01*
X8544384Y6253796D01*
X8536629Y6246041D01*
X8532433Y6235910D01*
Y6224944D01*
X8536629Y6214813D01*
X8544384Y6207058D01*
X8554515Y6202862D01*
X8565481D01*
X8575613Y6207058D01*
X8583367Y6214813D01*
X8587563Y6224944D01*
Y6235910D01*
X8583367Y6246041D01*
X8575613Y6253796D01*
X8565481Y6257992D01*
D02*
G37*
G36*
X8455484D02*
X8444518D01*
X8434386Y6253796D01*
X8426632Y6246041D01*
X8422436Y6235910D01*
Y6224944D01*
X8426632Y6214813D01*
X8434386Y6207058D01*
X8444518Y6202862D01*
X8455484D01*
X8465615Y6207058D01*
X8473370Y6214813D01*
X8477566Y6224944D01*
Y6235910D01*
X8473370Y6246041D01*
X8465615Y6253796D01*
X8455484Y6257992D01*
D02*
G37*
G36*
X8345482D02*
X8334515D01*
X8324384Y6253796D01*
X8316630Y6246041D01*
X8312433Y6235910D01*
Y6224944D01*
X8316630Y6214813D01*
X8324384Y6207058D01*
X8334515Y6202862D01*
X8345482D01*
X8355613Y6207058D01*
X8363367Y6214813D01*
X8367564Y6224944D01*
Y6235910D01*
X8363367Y6246041D01*
X8355613Y6253796D01*
X8345482Y6257992D01*
D02*
G37*
G36*
X8235484D02*
X8224518D01*
X8214387Y6253796D01*
X8206633Y6246041D01*
X8202436Y6235910D01*
Y6224944D01*
X8206633Y6214813D01*
X8214387Y6207058D01*
X8224518Y6202862D01*
X8235484D01*
X8245616Y6207058D01*
X8253370Y6214813D01*
X8257567Y6224944D01*
Y6235910D01*
X8253370Y6246041D01*
X8245616Y6253796D01*
X8235484Y6257992D01*
D02*
G37*
G36*
X8675484Y6147990D02*
X8664517D01*
X8654386Y6143793D01*
X8646632Y6136039D01*
X8642435Y6125908D01*
Y6114942D01*
X8646632Y6104810D01*
X8654386Y6097056D01*
X8664517Y6092859D01*
X8675484D01*
X8685615Y6097056D01*
X8693369Y6104810D01*
X8697566Y6114942D01*
Y6125908D01*
X8693369Y6136039D01*
X8685615Y6143793D01*
X8675484Y6147990D01*
D02*
G37*
G36*
X8565481D02*
X8554515D01*
X8544384Y6143793D01*
X8536629Y6136039D01*
X8532433Y6125908D01*
Y6114942D01*
X8536629Y6104810D01*
X8544384Y6097056D01*
X8554515Y6092859D01*
X8565481D01*
X8575613Y6097056D01*
X8583367Y6104810D01*
X8587563Y6114942D01*
Y6125908D01*
X8583367Y6136039D01*
X8575613Y6143793D01*
X8565481Y6147990D01*
D02*
G37*
G36*
X8455484D02*
X8444518D01*
X8434386Y6143793D01*
X8426632Y6136039D01*
X8422436Y6125908D01*
Y6114942D01*
X8426632Y6104810D01*
X8434386Y6097056D01*
X8444518Y6092859D01*
X8455484D01*
X8465615Y6097056D01*
X8473370Y6104810D01*
X8477566Y6114942D01*
Y6125908D01*
X8473370Y6136039D01*
X8465615Y6143793D01*
X8455484Y6147990D01*
D02*
G37*
G36*
X8345482D02*
X8334515D01*
X8324384Y6143793D01*
X8316630Y6136039D01*
X8312433Y6125908D01*
Y6114942D01*
X8316630Y6104810D01*
X8324384Y6097056D01*
X8334515Y6092859D01*
X8345482D01*
X8355613Y6097056D01*
X8363367Y6104810D01*
X8367564Y6114942D01*
Y6125908D01*
X8363367Y6136039D01*
X8355613Y6143793D01*
X8345482Y6147990D01*
D02*
G37*
G36*
X8235484D02*
X8224518D01*
X8214387Y6143793D01*
X8206633Y6136039D01*
X8202436Y6125908D01*
Y6114942D01*
X8206633Y6104810D01*
X8214387Y6097056D01*
X8224518Y6092859D01*
X8235484D01*
X8245616Y6097056D01*
X8253370Y6104810D01*
X8257567Y6114942D01*
Y6125908D01*
X8253370Y6136039D01*
X8245616Y6143793D01*
X8235484Y6147990D01*
D02*
G37*
G36*
X9268964Y6075065D02*
X9251036D01*
X9234473Y6068205D01*
X9221795Y6055527D01*
X9214935Y6038964D01*
Y6021036D01*
X9221795Y6004472D01*
X9234473Y5991795D01*
X9251036Y5984934D01*
X9268964D01*
X9285528Y5991795D01*
X9298205Y6004472D01*
X9305065Y6021036D01*
Y6038964D01*
X9298205Y6055527D01*
X9285528Y6068205D01*
X9268964Y6075065D01*
D02*
G37*
G36*
X8675484Y6037993D02*
X8664517D01*
X8654386Y6033796D01*
X8646632Y6026042D01*
X8642435Y6015910D01*
Y6004944D01*
X8646632Y5994813D01*
X8654386Y5987059D01*
X8664517Y5982862D01*
X8675484D01*
X8685615Y5987059D01*
X8693369Y5994813D01*
X8697566Y6004944D01*
Y6015910D01*
X8693369Y6026042D01*
X8685615Y6033796D01*
X8675484Y6037993D01*
D02*
G37*
G36*
X8565481D02*
X8554515D01*
X8544384Y6033796D01*
X8536629Y6026042D01*
X8532433Y6015910D01*
Y6004944D01*
X8536629Y5994813D01*
X8544384Y5987059D01*
X8554515Y5982862D01*
X8565481D01*
X8575613Y5987059D01*
X8583367Y5994813D01*
X8587563Y6004944D01*
Y6015910D01*
X8583367Y6026042D01*
X8575613Y6033796D01*
X8565481Y6037993D01*
D02*
G37*
G36*
X8455484D02*
X8444518D01*
X8434386Y6033796D01*
X8426632Y6026042D01*
X8422436Y6015910D01*
Y6004944D01*
X8426632Y5994813D01*
X8434386Y5987059D01*
X8444518Y5982862D01*
X8455484D01*
X8465615Y5987059D01*
X8473370Y5994813D01*
X8477566Y6004944D01*
Y6015910D01*
X8473370Y6026042D01*
X8465615Y6033796D01*
X8455484Y6037993D01*
D02*
G37*
G36*
X8345482D02*
X8334515D01*
X8324384Y6033796D01*
X8316630Y6026042D01*
X8312433Y6015910D01*
Y6004944D01*
X8316630Y5994813D01*
X8324384Y5987059D01*
X8334515Y5982862D01*
X8345482D01*
X8355613Y5987059D01*
X8363367Y5994813D01*
X8367564Y6004944D01*
Y6015910D01*
X8363367Y6026042D01*
X8355613Y6033796D01*
X8345482Y6037993D01*
D02*
G37*
G36*
X8235484D02*
X8224518D01*
X8214387Y6033796D01*
X8206633Y6026042D01*
X8202436Y6015910D01*
Y6004944D01*
X8206633Y5994813D01*
X8214387Y5987059D01*
X8224518Y5982862D01*
X8235484D01*
X8245616Y5987059D01*
X8253370Y5994813D01*
X8257567Y6004944D01*
Y6015910D01*
X8253370Y6026042D01*
X8245616Y6033796D01*
X8235484Y6037993D01*
D02*
G37*
G36*
X3617550Y6545065D02*
X3603599D01*
X3590711Y6539727D01*
X3580847Y6529863D01*
X3575509Y6516975D01*
Y6503025D01*
X3580847Y6490137D01*
X3590711Y6480273D01*
Y6454728D01*
X3580847Y6444864D01*
X3575509Y6431976D01*
Y6418026D01*
X3580847Y6405138D01*
X3590711Y6395274D01*
Y6369729D01*
X3580847Y6359866D01*
X3575509Y6346978D01*
Y6333027D01*
X3580847Y6320140D01*
X3590711Y6310276D01*
Y6284726D01*
X3580847Y6274862D01*
X3575509Y6261974D01*
Y6248024D01*
X3580847Y6235136D01*
X3590711Y6225272D01*
Y6199727D01*
X3580847Y6189863D01*
X3575509Y6176975D01*
Y6163025D01*
X3580847Y6150137D01*
X3590711Y6140273D01*
Y6114729D01*
X3580847Y6104865D01*
X3575509Y6091977D01*
Y6078027D01*
X3580847Y6065139D01*
X3590711Y6055275D01*
Y6029725D01*
X3580847Y6019861D01*
X3575509Y6006973D01*
Y5993023D01*
X3580847Y5980135D01*
X3590711Y5970271D01*
Y5944726D01*
X3580847Y5934863D01*
X3575509Y5921975D01*
Y5908025D01*
X3580847Y5895137D01*
X3590711Y5885272D01*
X3603599Y5879934D01*
X3617550D01*
X3630437Y5885272D01*
X3640302Y5895137D01*
X3645640Y5908025D01*
Y5921975D01*
X3640302Y5934863D01*
X3630438Y5944726D01*
Y5970271D01*
X3640302Y5980135D01*
X3645640Y5993023D01*
Y6006973D01*
X3640302Y6019861D01*
X3630438Y6029725D01*
Y6055275D01*
X3640302Y6065139D01*
X3645640Y6078027D01*
Y6091977D01*
X3640302Y6104865D01*
X3630438Y6114729D01*
Y6140273D01*
X3640302Y6150137D01*
X3645640Y6163025D01*
Y6176975D01*
X3640302Y6189863D01*
X3630438Y6199727D01*
Y6225272D01*
X3640302Y6235136D01*
X3645640Y6248024D01*
Y6261974D01*
X3640302Y6274862D01*
X3630438Y6284726D01*
Y6310276D01*
X3640302Y6320140D01*
X3645640Y6333027D01*
Y6346978D01*
X3640302Y6359866D01*
X3630438Y6369729D01*
Y6395274D01*
X3640302Y6405138D01*
X3645640Y6418026D01*
Y6431976D01*
X3640302Y6444864D01*
X3630438Y6454728D01*
Y6480273D01*
X3640302Y6490137D01*
X3645640Y6503025D01*
Y6516975D01*
X3640302Y6529863D01*
X3630437Y6539727D01*
X3617550Y6545065D01*
D02*
G37*
G36*
X3482549D02*
X3468598D01*
X3455710Y6539727D01*
X3445846Y6529863D01*
X3440508Y6516975D01*
Y6503025D01*
X3441891Y6499685D01*
X3407156Y6464950D01*
X3402317Y6453266D01*
Y5971733D01*
X3407156Y5960049D01*
X3441891Y5925314D01*
X3440508Y5921975D01*
Y5908025D01*
X3445846Y5895137D01*
X3455710Y5885272D01*
X3468598Y5879934D01*
X3482549D01*
X3495436Y5885272D01*
X3505301Y5895137D01*
X3510639Y5908025D01*
Y5921975D01*
X3505301Y5934863D01*
X3495437Y5944726D01*
Y5970271D01*
X3505301Y5980135D01*
X3510639Y5993023D01*
Y6006973D01*
X3505301Y6019861D01*
X3495437Y6029725D01*
Y6055275D01*
X3505301Y6065139D01*
X3510639Y6078027D01*
Y6091977D01*
X3505301Y6104865D01*
X3495437Y6114729D01*
Y6140273D01*
X3505301Y6150137D01*
X3510639Y6163025D01*
Y6176975D01*
X3505301Y6189863D01*
X3495437Y6199727D01*
Y6225272D01*
X3505301Y6235136D01*
X3510639Y6248024D01*
Y6261974D01*
X3505301Y6274862D01*
X3495437Y6284726D01*
Y6310276D01*
X3505301Y6320140D01*
X3510639Y6333027D01*
Y6346978D01*
X3505301Y6359866D01*
X3495437Y6369729D01*
Y6395274D01*
X3505301Y6405138D01*
X3510639Y6418026D01*
Y6431976D01*
X3505301Y6444864D01*
X3495437Y6454728D01*
Y6480273D01*
X3505301Y6490137D01*
X3510639Y6503025D01*
Y6516975D01*
X3505301Y6529863D01*
X3495436Y6539727D01*
X3482549Y6545065D01*
D02*
G37*
G36*
X8675484Y5927990D02*
X8664517D01*
X8654386Y5923794D01*
X8646632Y5916039D01*
X8642435Y5905908D01*
Y5894942D01*
X8646632Y5884811D01*
X8654386Y5877056D01*
X8664517Y5872860D01*
X8675484D01*
X8685615Y5877056D01*
X8693369Y5884811D01*
X8697566Y5894942D01*
Y5905908D01*
X8693369Y5916039D01*
X8685615Y5923794D01*
X8675484Y5927990D01*
D02*
G37*
G36*
X8565481D02*
X8554515D01*
X8544384Y5923794D01*
X8536629Y5916039D01*
X8532433Y5905908D01*
Y5894942D01*
X8536629Y5884811D01*
X8544384Y5877056D01*
X8554515Y5872860D01*
X8565481D01*
X8575613Y5877056D01*
X8583367Y5884811D01*
X8587563Y5894942D01*
Y5905908D01*
X8583367Y5916039D01*
X8575613Y5923794D01*
X8565481Y5927990D01*
D02*
G37*
G36*
X8455484D02*
X8444518D01*
X8434386Y5923794D01*
X8426632Y5916039D01*
X8422436Y5905908D01*
Y5894942D01*
X8426632Y5884811D01*
X8434386Y5877056D01*
X8444518Y5872860D01*
X8455484D01*
X8465615Y5877056D01*
X8473370Y5884811D01*
X8477566Y5894942D01*
Y5905908D01*
X8473370Y5916039D01*
X8465615Y5923794D01*
X8455484Y5927990D01*
D02*
G37*
G36*
X8345482D02*
X8334515D01*
X8324384Y5923794D01*
X8316630Y5916039D01*
X8312433Y5905908D01*
Y5894942D01*
X8316630Y5884811D01*
X8324384Y5877056D01*
X8334515Y5872860D01*
X8345482D01*
X8355613Y5877056D01*
X8363367Y5884811D01*
X8367564Y5894942D01*
Y5905908D01*
X8363367Y5916039D01*
X8355613Y5923794D01*
X8345482Y5927990D01*
D02*
G37*
G36*
X8235484D02*
X8224518D01*
X8214387Y5923794D01*
X8206633Y5916039D01*
X8202436Y5905908D01*
Y5894942D01*
X8206633Y5884811D01*
X8214387Y5877056D01*
X8224518Y5872860D01*
X8235484D01*
X8245616Y5877056D01*
X8253370Y5884811D01*
X8257567Y5894942D01*
Y5905908D01*
X8253370Y5916039D01*
X8245616Y5923794D01*
X8235484Y5927990D01*
D02*
G37*
G36*
X9176700Y5899052D02*
Y5844540D01*
X9231212D01*
X9227593Y5858048D01*
X9218654Y5873532D01*
X9205692Y5886494D01*
X9190208Y5895433D01*
X9176700Y5899052D01*
D02*
G37*
G36*
X8032700Y5896892D02*
Y5842700D01*
X8086892D01*
X8083273Y5856209D01*
X8074334Y5871692D01*
X8061692Y5884334D01*
X8046208Y5893273D01*
X8032700Y5896892D01*
D02*
G37*
G36*
X8007300D02*
X7993791Y5893273D01*
X7978308Y5884334D01*
X7965666Y5871692D01*
X7956727Y5856209D01*
X7953108Y5842700D01*
X8007300D01*
Y5896892D01*
D02*
G37*
G36*
X9164320Y5832160D02*
X9164000D01*
Y5831840D01*
X9164320D01*
Y5832160D01*
D02*
G37*
G36*
X9231212Y5819140D02*
X9177020D01*
Y5764948D01*
X9190528Y5768567D01*
X9206012Y5777506D01*
X9218654Y5790148D01*
X9227593Y5805632D01*
X9231212Y5819140D01*
D02*
G37*
G36*
X9151620Y5819460D02*
X9097108D01*
X9100727Y5805952D01*
X9109666Y5790468D01*
X9122628Y5777506D01*
X9138112Y5768567D01*
X9151620Y5764948D01*
Y5819460D01*
D02*
G37*
G36*
X8086892Y5817300D02*
X8032700D01*
Y5763108D01*
X8046208Y5766727D01*
X8061692Y5775666D01*
X8074334Y5788308D01*
X8083273Y5803792D01*
X8086892Y5817300D01*
D02*
G37*
G36*
X8007300D02*
X7953108D01*
X7956727Y5803792D01*
X7965666Y5788308D01*
X7978308Y5775666D01*
X7993791Y5766727D01*
X8007300Y5763108D01*
Y5817300D01*
D02*
G37*
G36*
X8675484Y5817993D02*
X8664517D01*
X8654386Y5813797D01*
X8646632Y5806042D01*
X8642435Y5795911D01*
Y5784945D01*
X8646632Y5774813D01*
X8654386Y5767059D01*
X8664517Y5762862D01*
X8675484D01*
X8685615Y5767059D01*
X8693369Y5774813D01*
X8697566Y5784945D01*
Y5795911D01*
X8693369Y5806042D01*
X8685615Y5813797D01*
X8675484Y5817993D01*
D02*
G37*
G36*
X8565481D02*
X8554515D01*
X8544384Y5813797D01*
X8536629Y5806042D01*
X8532433Y5795911D01*
Y5784945D01*
X8536629Y5774813D01*
X8544384Y5767059D01*
X8554515Y5762862D01*
X8565481D01*
X8575613Y5767059D01*
X8583367Y5774813D01*
X8587563Y5784945D01*
Y5795911D01*
X8583367Y5806042D01*
X8575613Y5813797D01*
X8565481Y5817993D01*
D02*
G37*
G36*
X8455484D02*
X8444518D01*
X8434386Y5813797D01*
X8426632Y5806042D01*
X8422436Y5795911D01*
Y5784945D01*
X8426632Y5774813D01*
X8434386Y5767059D01*
X8444518Y5762862D01*
X8455484D01*
X8465615Y5767059D01*
X8473370Y5774813D01*
X8477566Y5784945D01*
Y5795911D01*
X8473370Y5806042D01*
X8465615Y5813797D01*
X8455484Y5817993D01*
D02*
G37*
G36*
X8345482D02*
X8334515D01*
X8324384Y5813797D01*
X8316630Y5806042D01*
X8312433Y5795911D01*
Y5784945D01*
X8316630Y5774813D01*
X8324384Y5767059D01*
X8334515Y5762862D01*
X8345482D01*
X8355613Y5767059D01*
X8363367Y5774813D01*
X8367564Y5784945D01*
Y5795911D01*
X8363367Y5806042D01*
X8355613Y5813797D01*
X8345482Y5817993D01*
D02*
G37*
G36*
X8235484D02*
X8224518D01*
X8214387Y5813797D01*
X8206633Y5806042D01*
X8202436Y5795911D01*
Y5784945D01*
X8206633Y5774813D01*
X8214387Y5767059D01*
X8224518Y5762862D01*
X8235484D01*
X8245616Y5767059D01*
X8253370Y5774813D01*
X8257567Y5784945D01*
Y5795911D01*
X8253370Y5806042D01*
X8245616Y5813797D01*
X8235484Y5817993D01*
D02*
G37*
G36*
X3587576Y5828496D02*
X3437576D01*
X3419017Y5824804D01*
X3403283Y5814291D01*
X3392770Y5798558D01*
X3389079Y5779999D01*
X3392770Y5761440D01*
X3403283Y5745706D01*
X3419017Y5735193D01*
X3437576Y5731501D01*
X3587576D01*
X3606135Y5735193D01*
X3621869Y5745706D01*
X3632382Y5761440D01*
X3636073Y5779999D01*
X3632382Y5798558D01*
X3621869Y5814291D01*
X3606135Y5824804D01*
X3587576Y5828496D01*
D02*
G37*
G36*
X3214573D02*
X3134573D01*
X3116014Y5824804D01*
X3100281Y5814291D01*
X3089768Y5798558D01*
X3086076Y5779999D01*
X3089768Y5761440D01*
X3100281Y5745706D01*
X3116014Y5735193D01*
X3134573Y5731501D01*
X3214573D01*
X3233132Y5735193D01*
X3248866Y5745706D01*
X3259379Y5761440D01*
X3263070Y5779999D01*
X3259379Y5798558D01*
X3248866Y5814291D01*
X3233132Y5824804D01*
X3214573Y5828496D01*
D02*
G37*
G36*
X9036124Y5793085D02*
X9018196D01*
X9001632Y5786225D01*
X8988955Y5773548D01*
X8982095Y5756984D01*
Y5739056D01*
X8988955Y5722492D01*
X9001632Y5709815D01*
X9018196Y5702955D01*
X9036124D01*
X9052688Y5709815D01*
X9065365Y5722492D01*
X9072225Y5739056D01*
Y5756984D01*
X9065365Y5773548D01*
X9052688Y5786225D01*
X9036124Y5793085D01*
D02*
G37*
G36*
X8032700Y5666892D02*
Y5612700D01*
X8086892D01*
X8083273Y5626208D01*
X8074334Y5641692D01*
X8061692Y5654334D01*
X8046208Y5663273D01*
X8032700Y5666892D01*
D02*
G37*
G36*
X8007300D02*
X7993791Y5663273D01*
X7978308Y5654334D01*
X7965666Y5641692D01*
X7956727Y5626208D01*
X7953108Y5612700D01*
X8007300D01*
Y5666892D01*
D02*
G37*
G36*
X6917764Y5687924D02*
X6899836D01*
X6883272Y5681064D01*
X6870595Y5668386D01*
X6863735Y5651823D01*
Y5633895D01*
X6870595Y5617331D01*
X6883272Y5604654D01*
X6899836Y5597793D01*
X6917764D01*
X6934328Y5604654D01*
X6947005Y5617331D01*
X6953865Y5633895D01*
Y5651823D01*
X6947005Y5668386D01*
X6934328Y5681064D01*
X6917764Y5687924D01*
D02*
G37*
G36*
X13128204Y5687899D02*
X13126700D01*
Y5592699D01*
X13221899D01*
Y5594204D01*
X13214548Y5621647D01*
X13200340Y5646251D01*
X13180252Y5666340D01*
X13155647Y5680546D01*
X13128204Y5687899D01*
D02*
G37*
G36*
X13101300D02*
X13099794D01*
X13072353Y5680546D01*
X13047748Y5666340D01*
X13027658Y5646251D01*
X13013454Y5621647D01*
X13006100Y5594204D01*
Y5592699D01*
X13101300D01*
Y5687899D01*
D02*
G37*
G36*
X8263964Y5640685D02*
X8246036D01*
X8229472Y5633825D01*
X8216795Y5621148D01*
X8209935Y5604584D01*
Y5586656D01*
X8216795Y5570092D01*
X8229472Y5557415D01*
X8246036Y5550555D01*
X8263964D01*
X8280528Y5557415D01*
X8293205Y5570092D01*
X8300065Y5586656D01*
Y5604584D01*
X8293205Y5621148D01*
X8280528Y5633825D01*
X8263964Y5640685D01*
D02*
G37*
G36*
X5863364Y5629469D02*
X5845436D01*
X5828873Y5622608D01*
X5816196Y5609931D01*
X5809335Y5593368D01*
Y5575439D01*
X5816196Y5558876D01*
X5828873Y5546199D01*
X5845436Y5539338D01*
X5863364D01*
X5879928Y5546199D01*
X5892605Y5558876D01*
X5899466Y5575439D01*
Y5593368D01*
X5892605Y5609931D01*
X5879928Y5622608D01*
X5863364Y5629469D01*
D02*
G37*
G36*
X8086892Y5587300D02*
X8032700D01*
Y5533108D01*
X8046208Y5536727D01*
X8061692Y5545666D01*
X8074334Y5558308D01*
X8083273Y5573791D01*
X8086892Y5587300D01*
D02*
G37*
G36*
X8007300D02*
X7953108D01*
X7956727Y5573791D01*
X7965666Y5558308D01*
X7978308Y5545666D01*
X7993791Y5536727D01*
X8007300Y5533108D01*
Y5587300D01*
D02*
G37*
G36*
X13379199Y5665064D02*
X13356801D01*
X13335165Y5659267D01*
X13315768Y5648068D01*
X13299930Y5632230D01*
X13288731Y5612833D01*
X13282935Y5591198D01*
Y5568800D01*
X13288731Y5547165D01*
X13299930Y5527768D01*
X13315768Y5511930D01*
X13335165Y5500731D01*
X13356801Y5494934D01*
X13379199D01*
X13400835Y5500731D01*
X13420232Y5511930D01*
X13436069Y5527768D01*
X13447269Y5547165D01*
X13453065Y5568800D01*
Y5591198D01*
X13447269Y5612833D01*
X13436069Y5632230D01*
X13420232Y5648068D01*
X13400835Y5659267D01*
X13379199Y5665064D01*
D02*
G37*
G36*
X12871199D02*
X12848801D01*
X12827167Y5659267D01*
X12807768Y5648068D01*
X12791930Y5632230D01*
X12780731Y5612833D01*
X12774934Y5591198D01*
Y5568800D01*
X12780731Y5547165D01*
X12791930Y5527768D01*
X12807768Y5511930D01*
X12827167Y5500731D01*
X12848801Y5494934D01*
X12871199D01*
X12892834Y5500731D01*
X12912231Y5511930D01*
X12928069Y5527768D01*
X12939268Y5547165D01*
X12945065Y5568800D01*
Y5591198D01*
X12939268Y5612833D01*
X12928069Y5632230D01*
X12912231Y5648068D01*
X12892834Y5659267D01*
X12871199Y5665064D01*
D02*
G37*
G36*
X12617199D02*
X12594801D01*
X12573166Y5659267D01*
X12553768Y5648068D01*
X12537930Y5632230D01*
X12526731Y5612833D01*
X12520934Y5591198D01*
Y5568800D01*
X12526731Y5547165D01*
X12537930Y5527768D01*
X12553768Y5511930D01*
X12573166Y5500731D01*
X12594801Y5494934D01*
X12617199D01*
X12638834Y5500731D01*
X12658231Y5511930D01*
X12674069Y5527768D01*
X12685268Y5547165D01*
X12691065Y5568800D01*
Y5591198D01*
X12685268Y5612833D01*
X12674069Y5632230D01*
X12658231Y5648068D01*
X12638834Y5659267D01*
X12617199Y5665064D01*
D02*
G37*
G36*
X12363199D02*
X12340801D01*
X12319166Y5659267D01*
X12299768Y5648068D01*
X12283930Y5632230D01*
X12272731Y5612833D01*
X12266934Y5591198D01*
Y5568800D01*
X12272731Y5547165D01*
X12283930Y5527768D01*
X12299768Y5511930D01*
X12319166Y5500731D01*
X12340801Y5494934D01*
X12363199D01*
X12384834Y5500731D01*
X12404231Y5511930D01*
X12420069Y5527768D01*
X12431268Y5547165D01*
X12437065Y5568800D01*
Y5591198D01*
X12431268Y5612833D01*
X12420069Y5632230D01*
X12404231Y5648068D01*
X12384834Y5659267D01*
X12363199Y5665064D01*
D02*
G37*
G36*
X12109199D02*
X12086801D01*
X12065166Y5659267D01*
X12045768Y5648068D01*
X12029930Y5632230D01*
X12018731Y5612833D01*
X12012934Y5591198D01*
Y5568800D01*
X12018731Y5547165D01*
X12029930Y5527768D01*
X12045768Y5511930D01*
X12065166Y5500731D01*
X12086801Y5494934D01*
X12109199D01*
X12130834Y5500731D01*
X12150231Y5511930D01*
X12166069Y5527768D01*
X12177268Y5547165D01*
X12183065Y5568800D01*
Y5591198D01*
X12177268Y5612833D01*
X12166069Y5632230D01*
X12150231Y5648068D01*
X12130834Y5659267D01*
X12109199Y5665064D01*
D02*
G37*
G36*
X11855199D02*
X11832801D01*
X11811166Y5659267D01*
X11791768Y5648068D01*
X11775930Y5632230D01*
X11764731Y5612833D01*
X11758934Y5591198D01*
Y5568800D01*
X11764731Y5547165D01*
X11775930Y5527768D01*
X11791768Y5511930D01*
X11811166Y5500731D01*
X11832801Y5494934D01*
X11855199D01*
X11876834Y5500731D01*
X11896231Y5511930D01*
X11912069Y5527768D01*
X11923268Y5547165D01*
X11929065Y5568800D01*
Y5591198D01*
X11923268Y5612833D01*
X11912069Y5632230D01*
X11896231Y5648068D01*
X11876834Y5659267D01*
X11855199Y5665064D01*
D02*
G37*
G36*
X11601199D02*
X11578801D01*
X11557166Y5659267D01*
X11537768Y5648068D01*
X11521930Y5632230D01*
X11510731Y5612833D01*
X11504934Y5591198D01*
Y5568800D01*
X11510731Y5547165D01*
X11521930Y5527768D01*
X11537768Y5511930D01*
X11557166Y5500731D01*
X11578801Y5494934D01*
X11601199D01*
X11622834Y5500731D01*
X11642231Y5511930D01*
X11658069Y5527768D01*
X11669268Y5547165D01*
X11675065Y5568800D01*
Y5591198D01*
X11669268Y5612833D01*
X11658069Y5632230D01*
X11642231Y5648068D01*
X11622834Y5659267D01*
X11601199Y5665064D01*
D02*
G37*
G36*
X13221899Y5567299D02*
X13126700D01*
Y5472099D01*
X13128204D01*
X13155647Y5479452D01*
X13180252Y5493658D01*
X13200340Y5513747D01*
X13214548Y5538351D01*
X13221899Y5565794D01*
Y5567299D01*
D02*
G37*
G36*
X13101300D02*
X13006100D01*
Y5565794D01*
X13013454Y5538351D01*
X13027658Y5513747D01*
X13047748Y5493658D01*
X13072353Y5479452D01*
X13099794Y5472099D01*
X13101300D01*
Y5567299D01*
D02*
G37*
G36*
X11158964Y5495065D02*
X11141036D01*
X11124473Y5488205D01*
X11111795Y5475528D01*
X11104935Y5458964D01*
Y5441036D01*
X11111795Y5424473D01*
X11124473Y5411795D01*
X11141036Y5404935D01*
X11158964D01*
X11175528Y5411795D01*
X11188205Y5424473D01*
X11195065Y5441036D01*
Y5458964D01*
X11188205Y5475528D01*
X11175528Y5488205D01*
X11158964Y5495065D01*
D02*
G37*
G36*
X4083165Y5480864D02*
X4065236D01*
X4048673Y5474003D01*
X4035996Y5461326D01*
X4029135Y5444762D01*
Y5426834D01*
X4035996Y5410271D01*
X4048673Y5397593D01*
X4065236Y5390733D01*
X4083165D01*
X4099728Y5397593D01*
X4112405Y5410271D01*
X4119266Y5426834D01*
Y5444762D01*
X4112405Y5461326D01*
X4099728Y5474003D01*
X4083165Y5480864D01*
D02*
G37*
G36*
X5860169Y5445070D02*
X5842241D01*
X5825677Y5438209D01*
X5813000Y5425532D01*
X5806140Y5408969D01*
Y5391040D01*
X5813000Y5374477D01*
X5825677Y5361800D01*
X5842241Y5354939D01*
X5860169D01*
X5876732Y5361800D01*
X5889410Y5374477D01*
X5896270Y5391040D01*
Y5408969D01*
X5889410Y5425532D01*
X5876732Y5438209D01*
X5860169Y5445070D01*
D02*
G37*
G36*
X10138484Y5380066D02*
X10120556D01*
X10103992Y5373205D01*
X10091315Y5360528D01*
X10084455Y5343965D01*
Y5326037D01*
X10091315Y5309473D01*
X10103992Y5296796D01*
X10120556Y5289935D01*
X10138484D01*
X10155048Y5296796D01*
X10167725Y5309473D01*
X10174585Y5326037D01*
Y5343965D01*
X10167725Y5360528D01*
X10155048Y5373205D01*
X10138484Y5380066D01*
D02*
G37*
G36*
X7406465Y5282545D02*
X7388537D01*
X7371974Y5275685D01*
X7359296Y5263008D01*
X7352436Y5246444D01*
Y5228516D01*
X7359296Y5211952D01*
X7371974Y5199275D01*
X7388537Y5192415D01*
X7406465D01*
X7423029Y5199275D01*
X7435706Y5211952D01*
X7442567Y5228516D01*
Y5246444D01*
X7435706Y5263008D01*
X7423029Y5275685D01*
X7406465Y5282545D01*
D02*
G37*
G36*
X8438964Y5265065D02*
X8421036D01*
X8404472Y5258205D01*
X8391795Y5245527D01*
X8384934Y5228964D01*
Y5211036D01*
X8391795Y5194472D01*
X8404472Y5181795D01*
X8421036Y5174935D01*
X8438964D01*
X8455527Y5181795D01*
X8468205Y5194472D01*
X8475065Y5211036D01*
Y5228964D01*
X8468205Y5245527D01*
X8455527Y5258205D01*
X8438964Y5265065D01*
D02*
G37*
G36*
X7086600Y5207852D02*
Y5153660D01*
X7140792D01*
X7137173Y5167168D01*
X7128234Y5182652D01*
X7115592Y5195294D01*
X7100108Y5204233D01*
X7086600Y5207852D01*
D02*
G37*
G36*
X7061200D02*
X7047692Y5204233D01*
X7032208Y5195294D01*
X7019566Y5182652D01*
X7010627Y5167168D01*
X7007008Y5153660D01*
X7061200D01*
Y5207852D01*
D02*
G37*
G36*
X7140792Y5128260D02*
X7086600D01*
Y5074068D01*
X7100108Y5077687D01*
X7115592Y5086626D01*
X7128234Y5099268D01*
X7137173Y5114752D01*
X7140792Y5128260D01*
D02*
G37*
G36*
X7061200D02*
X7007008D01*
X7010627Y5114752D01*
X7019566Y5099268D01*
X7032208Y5086626D01*
X7047692Y5077687D01*
X7061200Y5074068D01*
Y5128260D01*
D02*
G37*
G36*
X6915336Y5128337D02*
X6897408D01*
X6880844Y5121476D01*
X6868167Y5108799D01*
X6861306Y5092236D01*
Y5074307D01*
X6868167Y5057744D01*
X6880844Y5045067D01*
X6897408Y5038206D01*
X6915336D01*
X6931899Y5045067D01*
X6944576Y5057744D01*
X6951437Y5074307D01*
Y5092236D01*
X6944576Y5108799D01*
X6931899Y5121476D01*
X6915336Y5128337D01*
D02*
G37*
G36*
X5578964Y5115065D02*
X5561036D01*
X5544473Y5108205D01*
X5531795Y5095528D01*
X5524935Y5078964D01*
Y5061036D01*
X5531795Y5044473D01*
X5544473Y5031795D01*
X5561036Y5024935D01*
X5578964D01*
X5595528Y5031795D01*
X5608205Y5044473D01*
X5615065Y5061036D01*
Y5078964D01*
X5608205Y5095528D01*
X5595528Y5108205D01*
X5578964Y5115065D01*
D02*
G37*
G36*
X4898964Y5085066D02*
X4881036D01*
X4864473Y5078205D01*
X4851795Y5065528D01*
X4844935Y5048964D01*
Y5031036D01*
X4851795Y5014473D01*
X4864473Y5001795D01*
X4881036Y4994935D01*
X4898964D01*
X4915528Y5001795D01*
X4928205Y5014473D01*
X4935066Y5031036D01*
Y5048964D01*
X4928205Y5065528D01*
X4915528Y5078205D01*
X4898964Y5085066D01*
D02*
G37*
G36*
X7725181Y4964012D02*
X7711673Y4960393D01*
X7696190Y4951454D01*
X7683548Y4938812D01*
X7674608Y4923328D01*
X7670989Y4909820D01*
X7725181D01*
Y4964012D01*
D02*
G37*
G36*
X8212700Y4946892D02*
Y4892700D01*
X8266893D01*
X8263273Y4906208D01*
X8254334Y4921691D01*
X8241692Y4934334D01*
X8226209Y4943273D01*
X8212700Y4946892D01*
D02*
G37*
G36*
X4083165Y4953565D02*
X4065236D01*
X4048673Y4946704D01*
X4035996Y4934027D01*
X4029135Y4917463D01*
Y4899535D01*
X4035996Y4882972D01*
X4048673Y4870295D01*
X4065236Y4863434D01*
X4083165D01*
X4099728Y4870295D01*
X4112405Y4882972D01*
X4119266Y4899535D01*
Y4917463D01*
X4112405Y4934027D01*
X4099728Y4946704D01*
X4083165Y4953565D01*
D02*
G37*
G36*
X7725181Y4884420D02*
X7670989D01*
X7674608Y4870912D01*
X7683548Y4855428D01*
X7696190Y4842786D01*
X7711673Y4833847D01*
X7725181Y4830228D01*
Y4884420D01*
D02*
G37*
G36*
X8266893Y4867300D02*
X8212700D01*
Y4813107D01*
X8226209Y4816727D01*
X8241692Y4825666D01*
X8254334Y4838308D01*
X8263273Y4853791D01*
X8266893Y4867300D01*
D02*
G37*
G36*
X7750581Y4964012D02*
Y4897120D01*
Y4830228D01*
X7764090Y4833847D01*
X7779573Y4842786D01*
X7792215Y4855428D01*
X7801154Y4870912D01*
X7801456Y4872037D01*
X8132100D01*
Y4871061D01*
X8136727Y4853791D01*
X8145666Y4838308D01*
X8158309Y4825666D01*
X8173792Y4816727D01*
X8187300Y4813107D01*
Y4880000D01*
Y4946892D01*
X8173792Y4943273D01*
X8158309Y4934334D01*
X8145666Y4921691D01*
X8136727Y4906208D01*
X8136426Y4905083D01*
X7805781D01*
Y4906059D01*
X7801154Y4923328D01*
X7792215Y4938812D01*
X7779573Y4951454D01*
X7764090Y4960393D01*
X7750581Y4964012D01*
D02*
G37*
G36*
X5138964Y4845065D02*
X5121036D01*
X5104472Y4838205D01*
X5091795Y4825528D01*
X5084934Y4808964D01*
Y4791036D01*
X5091795Y4774473D01*
X5104472Y4761795D01*
X5121036Y4754935D01*
X5138964D01*
X5155527Y4761795D01*
X5168205Y4774473D01*
X5175065Y4791036D01*
Y4808964D01*
X5168205Y4825528D01*
X5155527Y4838205D01*
X5138964Y4845065D01*
D02*
G37*
G36*
X4083165Y4795663D02*
X4065236D01*
X4048673Y4788802D01*
X4035996Y4776125D01*
X4029135Y4759562D01*
Y4741633D01*
X4035996Y4725070D01*
X4048673Y4712393D01*
X4065236Y4705532D01*
X4083165D01*
X4099728Y4712393D01*
X4112405Y4725070D01*
X4119266Y4741633D01*
Y4759562D01*
X4112405Y4776125D01*
X4099728Y4788802D01*
X4083165Y4795663D01*
D02*
G37*
G36*
X5876364Y4721205D02*
X5858436D01*
X5841872Y4714345D01*
X5829195Y4701668D01*
X5822335Y4685104D01*
Y4667176D01*
X5829195Y4650612D01*
X5841872Y4637935D01*
X5858436Y4631075D01*
X5876364D01*
X5892928Y4637935D01*
X5905605Y4650612D01*
X5912465Y4667176D01*
Y4685104D01*
X5905605Y4701668D01*
X5892928Y4714345D01*
X5876364Y4721205D01*
D02*
G37*
G36*
X4958964Y4575066D02*
X4941036D01*
X4924472Y4568205D01*
X4911795Y4555528D01*
X4904935Y4538964D01*
Y4521036D01*
X4911795Y4504473D01*
X4924472Y4491795D01*
X4941036Y4484935D01*
X4958964D01*
X4975528Y4491795D01*
X4988205Y4504473D01*
X4995065Y4521036D01*
Y4538964D01*
X4988205Y4555528D01*
X4975528Y4568205D01*
X4958964Y4575066D01*
D02*
G37*
G36*
X10194964Y4523085D02*
X10177035D01*
X10160472Y4516225D01*
X10147795Y4503548D01*
X10140934Y4486984D01*
Y4469056D01*
X10147795Y4452492D01*
X10160472Y4439815D01*
X10177035Y4432955D01*
X10194964D01*
X10211527Y4439815D01*
X10224204Y4452492D01*
X10231065Y4469056D01*
Y4486984D01*
X10224204Y4503548D01*
X10211527Y4516225D01*
X10194964Y4523085D01*
D02*
G37*
G36*
X6303963Y4516964D02*
X6286035D01*
X6269471Y4510103D01*
X6256794Y4497426D01*
X6249933Y4480863D01*
Y4462934D01*
X6256794Y4446371D01*
X6262217Y4440949D01*
X6256794Y4435526D01*
X6249933Y4418963D01*
Y4401035D01*
X6256794Y4384471D01*
X6269471Y4371794D01*
X6286035Y4364933D01*
X6303963D01*
X6320526Y4371794D01*
X6333203Y4384471D01*
X6340064Y4401035D01*
Y4418963D01*
X6333203Y4435526D01*
X6327781Y4440949D01*
X6333203Y4446371D01*
X6340064Y4462934D01*
Y4480863D01*
X6333203Y4497426D01*
X6320526Y4510103D01*
X6303963Y4516964D01*
D02*
G37*
G36*
X5933362Y4455064D02*
X5915433D01*
X5898870Y4448203D01*
X5886193Y4435526D01*
X5879332Y4418963D01*
Y4401035D01*
X5886193Y4384471D01*
X5898870Y4371794D01*
X5915433Y4364933D01*
X5933362D01*
X5949925Y4371794D01*
X5962602Y4384471D01*
X5969463Y4401035D01*
Y4418963D01*
X5962602Y4435526D01*
X5949925Y4448203D01*
X5933362Y4455064D01*
D02*
G37*
G36*
X9819640Y4313772D02*
Y4259580D01*
X9873832D01*
X9870213Y4273088D01*
X9861274Y4288572D01*
X9848632Y4301214D01*
X9833148Y4310153D01*
X9819640Y4313772D01*
D02*
G37*
G36*
X9794240D02*
X9780732Y4310153D01*
X9765248Y4301214D01*
X9752606Y4288572D01*
X9743667Y4273088D01*
X9740048Y4259580D01*
X9794240D01*
Y4313772D01*
D02*
G37*
G36*
X8852703D02*
Y4259580D01*
X8906895D01*
X8903276Y4273088D01*
X8894336Y4288572D01*
X8881694Y4301214D01*
X8866211Y4310153D01*
X8852703Y4313772D01*
D02*
G37*
G36*
X8827303D02*
X8813794Y4310153D01*
X8798311Y4301214D01*
X8785669Y4288572D01*
X8776730Y4273088D01*
X8773110Y4259580D01*
X8827303D01*
Y4313772D01*
D02*
G37*
G36*
X9873832Y4234180D02*
X9819640D01*
Y4179988D01*
X9833148Y4183607D01*
X9848632Y4192546D01*
X9861274Y4205188D01*
X9870213Y4220672D01*
X9873832Y4234180D01*
D02*
G37*
G36*
X9794240D02*
X9740048D01*
X9743667Y4220672D01*
X9752606Y4205188D01*
X9765248Y4192546D01*
X9780732Y4183607D01*
X9794240Y4179988D01*
Y4234180D01*
D02*
G37*
G36*
X8906895D02*
X8852703D01*
Y4179988D01*
X8866211Y4183607D01*
X8881694Y4192546D01*
X8894336Y4205188D01*
X8903276Y4220672D01*
X8906895Y4234180D01*
D02*
G37*
G36*
X8827303D02*
X8773110D01*
X8776730Y4220672D01*
X8785669Y4205188D01*
X8798311Y4192546D01*
X8813794Y4183607D01*
X8827303Y4179988D01*
Y4234180D01*
D02*
G37*
G36*
X6432700Y4056892D02*
Y4002700D01*
X6486893D01*
X6483273Y4016208D01*
X6474334Y4031691D01*
X6461692Y4044334D01*
X6446209Y4053273D01*
X6432700Y4056892D01*
D02*
G37*
G36*
X6407300D02*
X6393792Y4053273D01*
X6378309Y4044334D01*
X6365666Y4031691D01*
X6356727Y4016208D01*
X6353108Y4002700D01*
X6407300D01*
Y4056892D01*
D02*
G37*
G36*
X7943924Y4068425D02*
X7925996D01*
X7909432Y4061565D01*
X7896755Y4048888D01*
X7889895Y4032324D01*
Y4014396D01*
X7896755Y3997832D01*
X7909432Y3985155D01*
X7925996Y3978295D01*
X7943924D01*
X7960488Y3985155D01*
X7973165Y3997832D01*
X7980025Y4014396D01*
Y4032324D01*
X7973165Y4048888D01*
X7960488Y4061565D01*
X7943924Y4068425D01*
D02*
G37*
G36*
X4732500Y4077776D02*
X4632500D01*
X4630537Y4076963D01*
X4629724Y4075000D01*
Y3977776D01*
X4535277D01*
Y4075000D01*
X4534464Y4076963D01*
X4532500Y4077776D01*
X4432500D01*
X4430537Y4076963D01*
X4429724Y4075000D01*
Y3575000D01*
X4430537Y3573036D01*
X4432500Y3572223D01*
X4554724D01*
Y3527776D01*
X4432500D01*
X4430537Y3526963D01*
X4429724Y3525000D01*
Y3475000D01*
X4430537Y3473036D01*
X4432500Y3472223D01*
X4554724D01*
Y3375000D01*
X4555537Y3373036D01*
X4557500Y3372223D01*
X4732500D01*
X4734464Y3373036D01*
X4735277Y3375000D01*
Y3525000D01*
X4734464Y3526963D01*
X4732500Y3527776D01*
X4610277D01*
Y3572223D01*
X4732500D01*
X4734464Y3573036D01*
X4735277Y3575000D01*
Y4075000D01*
X4734464Y4076963D01*
X4732500Y4077776D01*
D02*
G37*
G36*
X6486893Y3977300D02*
X6432700D01*
Y3923107D01*
X6446209Y3926727D01*
X6461692Y3935666D01*
X6474334Y3948308D01*
X6483273Y3963791D01*
X6486893Y3977300D01*
D02*
G37*
G36*
X6407300D02*
X6353108D01*
X6356727Y3963791D01*
X6365666Y3948308D01*
X6378309Y3935666D01*
X6393792Y3926727D01*
X6407300Y3923107D01*
Y3977300D01*
D02*
G37*
G36*
X9479280Y3792895D02*
Y3738702D01*
X9533472D01*
X9529853Y3752211D01*
X9520914Y3767694D01*
X9508272Y3780336D01*
X9492788Y3789275D01*
X9479280Y3792895D01*
D02*
G37*
G36*
X9453880D02*
X9440372Y3789275D01*
X9424888Y3780336D01*
X9412246Y3767694D01*
X9403307Y3752211D01*
X9399688Y3738702D01*
X9453880D01*
Y3792895D01*
D02*
G37*
G36*
X9533472Y3713302D02*
X9479280D01*
Y3659110D01*
X9492788Y3662729D01*
X9508272Y3671669D01*
X9520914Y3684311D01*
X9529853Y3699794D01*
X9533472Y3713302D01*
D02*
G37*
G36*
X9453880D02*
X9399688D01*
X9403307Y3699794D01*
X9412246Y3684311D01*
X9424888Y3671669D01*
X9440372Y3662729D01*
X9453880Y3659110D01*
Y3713302D01*
D02*
G37*
G36*
X5624904Y3697585D02*
X5606976D01*
X5590412Y3690725D01*
X5577735Y3678048D01*
X5570875Y3661484D01*
Y3643556D01*
X5577735Y3626992D01*
X5590412Y3614315D01*
X5606976Y3607455D01*
X5624904D01*
X5641468Y3614315D01*
X5654145Y3626992D01*
X5661005Y3643556D01*
Y3661484D01*
X5654145Y3678048D01*
X5641468Y3690725D01*
X5624904Y3697585D01*
D02*
G37*
G36*
X10088964Y3527405D02*
X10071036D01*
X10054473Y3520545D01*
X10041796Y3507868D01*
X10034935Y3491304D01*
Y3473376D01*
X10041796Y3456812D01*
X10054473Y3444135D01*
X10071036Y3437275D01*
X10088964D01*
X10105528Y3444135D01*
X10118205Y3456812D01*
X10125066Y3473376D01*
Y3491304D01*
X10118205Y3507868D01*
X10105528Y3520545D01*
X10088964Y3527405D01*
D02*
G37*
G36*
X7830370Y3568765D02*
X7809631D01*
X7789598Y3563397D01*
X7771637Y3553028D01*
X7756972Y3538363D01*
X7746602Y3520402D01*
X7741235Y3500369D01*
Y3479630D01*
X7746602Y3459598D01*
X7756972Y3441637D01*
X7771637Y3426972D01*
X7789598Y3416602D01*
X7809631Y3411234D01*
X7830370D01*
X7850402Y3416602D01*
X7868363Y3426972D01*
X7883028Y3441637D01*
X7893398Y3459598D01*
X7898766Y3479630D01*
Y3500369D01*
X7893398Y3520402D01*
X7883028Y3538363D01*
X7868363Y3553028D01*
X7850402Y3563397D01*
X7830370Y3568765D01*
D02*
G37*
G36*
X11858205Y3397901D02*
X11856700D01*
Y3302701D01*
X11951900D01*
Y3304206D01*
X11944547Y3331649D01*
X11930341Y3356253D01*
X11910252Y3376342D01*
X11885648Y3390548D01*
X11858205Y3397901D01*
D02*
G37*
G36*
X11831300D02*
X11829794D01*
X11802352Y3390548D01*
X11777748Y3376342D01*
X11757658Y3356253D01*
X11743453Y3331649D01*
X11736100Y3304206D01*
Y3302701D01*
X11831300D01*
Y3397901D01*
D02*
G37*
G36*
X13379199Y3379064D02*
X13356801D01*
X13335165Y3373267D01*
X13315768Y3362068D01*
X13299930Y3346230D01*
X13288731Y3326833D01*
X13282935Y3305198D01*
Y3282800D01*
X13288731Y3261165D01*
X13299930Y3241768D01*
X13315768Y3225930D01*
X13335165Y3214731D01*
X13356801Y3208934D01*
X13379199D01*
X13400835Y3214731D01*
X13420232Y3225930D01*
X13436069Y3241768D01*
X13447269Y3261165D01*
X13453065Y3282800D01*
Y3305198D01*
X13447269Y3326833D01*
X13436069Y3346230D01*
X13420232Y3362068D01*
X13400835Y3373267D01*
X13379199Y3379064D01*
D02*
G37*
G36*
X13125198Y3375066D02*
X13102802D01*
X13081166Y3369269D01*
X13061768Y3358070D01*
X13045930Y3342232D01*
X13034731Y3322835D01*
X13028934Y3301200D01*
Y3278802D01*
X13034731Y3257167D01*
X13045930Y3237770D01*
X13061768Y3221932D01*
X13081166Y3210733D01*
X13102802Y3204936D01*
X13125198D01*
X13146834Y3210733D01*
X13166231Y3221932D01*
X13182069Y3237770D01*
X13193268Y3257167D01*
X13199065Y3278802D01*
Y3301200D01*
X13193268Y3322835D01*
X13182069Y3342232D01*
X13166231Y3358070D01*
X13146834Y3369269D01*
X13125198Y3375066D01*
D02*
G37*
G36*
X12871199D02*
X12848801D01*
X12827167Y3369269D01*
X12807768Y3358070D01*
X12791930Y3342232D01*
X12780731Y3322835D01*
X12774934Y3301200D01*
Y3278802D01*
X12780731Y3257167D01*
X12791930Y3237770D01*
X12807768Y3221932D01*
X12827167Y3210733D01*
X12848801Y3204936D01*
X12871199D01*
X12892834Y3210733D01*
X12912231Y3221932D01*
X12928069Y3237770D01*
X12939268Y3257167D01*
X12945065Y3278802D01*
Y3301200D01*
X12939268Y3322835D01*
X12928069Y3342232D01*
X12912231Y3358070D01*
X12892834Y3369269D01*
X12871199Y3375066D01*
D02*
G37*
G36*
X12617199D02*
X12594801D01*
X12573166Y3369269D01*
X12553768Y3358070D01*
X12537930Y3342232D01*
X12526731Y3322835D01*
X12520934Y3301200D01*
Y3278802D01*
X12526731Y3257167D01*
X12537930Y3237770D01*
X12553768Y3221932D01*
X12573166Y3210733D01*
X12594801Y3204936D01*
X12617199D01*
X12638834Y3210733D01*
X12658231Y3221932D01*
X12674069Y3237770D01*
X12685268Y3257167D01*
X12691065Y3278802D01*
Y3301200D01*
X12685268Y3322835D01*
X12674069Y3342232D01*
X12658231Y3358070D01*
X12638834Y3369269D01*
X12617199Y3375066D01*
D02*
G37*
G36*
X12363199D02*
X12340801D01*
X12319166Y3369269D01*
X12299768Y3358070D01*
X12283930Y3342232D01*
X12272731Y3322835D01*
X12266934Y3301200D01*
Y3278802D01*
X12272731Y3257167D01*
X12283930Y3237770D01*
X12299768Y3221932D01*
X12319166Y3210733D01*
X12340801Y3204936D01*
X12363199D01*
X12384834Y3210733D01*
X12404231Y3221932D01*
X12420069Y3237770D01*
X12431268Y3257167D01*
X12437065Y3278802D01*
Y3301200D01*
X12431268Y3322835D01*
X12420069Y3342232D01*
X12404231Y3358070D01*
X12384834Y3369269D01*
X12363199Y3375066D01*
D02*
G37*
G36*
X12109199D02*
X12086801D01*
X12065166Y3369269D01*
X12045768Y3358070D01*
X12029930Y3342232D01*
X12018731Y3322835D01*
X12012934Y3301200D01*
Y3278802D01*
X12018731Y3257167D01*
X12029930Y3237770D01*
X12045768Y3221932D01*
X12065166Y3210733D01*
X12086801Y3204936D01*
X12109199D01*
X12130834Y3210733D01*
X12150231Y3221932D01*
X12166069Y3237770D01*
X12177268Y3257167D01*
X12183065Y3278802D01*
Y3301200D01*
X12177268Y3322835D01*
X12166069Y3342232D01*
X12150231Y3358070D01*
X12130834Y3369269D01*
X12109199Y3375066D01*
D02*
G37*
G36*
X11601199D02*
X11578801D01*
X11557166Y3369269D01*
X11537768Y3358070D01*
X11521930Y3342232D01*
X11510731Y3322835D01*
X11504934Y3301200D01*
Y3278802D01*
X11510731Y3257167D01*
X11521930Y3237770D01*
X11537768Y3221932D01*
X11557166Y3210733D01*
X11578801Y3204936D01*
X11601199D01*
X11622834Y3210733D01*
X11642231Y3221932D01*
X11658069Y3237770D01*
X11669268Y3257167D01*
X11675065Y3278802D01*
Y3301200D01*
X11669268Y3322835D01*
X11658069Y3342232D01*
X11642231Y3358070D01*
X11622834Y3369269D01*
X11601199Y3375066D01*
D02*
G37*
G36*
X11951900Y3277301D02*
X11856700D01*
Y3182101D01*
X11858205D01*
X11885648Y3189454D01*
X11910252Y3203660D01*
X11930341Y3223749D01*
X11944547Y3248353D01*
X11951900Y3275796D01*
Y3277301D01*
D02*
G37*
G36*
X11831300D02*
X11736100D01*
Y3275796D01*
X11743453Y3248353D01*
X11757658Y3223749D01*
X11777748Y3203660D01*
X11802352Y3189454D01*
X11829794Y3182101D01*
X11831300D01*
Y3277301D01*
D02*
G37*
%LPD*%
G36*
X8712433Y6434758D02*
X8714814Y6427503D01*
X8709764Y6409300D01*
X8698080Y6404460D01*
X8674759Y6381138D01*
X8116683D01*
X8114087Y6390824D01*
X8105148Y6406307D01*
X8104336Y6407119D01*
X8118724Y6428652D01*
X8129196Y6424315D01*
X8147124D01*
X8163688Y6431175D01*
X8176365Y6443852D01*
X8180094Y6452857D01*
X8699257D01*
X8712433Y6434758D01*
D02*
G37*
D42*
X8686800Y6309360D02*
X9164000Y5832160D01*
X9164320Y5831840D01*
X8138160Y6469380D02*
X8954396D01*
X8767483Y6392776D02*
X8778887Y6404180D01*
X8996898Y6511881D02*
X10888119D01*
X8954396Y6469380D02*
X8996898Y6511881D01*
X6650000Y6360749D02*
X6720886Y6289863D01*
X6705200Y6590000D02*
Y6862865D01*
X6650000Y6360749D02*
Y6840000D01*
X6594800Y5223820D02*
X6870700Y4947920D01*
X6594800Y5223820D02*
Y6862865D01*
X6672864Y6895200D02*
X6705200Y6862865D01*
X6594800D02*
X6627135Y6895200D01*
X6672864D01*
X8191440Y4888560D02*
X8200000Y4880000D01*
X7737881Y4897120D02*
X7746441Y4888560D01*
X8191440D01*
X6870700Y3972560D02*
Y4947920D01*
X6619240Y3721100D02*
X6870700Y3972560D01*
X8686800Y6309360D02*
Y6359793D01*
X10888119Y6511881D02*
X11010000Y6390000D01*
X8681603Y6364615D02*
X8709764Y6392776D01*
X8767483D01*
X8681603Y6364615D02*
X8686800Y6359793D01*
X8050814Y6364615D02*
X8681603D01*
X6819555D02*
X8050814D01*
X6471920Y3721100D02*
X6619240D01*
X6408420Y4879340D02*
X6804660D01*
X3418840Y5971733D02*
X3475573Y5915000D01*
X3418840Y5971733D02*
Y6453266D01*
X3475573Y6510000D01*
D43*
X11590000Y3290001D02*
D03*
X12098000D02*
D03*
X13114000D02*
D03*
X12860001D02*
D03*
X12606000D02*
D03*
X12352000D02*
D03*
X11844000D02*
D03*
X13367999Y3293999D02*
D03*
Y5579999D02*
D03*
X11590000D02*
D03*
X11844000D02*
D03*
X12098000D02*
D03*
X12352000D02*
D03*
X12606000D02*
D03*
X12860001D02*
D03*
X13114000D02*
D03*
D45*
X7820000Y3490000D02*
D03*
D46*
X3610574Y6510000D02*
D03*
Y6425001D02*
D03*
Y6340003D02*
D03*
Y6254999D02*
D03*
Y6170000D02*
D03*
Y6085002D02*
D03*
Y5999998D02*
D03*
Y5915000D02*
D03*
X3475573D02*
D03*
Y5999998D02*
D03*
Y6085002D02*
D03*
Y6170000D02*
D03*
Y6254999D02*
D03*
Y6340003D02*
D03*
Y6425001D02*
D03*
Y6510000D02*
D03*
D47*
X3174573Y6645001D02*
D03*
Y5779999D02*
D03*
D48*
X3512576Y6645001D02*
D03*
Y5779999D02*
D03*
D49*
X9164000Y5832160D02*
D03*
X8778887Y6404180D02*
D03*
X9164320Y5831840D02*
D03*
X9260000Y6030000D02*
D03*
X9027160Y5748020D02*
D03*
X6720886Y6289863D02*
D03*
X6705200Y6590000D02*
D03*
X6650000Y6840000D02*
D03*
X8020000Y5830000D02*
D03*
X4890000Y5040000D02*
D03*
X4950000Y4530000D02*
D03*
X5130000Y4800000D02*
D03*
X5570000Y5070000D02*
D03*
X8430000Y5220000D02*
D03*
X8200000Y4880000D02*
D03*
X8020000Y5600000D02*
D03*
X7934960Y4023360D02*
D03*
X7737881Y4897120D02*
D03*
X6420000Y3990000D02*
D03*
X9350000Y6400000D02*
D03*
X10469999Y6377498D02*
D03*
X11150000Y5450000D02*
D03*
X11010000Y6390000D02*
D03*
X8840003Y4246880D02*
D03*
X9466580Y3726002D02*
D03*
X6819555Y6364615D02*
D03*
X5867400Y4676140D02*
D03*
X10129520Y5335001D02*
D03*
X8255000Y5595620D02*
D03*
X5615940Y3652520D02*
D03*
X7197882Y6474938D02*
D03*
X8138160Y6469380D02*
D03*
X5854400Y5584403D02*
D03*
X6906372Y5083272D02*
D03*
X6294999Y4471899D02*
D03*
X6471920Y3721100D02*
D03*
X7397501Y5237480D02*
D03*
X6804660Y4879340D02*
D03*
X6908800Y5642859D02*
D03*
X6408420Y4879340D02*
D03*
X7073900Y5140960D02*
D03*
X6294999Y4409999D02*
D03*
X5924398D02*
D03*
X7496642Y6587861D02*
D03*
X8050814Y6364615D02*
D03*
X9806940Y4246880D02*
D03*
X4074201Y4750598D02*
D03*
Y5435798D02*
D03*
Y4908499D02*
D03*
X10185999Y4478020D02*
D03*
X10080000Y3482340D02*
D03*
X5851205Y5400004D02*
D03*
D50*
X8230001Y5790428D02*
D03*
Y5900425D02*
D03*
Y6010427D02*
D03*
Y6120425D02*
D03*
Y6230427D02*
D03*
X8339999Y5790428D02*
D03*
Y5900425D02*
D03*
Y6010427D02*
D03*
Y6120425D02*
D03*
Y6230427D02*
D03*
X8450001Y5790428D02*
D03*
Y5900425D02*
D03*
Y6010427D02*
D03*
Y6120425D02*
D03*
Y6230427D02*
D03*
X8559998Y5790428D02*
D03*
Y5900425D02*
D03*
Y6010427D02*
D03*
Y6120425D02*
D03*
Y6230427D02*
D03*
X8670000Y5790428D02*
D03*
Y5900425D02*
D03*
Y6010427D02*
D03*
Y6120425D02*
D03*
Y6230427D02*
D03*
%TF.MD5,93de0ebf2b2ad449da2729ce301bf783*%
M02*
